{
.appVersion = "3108";
.formatVersion = 3;
DisplayStrings = (
j,
a,
B
);
axes = (
{
name = Weight;
tag = wght;
}
);
date = "2022-04-11 18:23:24 +0000";
familyName = GOMM;
featurePrefixes = (
{
automatic = 1;
code = "languagesystem DFLT dflt;
";
name = Languagesystems;
}
);
features = (
{
automatic = 1;
code = "feature tnum;
";
tag = aalt;
},
{
automatic = 1;
code = "sub zero by zero.tf;
sub one by one.tf;
sub two by two.tf;
sub three by three.tf;
sub four by four.tf;
sub five by five.tf;
sub six by six.tf;
sub seven by seven.tf;
sub eight by eight.tf;
sub nine by nine.tf;
";
tag = tnum;
},
{
automatic = 1;
code = "sub zero by zero.tf;
sub one by one.tf;
sub two by two.tf;
sub three by three.tf;
sub four by four.tf;
sub five by five.tf;
sub six by six.tf;
sub seven by seven.tf;
sub eight by eight.tf;
sub nine by nine.tf;
";
disabled = 1;
tag = case;
},
{
automatic = 1;
code = "lookupflag IgnoreMarks;
sub f f t by f_f_t;
sub f j by f_j;
sub f t by f_t;
";
tag = dlig;
},
{
automatic = 1;
code = "lookupflag IgnoreMarks;
sub f f i by f_f_i;
sub f f l by f_f_l;
sub f f by f_f;
sub f i by f_i;
sub f l by f_l;
";
tag = liga;
}
);
fontMaster = (
{
axesValues = (
0
);
id = m01;
metricValues = (
{
over = 16;
pos = 800;
},
{
over = 16;
pos = 700;
},
{
over = 16;
pos = 350;
},
{
over = -16;
},
{
over = -16;
pos = -350;
}
);
name = Regular;
visible = 1;
}
);
glyphs = (
{
glyphname = A;
lastChange = "2022-04-03 16:21:30 +0000";
layers = (
{
layerId = m01;
shapes = (
{
closed = 1;
nodes = (
(73,-1,l),
(141,0,l),
(194,-5,ls),
(224,-8,o),
(214,14,o),
(201,21,cs),
(148,48,o),
(130,60,o),
(136,90,cs),
(144,128,o),
(152,166,o),
(160,190,cs),
(199,300,ls),
(205,316,o),
(228,312,o),
(251,313,cs),
(274,314,o),
(301,316,o),
(326,316,cs),
(350,316,o),
(371,315,o),
(383,313,cs),
(399,310,o),
(424,309,o),
(430,296,cs),
(454,243,o),
(469,200,o),
(479,171,cs),
(487,145,o),
(494,119,o),
(507,80,cs),
(511,62,o),
(511,48,o),
(463,21,cs),
(450,14,o),
(440,-7,o),
(470,-5,cs),
(540,0,l),
(599,-1,l),
(655,-5,ls),
(685,-7,o),
(668,17,o),
(663,21,cs),
(620,47,o),
(618,32,o),
(602,85,cs),
(581,156,l),
(508,369,ls),
(495,406,o),
(393,745,o),
(347,728,cs),
(284,706,o),
(257,690,o),
(250,668,cs),
(212,547,l),
(85,163,l),
(65,100,ls),
(41,25,o),
(30,33,o),
(9,21,cs),
(4,17,o),
(-13,-7,o),
(17,-5,cs)
);
},
{
closed = 1;
nodes = (
(300,348,o),
(274,350,o),
(251,352,cs),
(236,354,o),
(216,356,o),
(220,372,cs),
(291,631,ls),
(301,668,o),
(359,509,o),
(407,372,cs),
(412,357,o),
(380,351,o),
(372,350,cs),
(343,348,o),
(336,349,o),
(326,349,cs)
);
}
);
width = 672;
},
{
associatedMasterId = m01;
layerId = "8BCE7001-2460-47A4-8922-72DF6F8551FE";
name = "Apr 3, 22, 08:56";
visible = 1;
width = 637;
}
);
unicode = 65;
},
{
glyphname = B;
lastChange = "2022-04-12 23:51:25 +0000";
layers = (
{
layerId = m01;
shapes = (
{
closed = 1;
nodes = (
(170,-1,l),
(347,-2,ls),
(389,-2,o),
(435,3,o),
(448,7,cs),
(558,36,o),
(613,123,o),
(580,227,cs),
(552,310,o),
(499,354,o),
(404,366,c),
(390,369,o),
(379,367,o),
(383,380,cs),
(385,387,o),
(389,390,o),
(399,395,c),
(489,427,o),
(534,515,o),
(499,599,cs),
(466,672,o),
(410,706,o),
(311,703,cs),
(247,701,l),
(125,701,l),
(76,705,ls),
(50,707,o),
(65,682,o),
(70,679,cs),
(97,659,o),
(125,658,o),
(125,610,cs),
(125,170,ls),
(125,52,o),
(95,54,o),
(64,34,c),
(56,30,o),
(44,-7,o),
(73,-6,cs)
);
},
{
closed = 1;
nodes = (
(211,46,o),
(235,49,o),
(220,56,cs),
(204,64,o),
(206,106,o),
(206,126,cs),
(205,223,ls),
(205,267,o),
(203,311,o),
(229,329,cs),
(244,339,o),
(249,343,o),
(279,344,cs),
(290,344,o),
(329,343,o),
(363,343,cs),
(456,343,o),
(488,295,o),
(512,217,cs),
(534,149,o),
(513,49,o),
(439,31,cs),
(410,25,o),
(356,26,o),
(327,30,cs)
);
},
{
closed = 1;
nodes = (
(206,421,o),
(207,449,o),
(205,506,cs),
(204,533,o),
(204,537,o),
(204,577,cs),
(204,588,o),
(207,606,o),
(212,616,cs),
(216,626,o),
(216,630,o),
(227,638,cs),
(239,647,o),
(256,657,o),
(304,666,c),
(381,673,o),
(418,647,o),
(443,585,cs),
(467,530,o),
(441,442,o),
(396,423,cs),
(309,387,o),
(263,392,o),
(230,409,cs)
);
}
);
width = 617;
}
);
unicode = 66;
},
{
glyphname = C;
lastChange = "2022-04-03 00:32:31 +0000";
layers = (
{
layerId = m01;
shapes = (
{
closed = 1;
nodes = (
(635,564,o),
(557,572,o),
(546,583,cs),
(538,591,l),
(485,668,o),
(400,694,o),
(305,673,cs),
(152,640,o),
(93,441,o),
(128,282,cs),
(165,117,o),
(275,7,o),
(428,18,cs),
(503,23,o),
(583,47,o),
(626,96,cs),
(646,116,o),
(647,142,o),
(656,131,cs),
(666,118,o),
(665,82,o),
(657,75,cs),
(579,4,o),
(506,-6,o),
(447,-13,cs),
(268,-33,o),
(93,70,o),
(49,270,cs),
(4,468,o),
(98,665,o),
(286,707,cs),
(406,734,o),
(525,711,o),
(601,623,c),
(605,616,ls)
);
}
);
width = 690;
},
{
associatedMasterId = m01;
layerId = "E901688F-01E0-4275-BBE4-7F022C272833";
name = "Apr 2, 22, 09:18";
shapes = (
{
closed = 1;
nodes = (
(568,28,o),
(662,226,o),
(616,426,cs),
(571,623,o),
(406,749,o),
(222,707,cs),
(34,665,o),
(-60,468,o),
(-15,270,cs),
(29,70,o),
(196,-55,o),
(383,-13,cs)
);
},
{
closed = 1;
nodes = (
(212,-16,o),
(101,117,o),
(64,282,cs),
(29,441,o),
(88,640,o),
(241,673,cs),
(391,707,o),
(498,571,o),
(534,410,cs),
(572,248,o),
(515,54,o),
(364,18,cs)
);
}
);
visible = 1;
width = 600;
}
);
unicode = 67;
},
{
glyphname = D;
lastChange = "2022-04-03 01:09:01 +0000";
layers = (
{
background = {
shapes = (
{
closed = 0;
nodes = (
(901,590,l)
);
}
);
};
layerId = m01;
shapes = (
{
closed = 1;
nodes = (
(435,41,o),
(427,41,o),
(394,42,cs),
(279,44,ls),
(261,44,o),
(235,49,o),
(220,56,cs),
(204,64,o),
(206,106,o),
(206,126,cs),
(206,152,o),
(205,198,o),
(205,223,cs),
(205,267,o),
(207,449,o),
(205,506,cs),
(204,533,o),
(204,537,o),
(204,577,cs),
(204,588,o),
(207,606,o),
(212,616,cs),
(216,626,o),
(217,630,o),
(227,638,cs),
(248,656,o),
(309,662,o),
(338,662,cs),
(451,662,o),
(535,536,o),
(564,404,cs),
(591,288,o),
(559,81,o),
(470,52,cs)
);
},
{
closed = 1;
nodes = (
(482,13,cs),
(613,62,o),
(686,246,o),
(646,420,cs),
(610,580,o),
(494,686,o),
(353,700,cs),
(318,703,o),
(323,700,o),
(125,701,c),
(76,705,ls),
(50,707,o),
(65,682,o),
(70,679,cs),
(97,659,o),
(125,658,o),
(125,610,cs),
(125,544,l),
(125,170,ls),
(125,52,o),
(95,54,o),
(64,34,cs),
(56,30,o),
(44,-7,o),
(73,-6,cs),
(170,-1,l),
(394,-1,ls),
(410,-1,o),
(465,7,o)
);
}
);
width = 695;
}
);
unicode = 68;
},
{
glyphname = E;
lastChange = "2022-04-02 17:13:08 +0000";
layers = (
{
layerId = m01;
shapes = (
{
closed = 1;
nodes = (
(423,661,o),
(446,660,o),
(461,655,cs),
(474,650,o),
(480,643,o),
(486,638,cs),
(494,634,o),
(527,593,o),
(529,590,cs),
(536,582,o),
(542,573,o),
(548,578,cs),
(551,581,o),
(551,605,o),
(548,619,cs),
(545,633,o),
(527,679,o),
(517,690,cs),
(505,703,o),
(480,704,o),
(466,703,cs),
(429,700,l),
(125,701,l),
(76,705,ls),
(50,707,o),
(65,682,o),
(70,679,cs),
(97,659,o),
(125,658,o),
(125,610,cs),
(125,544,l),
(125,170,ls),
(125,52,o),
(95,54,o),
(64,34,cs),
(56,30,o),
(44,-7,o),
(73,-6,cs),
(170,-1,l),
(394,-1,ls),
(395,-1,o),
(452,0,o),
(511,-4,cs),
(525,-5,o),
(546,-4,o),
(560,10,cs),
(568,18,o),
(587,101,o),
(588,116,cs),
(589,126,o),
(591,137,o),
(587,140,cs),
(582,146,o),
(570,142,o),
(567,137,cs),
(560,127,o),
(551,110,o),
(542,98,cs),
(529,81,o),
(512,74,o),
(502,68,cs),
(484,58,o),
(436,41,o),
(394,42,cs),
(279,44,ls),
(261,44,o),
(235,49,o),
(220,56,cs),
(204,64,o),
(206,106,o),
(206,126,cs),
(206,152,o),
(205,198,o),
(205,223,cs),
(205,267,o),
(203,324,o),
(229,342,cs),
(244,352,o),
(249,356,o),
(279,357,cs),
(307,358,o),
(332,361,o),
(363,359,cs),
(401,358,o),
(423,361,o),
(438,357,cs),
(455,354,o),
(470,351,o),
(482,337,cs),
(492,325,o),
(495,319,o),
(499,309,cs),
(503,302,o),
(506,299,o),
(511,304,cs),
(515,309,o),
(514,321,o),
(514,322,cs),
(514,334,o),
(514,348,o),
(514,364,cs),
(514,386,o),
(514,431,o),
(503,425,cs),
(493,420,o),
(489,413,o),
(474,405,cs),
(468,402,o),
(456,401,o),
(427,401,cs),
(394,401,o),
(375,401,o),
(363,401,cs),
(331,400,o),
(307,401,o),
(279,403,cs),
(260,405,o),
(247,405,o),
(229,413,cs),
(204,429,o),
(207,449,o),
(205,506,cs),
(204,533,o),
(204,537,o),
(204,577,cs),
(204,588,o),
(207,606,o),
(212,616,cs),
(216,626,o),
(216,630,o),
(227,638,cs),
(236,645,o),
(253,658,o),
(384,660,cs)
);
}
);
width = 616;
},
{
associatedMasterId = m01;
layerId = "C11B8435-8848-4E13-B4BA-EB07B9C25E23";
name = "Apr 2, 22, 07:08";
shapes = (
{
closed = 1;
nodes = (
(589,65,o),
(662,266,o),
(599,456,cs),
(537,644,o),
(365,751,o),
(189,693,cs),
(11,635,o),
(-62,434,o),
(0,246,cs),
(61,56,o),
(235,-50,o),
(413,8,cs)
);
},
{
closed = 1;
nodes = (
(247,-10,o),
(127,109,o),
(76,265,cs),
(27,417,o),
(65,615,o),
(211,662,cs),
(354,709,o),
(471,587,o),
(521,434,cs),
(572,280,o),
(535,85,o),
(392,37,cs)
);
}
);
width = 600;
}
);
unicode = 69;
},
{
glyphname = F;
lastChange = "2022-04-02 17:13:22 +0000";
layers = (
{
layerId = m01;
shapes = (
{
closed = 1;
nodes = (
(268,-7,o),
(257,33,o),
(249,36,cs),
(237,41,o),
(228,45,o),
(213,56,cs),
(199,67,o),
(200,106,o),
(200,126,cs),
(200,152,o),
(199,198,o),
(199,223,cs),
(199,267,o),
(197,324,o),
(222,342,cs),
(236,352,o),
(241,356,o),
(270,357,cs),
(297,358,o),
(321,361,o),
(351,359,cs),
(387,358,o),
(409,361,o),
(423,357,cs),
(439,354,o),
(454,351,o),
(465,337,cs),
(475,325,o),
(478,319,o),
(482,309,cs),
(486,302,o),
(488,299,o),
(493,304,cs),
(497,309,o),
(496,321,o),
(496,322,cs),
(496,334,o),
(496,348,o),
(496,364,cs),
(496,386,o),
(496,431,o),
(486,425,cs),
(476,420,o),
(472,413,o),
(458,405,cs),
(452,402,o),
(440,401,o),
(412,401,cs),
(381,401,o),
(362,401,o),
(351,401,cs),
(320,400,o),
(297,401,o),
(270,403,cs),
(252,405,o),
(239,405,o),
(222,413,cs),
(198,429,o),
(201,449,o),
(199,506,cs),
(198,533,o),
(198,537,o),
(198,577,cs),
(198,588,o),
(201,606,o),
(206,616,cs),
(210,626,o),
(210,630,o),
(220,638,cs),
(229,645,o),
(245,658,o),
(371,660,cs),
(409,661,o),
(431,660,o),
(445,655,cs),
(458,650,o),
(463,643,o),
(469,638,cs),
(477,634,o),
(509,593,o),
(511,590,cs),
(517,582,o),
(523,573,o),
(529,578,cs),
(532,581,o),
(532,605,o),
(529,619,cs),
(526,633,o),
(509,679,o),
(499,690,cs),
(487,703,o),
(463,704,o),
(450,703,cs),
(414,700,l),
(122,701,l),
(75,705,ls),
(50,707,o),
(64,682,o),
(69,679,cs),
(95,659,o),
(122,658,o),
(122,610,cs),
(122,544,l),
(122,170,ls),
(122,52,o),
(93,54,o),
(63,34,cs),
(56,30,o),
(46,-9,o),
(72,-6,cs),
(117,0,ls),
(156,5,o),
(219,1,o),
(240,-6,c)
);
}
);
width = 558;
}
);
unicode = 70;
},
{
glyphname = G;
lastChange = "2022-04-03 00:34:03 +0000";
layers = (
{
layerId = m01;
shapes = (
{
closed = 1;
nodes = (
(612,630,l),
(535,712,o),
(420,733,o),
(303,707,cs),
(115,665,o),
(21,468,o),
(66,270,cs),
(110,70,o),
(285,-33,o),
(464,-13,cs),
(510,-8,o),
(558,18,o),
(570,20,cs),
(591,24,o),
(596,18,o),
(600,16,cs),
(614,10,o),
(633,-21,o),
(633,15,cs),
(633,73,ls),
(633,97,o),
(628,150,o),
(626,190,cs),
(624,201,o),
(622,223,o),
(621,234,cs),
(618,284,o),
(635,286,o),
(663,310,cs),
(668,314,o),
(677,348,o),
(652,343,cs),
(602,332,l),
(457,313,l),
(410,310,ls),
(384,308,o),
(403,278,o),
(409,276,cs),
(437,259,o),
(525,270,o),
(530,222,cs),
(538,143,ls),
(545,69,o),
(523,46,o),
(503,35,cs),
(481,22,o),
(460,19,o),
(445,18,cs),
(292,7,o),
(182,117,o),
(145,282,cs),
(110,441,o),
(169,640,o),
(322,673,cs),
(414,694,o),
(498,669,o),
(552,597,c),
(556,591,ls),
(565,578,o),
(642,570,o),
(615,624,cs)
);
}
);
width = 720;
}
);
unicode = 71;
},
{
glyphname = H;
lastChange = "2022-04-03 12:32:42 +0000";
layers = (
{
layerId = m01;
shapes = (
{
closed = 1;
nodes = (
(410,359,o),
(386,361,o),
(358,361,cs),
(328,361,o),
(297,358,o),
(270,357,cs),
(241,356,o),
(236,352,o),
(222,342,cs),
(197,324,o),
(199,267,o),
(199,223,cs),
(199,198,o),
(200,152,o),
(200,126,cs),
(200,106,o),
(199,67,o),
(213,56,cs),
(228,45,o),
(229,41,o),
(241,36,cs),
(249,33,o),
(260,-7,o),
(232,-6,c),
(211,1,o),
(156,5,o),
(117,0,cs),
(72,-6,ls),
(46,-9,o),
(56,30,o),
(63,34,cs),
(93,54,o),
(122,52,o),
(122,170,cs),
(122,544,l),
(122,610,ls),
(122,658,o),
(95,659,o),
(69,679,cs),
(64,682,o),
(50,707,o),
(75,705,cs),
(122,701,l),
(168,700,l),
(227,705,ls),
(252,707,o),
(244,686,o),
(233,679,cs),
(189,651,o),
(198,628,o),
(198,610,cs),
(198,570,o),
(198,533,o),
(199,506,cs),
(201,449,o),
(198,429,o),
(222,413,cs),
(239,405,o),
(252,405,o),
(270,403,cs),
(297,401,o),
(327,398,o),
(358,399,cs),
(369,399,o),
(378,398,o),
(411,401,cs),
(421,402,o),
(449,405,o),
(466,413,cs),
(490,429,o),
(487,449,o),
(489,506,cs),
(490,533,o),
(490,570,o),
(490,610,cs),
(490,628,o),
(499,651,o),
(455,679,cs),
(444,686,o),
(436,707,o),
(461,705,cs),
(520,700,l),
(566,701,l),
(613,705,ls),
(638,707,o),
(624,682,o),
(619,679,cs),
(593,659,o),
(566,658,o),
(566,610,cs),
(566,544,l),
(566,170,ls),
(566,52,o),
(595,54,o),
(625,34,cs),
(632,30,o),
(642,-9,o),
(616,-6,cs),
(571,0,ls),
(532,5,o),
(477,1,o),
(456,-6,c),
(428,-7,o),
(439,33,o),
(447,36,cs),
(459,41,o),
(460,45,o),
(475,56,cs),
(489,67,o),
(488,106,o),
(488,126,cs),
(488,152,o),
(489,198,o),
(489,223,cs),
(489,267,o),
(491,324,o),
(466,342,cs),
(452,352,o),
(443,354,o),
(424,357,cs)
);
}
);
width = 688;
}
);
unicode = 72;
},
{
glyphname = I;
lastChange = "2022-04-02 17:13:42 +0000";
layers = (
{
layerId = m01;
shapes = (
{
closed = 1;
nodes = (
(221,659,o),
(197,659,o),
(199,610,cs),
(199,599,o),
(198,588,o),
(198,577,cs),
(198,537,o),
(198,533,o),
(199,506,cs),
(201,449,o),
(199,267,o),
(199,223,cs),
(199,198,o),
(200,152,o),
(200,126,cs),
(200,106,o),
(199,67,o),
(213,56,cs),
(228,45,o),
(237,41,o),
(249,36,cs),
(257,33,o),
(268,-7,o),
(240,-6,c),
(219,1,o),
(156,5,o),
(117,0,cs),
(72,-6,ls),
(46,-9,o),
(56,30,o),
(63,34,cs),
(93,54,o),
(122,52,o),
(122,170,cs),
(122,544,l),
(122,610,ls),
(122,658,o),
(95,659,o),
(69,679,cs),
(64,682,o),
(50,707,o),
(75,705,cs),
(122,701,l),
(194,701,l),
(246,705,ls),
(271,707,o),
(257,682,o),
(252,679,cs)
);
}
);
width = 315;
}
);
unicode = 73;
},
{
glyphname = J;
lastChange = "2022-04-03 00:51:37 +0000";
layers = (
{
layerId = m01;
shapes = (
{
closed = 1;
nodes = (
(255,170,l),
(255,544,l),
(255,610,ls),
(255,658,o),
(228,659,o),
(202,679,cs),
(197,682,o),
(183,707,o),
(208,705,cs),
(255,701,l),
(327,701,l),
(379,705,ls),
(404,707,o),
(390,682,o),
(385,679,cs),
(354,659,o),
(330,659,o),
(332,610,cs),
(332,599,o),
(331,588,o),
(331,577,cs),
(331,537,o),
(331,533,o),
(332,506,cs),
(334,449,o),
(332,267,o),
(332,223,cs),
(332,198,o),
(333,152,o),
(333,126,cs),
(333,116,o),
(329,-96,o),
(323,-112,cs),
(304,-161,o),
(246,-199,o),
(102,-199,cs),
(69,-199,o),
(38,-149,o),
(24,-121,cs),
(15,-103,o),
(1,-76,o),
(0,-66,cs),
(-1,-55,o),
(12,-63,o),
(23,-66,c),
(27,-67,o),
(60,-78,o),
(87,-107,cs),
(156,-182,o),
(257,-166,o),
(256,-48,cs)
);
}
);
width = 448;
}
);
unicode = 74;
},
{
glyphname = K;
lastChange = "2022-04-03 15:59:10 +0000";
layers = (
{
layerId = m01;
shapes = (
{
closed = 1;
nodes = (
(200,480,o),
(200,483,o),
(199,506,cs),
(198,533,o),
(198,570,o),
(198,610,cs),
(198,628,o),
(189,651,o),
(233,679,cs),
(244,686,o),
(252,707,o),
(227,705,cs),
(168,700,l),
(122,701,l),
(75,705,ls),
(50,707,o),
(64,682,o),
(69,679,cs),
(95,659,o),
(122,658,o),
(122,610,cs),
(122,544,l),
(122,170,ls),
(122,52,o),
(93,54,o),
(63,34,cs),
(56,30,o),
(46,-9,o),
(72,-6,cs),
(117,0,ls),
(156,5,o),
(211,1,o),
(232,-6,c),
(260,-7,o),
(249,33,o),
(241,36,cs),
(229,41,o),
(228,45,o),
(213,56,cs),
(199,67,o),
(200,106,o),
(200,126,cs),
(200,152,o),
(199,198,o),
(199,223,cs),
(199,244,o),
(200,289,o),
(200,352,cs),
(200,371,o),
(231,356,o),
(236,352,cs),
(258,337,o),
(360,247,o),
(386,223,cs),
(472,143,ls),
(474,141,o),
(574,51,o),
(553,36,cs),
(539,26,o),
(534,26,o),
(531,18,cs),
(529,12,o),
(524,-7,o),
(543,-7,cs),
(555,-7,o),
(595,7,o),
(644,0,cs),
(689,-6,ls),
(728,-11,o),
(720,29,o),
(702,33,cs),
(651,44,o),
(672,36,o),
(642,67,cs),
(499,216,l),
(324,364,ls),
(299,385,o),
(296,385,o),
(306,398,cs),
(345,448,l),
(469,623,ls),
(507,676,o),
(497,656,o),
(540,680,cs),
(545,684,o),
(561,709,o),
(534,706,cs),
(481,701,l),
(431,700,l),
(383,706,ls),
(355,710,o),
(364,688,o),
(377,680,cs),
(426,654,o),
(439,665,o),
(432,636,cs),
(419,602,o),
(283,403,o),
(262,387,cs),
(235,367,o),
(224,378,o),
(213,384,cs),
(204,388,o),
(200,404,o),
(200,424,cs)
);
}
);
width = 717;
},
{
associatedMasterId = m01;
layerId = "4598492B-6C40-4E8D-9123-95EFC8CF8968";
name = "Apr 3, 22, 11:33";
shapes = (
{
closed = 1;
nodes = (
(117,1,ls),
(156,6,o),
(219,2,o),
(240,-5,c),
(268,-6,o),
(257,34,o),
(249,37,cs),
(237,42,o),
(228,46,o),
(213,57,cs),
(199,68,o),
(200,107,o),
(200,127,cs),
(200,153,o),
(199,219,o),
(199,244,cs),
(199,280,o),
(201,313,o),
(223,329,cs),
(227,331,o),
(236,338,o),
(253,340,cs),
(266,342,o),
(319,335,o),
(368,282,cs),
(400,248,o),
(426,142,o),
(454,78,cs),
(475,27,o),
(556,-8,o),
(580,-8,cs),
(601,-8,l),
(656,19,l),
(683,42,l),
(707,82,ls),
(720,104,o),
(694,111,o),
(684,107,cs),
(646,92,o),
(594,10,o),
(560,59,cs),
(549,75,o),
(538,91,o),
(531,114,cs),
(501,210,o),
(467,306,o),
(424,335,cs),
(393,356,o),
(386,351,o),
(378,356,cs),
(374,358,o),
(371,362,o),
(382,367,cs),
(472,399,o),
(528,515,o),
(493,599,cs),
(460,672,o),
(404,706,o),
(305,703,cs),
(241,701,l),
(119,701,l),
(70,705,ls),
(44,707,o),
(59,682,o),
(64,679,cs),
(91,659,o),
(119,658,o),
(119,610,cs),
(119,544,l),
(122,171,ls),
(123,53,o),
(93,55,o),
(63,35,cs),
(56,31,o),
(46,-8,o),
(72,-5,cs)
);
},
{
closed = 0;
nodes = (
(560,59,l)
);
},
{
closed = 1;
nodes = (
(200,401,o),
(201,449,o),
(199,506,cs),
(198,533,o),
(198,537,o),
(198,577,cs),
(198,588,o),
(201,606,o),
(206,616,cs),
(210,626,o),
(210,630,o),
(221,638,cs),
(233,647,o),
(250,657,o),
(298,666,c),
(375,673,o),
(412,647,o),
(437,585,cs),
(461,530,o),
(424,414,o),
(379,395,cs),
(292,359,o),
(257,372,o),
(224,389,cs)
);
}
);
visible = 1;
width = 766;
},
{
associatedMasterId = m01;
layerId = "948E9A9A-8EE7-49BD-8040-663D38F94918";
name = "Apr 3, 22, 11:38";
shapes = (
{
closed = 1;
nodes = (
(171,458,o),
(169,263,o),
(169,223,cs),
(169,198,o),
(170,152,o),
(170,126,cs),
(170,106,o),
(169,67,o),
(183,56,cs),
(198,45,o),
(199,41,o),
(211,36,cs),
(219,33,o),
(230,-7,o),
(202,-6,c),
(181,1,o),
(126,5,o),
(87,0,cs),
(42,-6,ls),
(16,-9,o),
(26,30,o),
(33,34,cs),
(63,54,o),
(92,52,o),
(92,170,cs),
(92,544,l),
(92,610,ls),
(92,658,o),
(65,659,o),
(39,679,cs),
(34,682,o),
(20,707,o),
(45,705,cs),
(92,701,l),
(138,700,l),
(197,705,ls),
(222,707,o),
(214,686,o),
(203,679,cs),
(159,651,o),
(168,628,o),
(168,610,cs),
(168,570,o),
(168,533,o),
(169,506,cs)
);
},
{
closed = 1;
nodes = (
(-16,492,o),
(-16,416,o),
(-20,419,cs),
(-34,429,o),
(-43,431,o),
(-62,434,cs),
(-76,436,o),
(-100,438,o),
(-128,438,cs),
(-158,438,o),
(-189,435,o),
(-216,434,cs),
(-245,433,o),
(-250,429,o),
(-264,419,cs),
(-266,417,o),
(-268,416,o),
(-270,414,c),
(-274,498,l),
(-271,495,o),
(-268,493,o),
(-264,490,cs),
(-247,482,o),
(-234,482,o),
(-216,480,cs),
(-189,478,o),
(-159,475,o),
(-128,476,cs),
(-117,476,o),
(-108,475,o),
(-75,478,cs),
(-65,479,o),
(-37,482,o),
(-20,490,cs)
);
},
{
closed = 1;
nodes = (
(536,360,l),
(536,170,ls),
(536,52,o),
(565,54,o),
(595,34,cs),
(602,30,o),
(612,-9,o),
(586,-6,cs),
(541,0,ls),
(502,5,o),
(447,1,o),
(426,-6,c),
(398,-7,o),
(409,33,o),
(417,36,cs),
(429,41,o),
(430,45,o),
(445,56,cs),
(459,67,o),
(458,106,o),
(458,126,cs),
(458,152,o),
(459,198,o),
(459,223,cs),
(459,241,o),
(459,299,o),
(458,359,c)
);
},
{
closed = 0;
nodes = (
(262,368,ls),
(321,440,l),
(446,616,ls),
(483,669,o),
(488,668,o),
(510,680,cs),
(515,684,o),
(531,709,o),
(504,706,cs),
(451,701,l),
(401,700,l),
(353,706,ls),
(325,710,o),
(334,688,o),
(347,680,cs),
(396,654,o),
(409,665,o),
(402,636,cs),
(389,602,o),
(249,394,o),
(235,372,cs)
);
},
{
closed = 1;
nodes = (
(632,28,o),
(726,226,o),
(680,426,cs),
(635,623,o),
(470,749,o),
(286,707,cs),
(98,665,o),
(4,468,o),
(49,270,cs),
(93,70,o),
(260,-55,o),
(447,-13,cs)
);
},
{
closed = 1;
nodes = (
(276,-16,o),
(165,117,o),
(128,282,cs),
(93,441,o),
(152,640,o),
(305,673,cs),
(455,707,o),
(562,571,o),
(598,410,cs),
(636,248,o),
(579,54,o),
(428,18,cs)
);
}
);
visible = 1;
width = 710;
}
);
unicode = 75;
},
{
glyphname = L;
lastChange = "2022-04-02 17:14:58 +0000";
layers = (
{
layerId = m01;
shapes = (
{
closed = 1;
nodes = (
(205,198,o),
(206,152,o),
(206,126,cs),
(206,106,o),
(204,64,o),
(220,56,cs),
(235,49,o),
(261,44,o),
(279,44,cs),
(394,42,ls),
(436,41,o),
(484,58,o),
(502,68,cs),
(512,74,o),
(526,78,o),
(542,98,cs),
(551,110,o),
(560,127,o),
(567,137,cs),
(570,142,o),
(582,146,o),
(587,140,cs),
(591,137,o),
(589,126,o),
(588,116,cs),
(587,101,o),
(569,18,o),
(560,10,cs),
(546,-2,o),
(524,-4,o),
(511,-4,cs),
(453,-4,o),
(395,-1,o),
(394,-1,cs),
(170,-1,l),
(73,-6,ls),
(44,-7,o),
(56,30,o),
(64,34,cs),
(95,54,o),
(125,52,o),
(125,170,cs),
(125,609,ls),
(125,657,o),
(98,658,o),
(72,678,cs),
(67,681,o),
(53,706,o),
(78,704,cs),
(125,700,l),
(197,700,l),
(249,704,ls),
(274,706,o),
(260,681,o),
(255,678,cs),
(224,658,o),
(200,658,o),
(202,609,cs),
(202,598,o),
(201,587,o),
(201,576,cs),
(201,536,o),
(205,250,o),
(205,223,cs)
);
}
);
width = 589;
}
);
unicode = 76;
},
{
glyphname = M;
lastChange = "2022-04-03 15:16:26 +0000";
layers = (
{
layerId = m01;
shapes = (
{
closed = 1;
nodes = (
(164,625,ls),
(168,653,o),
(140,654,o),
(106,675,cs),
(100,678,o),
(95,706,o),
(123,703,cs),
(164,699,l),
(220,700,l),
(254,703,ls),
(284,706,o),
(243,673,o),
(253,635,cs),
(263,595,o),
(274,563,o),
(283,538,cs),
(321,426,o),
(453,19,o),
(474,80,cs),
(665,643,ls),
(670,658,o),
(640,701,o),
(658,701,cs),
(668,701,l),
(740,706,l),
(791,714,ls),
(816,718,o),
(804,692,o),
(799,688,cs),
(769,666,o),
(746,665,o),
(751,616,cs),
(752,605,o),
(751,594,o),
(752,583,cs),
(755,543,o),
(755,539,o),
(758,512,cs),
(764,455,o),
(775,265,o),
(778,221,cs),
(780,196,o),
(784,140,o),
(786,114,cs),
(793,91,o),
(792,53,o),
(806,42,cs),
(821,31,o),
(830,27,o),
(842,22,cs),
(850,19,o),
(861,-21,o),
(833,-20,c),
(812,-13,o),
(749,-9,o),
(710,-14,cs),
(665,-20,ls),
(639,-23,o),
(649,16,o),
(656,20,cs),
(686,40,o),
(713,37,o),
(705,153,cs),
(679,545,l),
(678,563,l),
(668,531,l),
(554,165,l),
(502,29,ls),
(494,7,o),
(506,6,o),
(448,-16,cs),
(404,-33,o),
(275,304,o),
(262,341,cs),
(189,543,l),
(181,374,l),
(171,110,ls),
(167,14,o),
(216,38,o),
(246,18,cs),
(253,14,o),
(263,-25,o),
(237,-22,cs),
(192,-16,ls),
(153,-11,o),
(90,-15,o),
(69,-22,c),
(41,-23,o),
(52,17,o),
(60,20,cs),
(72,25,o),
(80,30,o),
(96,40,cs),
(113,51,o),
(112,89,o),
(116,103,cs),
(118,120,o),
(120,149,o),
(121,165,cs),
(123,192,o),
(132,311,o),
(136,346,cs),
(137,357,o),
(148,527,o),
(160,600,cs)
);
}
);
width = 906;
}
);
unicode = 77;
},
{
glyphname = N;
lastChange = "2022-04-03 15:27:54 +0000";
layers = (
{
layerId = m01;
shapes = (
{
closed = 1;
nodes = (
(675,262,l),
(672,40,ls),
(672,16,o),
(683,18,o),
(630,-18,cs),
(585,-45,o),
(327,311,o),
(305,343,cs),
(169,542,l),
(165,377,l),
(171,110,ls),
(173,14,o),
(216,38,o),
(246,18,cs),
(253,14,o),
(263,-25,o),
(237,-22,cs),
(192,-16,ls),
(153,-11,o),
(90,-15,o),
(69,-22,c),
(41,-23,o),
(52,17,o),
(60,20,cs),
(72,25,o),
(80,30,o),
(96,40,cs),
(113,51,o),
(112,89,o),
(116,103,cs),
(118,120,o),
(120,149,o),
(121,165,cs),
(123,192,o),
(121,311,o),
(122,346,cs),
(123,357,o),
(117,527,o),
(123,601,cs),
(125,626,ls),
(127,654,o),
(99,653,o),
(63,672,cs),
(57,674,o),
(50,702,o),
(78,701,cs),
(120,700,l),
(181,705,l),
(215,710,ls),
(245,714,o),
(211,659,o),
(224,622,cs),
(242,584,o),
(260,554,o),
(274,531,cs),
(334,426,o),
(619,40,o),
(619,107,cs),
(621,553,l),
(619,641,ls),
(618,691,o),
(575,663,o),
(549,683,cs),
(544,686,o),
(530,711,o),
(555,709,cs),
(602,705,l),
(674,705,l),
(726,709,ls),
(751,711,o),
(737,686,o),
(732,683,cs),
(707,667,o),
(670,683,o),
(673,614,cs),
(673,603,o),
(672,592,o),
(672,581,cs),
(672,541,o),
(673,567,o),
(673,510,cs)
);
}
);
width = 791;
},
{
associatedMasterId = m01;
layerId = "956F1FFD-41D2-46C2-AC8C-0EEC7D03DB04";
name = "Apr 3, 22, 11:22";
visible = 1;
width = 906;
}
);
unicode = 78;
},
{
glyphname = O;
lastChange = "2022-04-02 17:10:15 +0000";
layers = (
{
layerId = m01;
shapes = (
{
closed = 1;
nodes = (
(632,28,o),
(726,226,o),
(680,426,cs),
(635,623,o),
(470,749,o),
(286,707,cs),
(98,665,o),
(4,468,o),
(49,270,cs),
(93,70,o),
(260,-55,o),
(447,-13,cs)
);
},
{
closed = 1;
nodes = (
(276,-16,o),
(165,117,o),
(128,282,cs),
(93,441,o),
(152,640,o),
(305,673,cs),
(455,707,o),
(562,571,o),
(598,410,cs),
(636,248,o),
(579,54,o),
(428,18,cs)
);
}
);
width = 730;
}
);
unicode = 79;
},
{
glyphname = P;
lastChange = "2022-04-03 01:51:15 +0000";
layers = (
{
layerId = m01;
shapes = (
{
closed = 1;
nodes = (
(298,319,o),
(350,325,o),
(383,343,cs),
(473,375,o),
(529,492,o),
(494,576,cs),
(461,649,o),
(405,706,o),
(306,703,cs),
(242,701,l),
(120,701,l),
(71,705,ls),
(45,707,o),
(60,682,o),
(65,679,cs),
(92,659,o),
(120,658,o),
(120,610,cs),
(120,544,l),
(122,172,ls),
(123,54,o),
(93,56,o),
(63,36,cs),
(56,32,o),
(46,-7,o),
(72,-4,cs),
(117,2,ls),
(156,7,o),
(219,3,o),
(240,-4,c),
(268,-5,o),
(257,35,o),
(249,38,cs),
(237,43,o),
(228,47,o),
(213,58,cs),
(199,69,o),
(200,108,o),
(200,128,cs),
(200,154,o),
(199,200,o),
(199,225,cs),
(199,577,ls),
(199,588,o),
(202,606,o),
(207,616,cs),
(211,626,o),
(211,630,o),
(222,638,cs),
(234,647,o),
(251,660,o),
(299,666,cs),
(376,676,o),
(413,624,o),
(438,562,cs),
(462,508,o),
(429,411,o),
(376,374,cs),
(344,352,o),
(293,343,o),
(277,339,cs),
(273,338,o),
(260,336,o),
(256,335,cs),
(238,330,o),
(236,330,o),
(239,322,cs),
(242,315,o),
(280,317,o),
(295,319,cs)
);
}
);
width = 543;
}
);
unicode = 80;
},
{
glyphname = Q;
lastChange = "2022-04-03 12:27:00 +0000";
layers = (
{
layerId = m01;
shapes = (
{
closed = 1;
nodes = (
(586,85,o),
(672,267,o),
(630,452,cs),
(589,633,o),
(436,749,o),
(267,711,cs),
(93,671,o),
(7,490,o),
(48,308,cs),
(89,123,o),
(243,8,o),
(415,47,cs)
);
},
{
closed = 1;
nodes = (
(257,45,o),
(156,166,o),
(121,319,cs),
(89,465,o),
(143,648,o),
(284,679,cs),
(423,711,o),
(521,585,o),
(554,437,cs),
(590,287,o),
(537,109,o),
(398,75,cs)
);
},
{
closed = 1;
nodes = (
(317,-50,o),
(346,-17,o),
(368,-8,cs),
(402,1,o),
(493,104,o),
(595,-60,cs),
(609,-79,o),
(622,-90,o),
(636,-100,cs),
(680,-135,o),
(694,-46,o),
(720,-22,cs),
(727,-15,o),
(750,-14,o),
(746,-37,cs),
(740,-81,l),
(726,-109,l),
(691,-149,l),
(674,-156,ls),
(654,-163,o),
(590,-145,o),
(557,-105,cs),
(512,-56,o),
(475,-8,o),
(429,-20,cs),
(366,-37,ls)
);
},
{
closed = 0;
nodes = (
(636,-100,l)
);
}
);
width = 784;
}
);
unicode = 81;
},
{
glyphname = R;
lastChange = "2022-04-03 02:26:09 +0000";
layers = (
{
layerId = m01;
shapes = (
{
closed = 1;
nodes = (
(117,1,ls),
(156,6,o),
(219,2,o),
(240,-5,c),
(268,-6,o),
(257,34,o),
(249,37,cs),
(237,42,o),
(228,46,o),
(213,57,cs),
(199,68,o),
(200,107,o),
(200,127,cs),
(200,153,o),
(199,219,o),
(199,244,cs),
(199,280,o),
(201,313,o),
(223,329,cs),
(227,331,o),
(236,338,o),
(253,340,cs),
(266,342,o),
(319,335,o),
(368,282,cs),
(400,248,o),
(426,142,o),
(454,78,cs),
(475,27,o),
(556,-8,o),
(580,-8,cs),
(601,-8,l),
(656,19,l),
(683,42,l),
(707,82,ls),
(720,104,o),
(694,111,o),
(684,107,cs),
(646,92,o),
(594,10,o),
(560,59,cs),
(549,75,o),
(538,91,o),
(531,114,cs),
(501,210,o),
(467,306,o),
(424,335,cs),
(393,356,o),
(386,351,o),
(378,356,cs),
(374,358,o),
(371,362,o),
(382,367,cs),
(472,399,o),
(528,515,o),
(493,599,cs),
(460,672,o),
(404,706,o),
(305,703,cs),
(241,701,l),
(119,701,l),
(70,705,ls),
(44,707,o),
(59,682,o),
(64,679,cs),
(91,659,o),
(119,658,o),
(119,610,cs),
(119,544,l),
(122,171,ls),
(123,53,o),
(93,55,o),
(63,35,cs),
(56,31,o),
(46,-8,o),
(72,-5,cs)
);
},
{
closed = 0;
nodes = (
(560,59,l)
);
},
{
closed = 1;
nodes = (
(200,401,o),
(201,449,o),
(199,506,cs),
(198,533,o),
(198,537,o),
(198,577,cs),
(198,588,o),
(201,606,o),
(206,616,cs),
(210,626,o),
(210,630,o),
(221,638,cs),
(233,647,o),
(250,657,o),
(298,666,c),
(375,673,o),
(412,647,o),
(437,585,cs),
(461,530,o),
(424,414,o),
(379,395,cs),
(292,359,o),
(257,372,o),
(224,389,cs)
);
}
);
width = 711;
}
);
unicode = 82;
},
{
glyphname = S;
lastChange = "2022-04-03 00:37:00 +0000";
layers = (
{
layerId = m01;
shapes = (
{
closed = 1;
nodes = (
(196,-26,o),
(290,-19,o),
(301,-17,c),
(468,0,o),
(528,163,o),
(464,292,c),
(435,350,o),
(386,382,o),
(341,401,c),
(272,431,o),
(190,446,o),
(174,494,c),
(145,576,o),
(177,653,o),
(251,671,c),
(263,674,o),
(317,668,o),
(325,665,c),
(340,660,o),
(346,653,o),
(351,647,c),
(360,643,o),
(394,601,o),
(396,597,c),
(403,589,o),
(410,580,o),
(416,585,c),
(419,588,o),
(419,613,o),
(416,627,c),
(413,642,o),
(385,690,o),
(374,701,c),
(357,719,o),
(262,714,o),
(242,708,c),
(151,685,o),
(82,577,o),
(123,467,c),
(157,374,o),
(256,357,o),
(301,338,c),
(357,311,o),
(389,263,o),
(399,232,c),
(405,213,o),
(408,54,o),
(278,33,c),
(170,17,o),
(134,95,o),
(123,115,c),
(105,147,o),
(91,174,o),
(88,177,c),
(81,184,o),
(73,197,o),
(69,189,cs),
(66,183,o),
(66,158,o),
(66,142,cs),
(66,104,o),
(72,62,o),
(86,52,c)
);
}
);
width = 569;
},
{
associatedMasterId = m01;
layerId = "796DA635-10A0-4FDB-976D-5AB891FA425E";
name = "Apr 2, 22, 10:20";
shapes = (
{
closed = 1;
nodes = (
(567,28,o),
(661,226,o),
(615,426,cs),
(570,623,o),
(405,749,o),
(221,707,cs),
(33,665,o),
(-61,468,o),
(-16,270,cs),
(28,70,o),
(195,-55,o),
(382,-13,cs)
);
},
{
closed = 1;
nodes = (
(211,-16,o),
(100,117,o),
(63,282,cs),
(28,441,o),
(87,640,o),
(240,673,cs),
(390,707,o),
(497,571,o),
(533,410,cs),
(571,248,o),
(514,54,o),
(363,18,cs)
);
}
);
visible = 1;
width = 600;
}
);
unicode = 83;
},
{
glyphname = T;
lastChange = "2022-04-02 17:15:25 +0000";
layers = (
{
layerId = m01;
shapes = (
{
closed = 1;
nodes = (
(472,700,l),
(515,703,ls),
(528,704,o),
(552,703,o),
(564,690,cs),
(574,679,o),
(591,633,o),
(594,619,cs),
(597,605,o),
(597,581,o),
(594,578,cs),
(588,573,o),
(582,582,o),
(576,590,cs),
(574,593,o),
(542,634,o),
(534,638,cs),
(528,643,o),
(523,650,o),
(510,655,cs),
(496,660,o),
(474,661,o),
(436,660,cs),
(368,658,o),
(366,645,o),
(358,638,cs),
(348,630,o),
(348,626,o),
(344,616,cs),
(339,606,o),
(336,588,o),
(336,577,cs),
(336,537,o),
(336,533,o),
(337,506,cs),
(339,449,o),
(337,267,o),
(337,223,cs),
(337,198,o),
(338,152,o),
(338,126,cs),
(338,106,o),
(337,67,o),
(351,56,cs),
(366,45,o),
(375,41,o),
(387,36,cs),
(395,33,o),
(406,-7,o),
(378,-6,c),
(357,1,o),
(294,5,o),
(255,0,cs),
(210,-6,ls),
(184,-9,o),
(194,30,o),
(201,34,cs),
(231,54,o),
(260,52,o),
(260,170,cs),
(260,577,ls),
(260,588,o),
(257,606,o),
(252,616,cs),
(248,626,o),
(248,630,o),
(238,638,cs),
(230,645,o),
(228,658,o),
(160,660,cs),
(122,661,o),
(100,660,o),
(86,655,cs),
(73,650,o),
(68,643,o),
(62,638,cs),
(54,634,o),
(22,593,o),
(20,590,cs),
(14,582,o),
(8,573,o),
(2,578,cs),
(-1,581,o),
(-1,605,o),
(2,619,cs),
(5,633,o),
(22,679,o),
(32,690,cs),
(44,703,o),
(68,704,o),
(81,703,cs),
(124,700,l)
);
}
);
width = 596;
},
{
associatedMasterId = m01;
layerId = "3F554B71-F166-4D9A-8295-B9FE1A2A6439";
name = "Apr 2, 22, 09:08";
shapes = (
{
closed = 1;
nodes = (
(363,359,o),
(339,361,o),
(311,361,cs),
(281,361,o),
(257,358,o),
(230,357,cs),
(201,356,o),
(196,352,o),
(182,342,cs),
(157,324,o),
(159,267,o),
(159,223,cs),
(159,198,o),
(160,152,o),
(160,126,cs),
(160,106,o),
(159,67,o),
(173,56,cs),
(188,45,o),
(189,41,o),
(201,36,cs),
(209,33,o),
(220,-7,o),
(192,-6,c),
(171,1,o),
(116,5,o),
(77,0,cs),
(32,-6,ls),
(6,-9,o),
(16,30,o),
(23,34,cs),
(53,54,o),
(82,52,o),
(82,170,cs),
(82,544,l),
(82,610,ls),
(82,658,o),
(55,659,o),
(29,679,cs),
(24,682,o),
(10,707,o),
(35,705,cs),
(82,701,l),
(128,700,l),
(187,705,ls),
(212,707,o),
(204,686,o),
(193,679,cs),
(149,651,o),
(158,628,o),
(158,610,cs),
(158,570,o),
(158,533,o),
(159,506,cs),
(161,449,o),
(158,429,o),
(182,413,cs),
(199,405,o),
(212,405,o),
(230,403,cs),
(257,401,o),
(280,398,o),
(311,399,cs),
(322,399,o),
(331,398,o),
(364,401,cs),
(374,402,o),
(402,405,o),
(419,413,cs),
(443,429,o),
(440,449,o),
(442,506,cs),
(443,533,o),
(443,570,o),
(443,610,cs),
(443,628,o),
(452,651,o),
(408,679,cs),
(397,686,o),
(389,707,o),
(414,705,cs),
(473,700,l),
(519,701,l),
(566,705,ls),
(591,707,o),
(577,682,o),
(572,679,cs),
(546,659,o),
(519,658,o),
(519,610,cs),
(519,544,l),
(519,170,ls),
(519,52,o),
(548,54,o),
(578,34,cs),
(585,30,o),
(595,-9,o),
(569,-6,cs),
(524,0,ls),
(485,5,o),
(430,1,o),
(409,-6,c),
(381,-7,o),
(392,33,o),
(400,36,cs),
(412,41,o),
(413,45,o),
(428,56,cs),
(442,67,o),
(441,106,o),
(441,126,cs),
(441,152,o),
(442,198,o),
(442,223,cs),
(442,267,o),
(444,324,o),
(419,342,cs),
(405,352,o),
(396,354,o),
(377,357,cs)
);
}
);
visible = 1;
width = 600;
}
);
unicode = 84;
},
{
glyphname = U;
lastChange = "2022-04-03 13:44:08 +0000";
layers = (
{
layerId = m01;
shapes = (
{
closed = 1;
nodes = (
(204,221,o),
(209,566,o),
(207,607,cs),
(203,625,o),
(208,652,o),
(253,679,cs),
(266,686,o),
(275,707,o),
(246,705,cs),
(180,700,l),
(124,701,l),
(71,705,ls),
(43,707,o),
(59,683,o),
(64,679,cs),
(104,653,o),
(118,679,o),
(119,624,cs),
(120,550,l),
(120,243,ls),
(120,132,o),
(207,-54,o),
(431,-12,cs),
(517,5,o),
(598,85,o),
(598,170,cs),
(598,185,o),
(602,441,o),
(600,557,cs),
(599,623,ls),
(598,684,o),
(634,665,o),
(657,679,cs),
(662,683,o),
(678,707,o),
(650,705,cs),
(597,701,l),
(532,700,l),
(482,705,ls),
(454,708,o),
(463,686,o),
(476,679,cs),
(526,652,o),
(534,646,o),
(534,614,cs),
(534,566,o),
(534,166,o),
(534,147,cs),
(534,78,o),
(481,28,o),
(416,12,cs),
(311,-11,o),
(230,79,o),
(209,194,cs)
);
}
);
width = 717;
},
{
associatedMasterId = m01;
layerId = "648A3234-792C-49BD-8C0B-58852B2552AD";
name = "Apr 3, 22, 09:21";
shapes = (
{
closed = 1;
nodes = (
(318,8,o),
(218,415,o),
(183,529,cs),
(175,555,o),
(169,581,o),
(157,620,cs),
(153,638,o),
(153,652,o),
(198,679,cs),
(211,686,o),
(220,707,o),
(191,705,cs),
(125,700,l),
(69,701,l),
(16,705,ls),
(-12,707,o),
(4,683,o),
(9,679,cs),
(49,653,o),
(52,668,o),
(67,615,cs),
(87,544,l),
(156,331,ls),
(168,294,o),
(264,-45,o),
(308,-28,cs),
(367,-6,o),
(367,10,o),
(374,32,cs),
(410,153,l),
(530,537,l),
(549,600,ls),
(572,675,o),
(582,667,o),
(602,679,cs),
(607,683,o),
(623,707,o),
(595,705,cs),
(542,701,l),
(477,700,l),
(427,705,ls),
(399,708,o),
(408,686,o),
(421,679,cs),
(471,652,o),
(487,640,o),
(482,610,cs),
(474,572,o),
(465,532,o),
(459,508,c),
(335,69,ls)
);
}
);
width = 611;
}
);
unicode = 85;
},
{
glyphname = V;
lastChange = "2022-04-03 12:53:19 +0000";
layers = (
{
layerId = m01;
shapes = (
{
closed = 1;
nodes = (
(318,8,o),
(218,415,o),
(183,529,cs),
(175,555,o),
(169,581,o),
(157,620,cs),
(153,638,o),
(153,652,o),
(198,679,cs),
(211,686,o),
(220,707,o),
(191,705,cs),
(125,700,l),
(69,701,l),
(16,705,ls),
(-12,707,o),
(4,683,o),
(9,679,cs),
(49,653,o),
(52,668,o),
(67,615,cs),
(87,544,l),
(156,331,ls),
(168,294,o),
(264,-45,o),
(308,-28,cs),
(367,-6,o),
(367,10,o),
(374,32,cs),
(410,153,l),
(530,537,l),
(549,600,ls),
(572,675,o),
(582,667,o),
(602,679,cs),
(607,683,o),
(623,707,o),
(595,705,cs),
(542,701,l),
(477,700,l),
(427,705,ls),
(399,708,o),
(408,686,o),
(421,679,cs),
(471,652,o),
(487,640,o),
(482,610,cs),
(474,572,o),
(465,532,o),
(459,508,c),
(335,69,ls)
);
}
);
width = 611;
},
{
associatedMasterId = m01;
layerId = "6313E85A-7BF9-48A5-9125-664A42D331DE";
name = "Apr 3, 22, 08:33";
shapes = (
{
closed = 1;
nodes = (
(410,359,o),
(386,361,o),
(358,361,cs),
(328,361,o),
(297,358,o),
(270,357,cs),
(241,356,o),
(236,352,o),
(222,342,cs),
(197,324,o),
(199,267,o),
(199,223,cs),
(199,198,o),
(200,152,o),
(200,126,cs),
(200,106,o),
(199,67,o),
(213,56,cs),
(228,45,o),
(229,41,o),
(241,36,cs),
(249,33,o),
(260,-7,o),
(232,-6,c),
(211,1,o),
(156,5,o),
(117,0,cs),
(72,-6,ls),
(46,-9,o),
(56,30,o),
(63,34,cs),
(93,54,o),
(122,52,o),
(122,170,cs),
(122,544,l),
(122,610,ls),
(122,658,o),
(95,659,o),
(69,679,cs),
(64,682,o),
(50,707,o),
(75,705,cs),
(122,701,l),
(168,700,l),
(227,705,ls),
(252,707,o),
(244,686,o),
(233,679,cs),
(189,651,o),
(198,628,o),
(198,610,cs),
(198,570,o),
(198,533,o),
(199,506,cs),
(201,449,o),
(198,429,o),
(222,413,cs),
(239,405,o),
(252,405,o),
(270,403,cs),
(297,401,o),
(327,398,o),
(358,399,cs),
(369,399,o),
(378,398,o),
(411,401,cs),
(421,402,o),
(449,405,o),
(466,413,cs),
(490,429,o),
(487,449,o),
(489,506,cs),
(490,533,o),
(490,570,o),
(490,610,cs),
(490,628,o),
(499,651,o),
(455,679,cs),
(444,686,o),
(436,707,o),
(461,705,cs),
(520,700,l),
(566,701,l),
(613,705,ls),
(638,707,o),
(624,682,o),
(619,679,cs),
(593,659,o),
(566,658,o),
(566,610,cs),
(566,544,l),
(566,170,ls),
(566,52,o),
(595,54,o),
(625,34,cs),
(632,30,o),
(642,-9,o),
(616,-6,cs),
(571,0,ls),
(532,5,o),
(477,1,o),
(456,-6,c),
(428,-7,o),
(439,33,o),
(447,36,cs),
(459,41,o),
(460,45,o),
(475,56,cs),
(489,67,o),
(488,106,o),
(488,126,cs),
(488,152,o),
(489,198,o),
(489,223,cs),
(489,267,o),
(491,324,o),
(466,342,cs),
(452,352,o),
(443,354,o),
(424,357,cs)
);
}
);
width = 688;
}
);
unicode = 86;
},
{
glyphname = W;
lastChange = "2022-04-03 14:51:35 +0000";
layers = (
{
layerId = m01;
shapes = (
{
closed = 0;
nodes = (
(394,554,l)
);
},
{
closed = 1;
nodes = (
(422,373,o),
(431,408,o),
(442,367,cs),
(452,330,ls),
(462,293,o),
(524,-46,o),
(568,-29,cs),
(620,-7,o),
(621,9,o),
(627,31,cs),
(659,152,l),
(765,536,l),
(782,599,ls),
(802,674,o),
(812,666,o),
(829,678,cs),
(834,682,o),
(848,706,o),
(823,704,cs),
(776,700,l),
(718,699,l),
(674,704,ls),
(649,707,o),
(657,685,o),
(668,678,cs),
(713,651,o),
(727,639,o),
(723,609,cs),
(716,571,o),
(708,531,o),
(702,507,c),
(592,68,ls),
(577,7,o),
(528,414,o),
(493,528,cs),
(485,554,o),
(479,580,o),
(467,619,cs),
(463,637,o),
(463,651,o),
(508,678,cs),
(521,685,o),
(530,706,o),
(501,704,cs),
(435,699,l),
(379,700,l),
(326,704,ls),
(298,706,o),
(314,682,o),
(319,678,cs),
(359,652,o),
(362,667,o),
(377,614,cs),
(394,554,ls),
(404,518,o),
(409,513,o),
(397,473,c),
(296,69,ls),
(281,8,o),
(218,415,o),
(183,529,cs),
(175,555,o),
(169,581,o),
(157,620,cs),
(153,638,o),
(153,652,o),
(198,679,cs),
(211,686,o),
(220,707,o),
(191,705,cs),
(125,700,l),
(69,701,l),
(16,705,ls),
(-12,707,o),
(4,683,o),
(9,679,cs),
(49,653,o),
(52,668,o),
(67,615,cs),
(87,544,l),
(142,331,ls),
(152,294,o),
(228,-45,o),
(272,-28,cs),
(324,-6,o),
(325,10,o),
(331,32,cs),
(363,153,l),
(418,356,ls)
);
}
);
width = 837;
},
{
associatedMasterId = m01;
layerId = "BE67159C-D58F-4587-A450-75BE0B59BC17";
name = "Apr 3, 22, 10:51";
shapes = (
{
closed = 0;
nodes = (
(394,554,l)
);
},
{
closed = 1;
nodes = (
(423,373,o),
(431,408,o),
(442,367,cs),
(452,330,ls),
(462,293,o),
(524,-46,o),
(568,-29,cs),
(620,-7,o),
(621,9,o),
(627,31,cs),
(659,152,l),
(765,536,l),
(782,599,ls),
(802,674,o),
(812,666,o),
(829,678,cs),
(834,682,o),
(848,706,o),
(823,704,cs),
(776,700,l),
(718,699,l),
(674,704,ls),
(649,707,o),
(657,685,o),
(668,678,cs),
(713,651,o),
(727,639,o),
(723,609,cs),
(716,571,o),
(708,531,o),
(702,507,c),
(592,68,ls),
(577,7,o),
(528,414,o),
(493,528,cs),
(485,554,o),
(479,580,o),
(467,619,cs),
(463,637,o),
(463,651,o),
(508,678,cs),
(521,685,o),
(530,706,o),
(501,704,cs),
(435,699,l),
(379,700,l),
(326,704,ls),
(298,706,o),
(314,682,o),
(319,678,cs),
(359,652,o),
(362,667,o),
(377,614,cs),
(394,554,ls),
(404,518,o),
(409,513,o),
(397,473,c),
(296,69,ls),
(281,8,o),
(218,415,o),
(183,529,cs),
(175,555,o),
(169,581,o),
(157,620,cs),
(153,638,o),
(153,652,o),
(198,679,cs),
(211,686,o),
(220,707,o),
(191,705,cs),
(125,700,l),
(69,701,l),
(16,705,ls),
(-12,707,o),
(4,683,o),
(9,679,cs),
(49,653,o),
(52,668,o),
(67,615,cs),
(87,544,l),
(142,331,ls),
(152,294,o),
(228,-45,o),
(272,-28,cs),
(324,-6,o),
(325,10,o),
(331,32,cs),
(363,153,l),
(418,356,ls)
);
},
{
closed = 1;
nodes = (
(698,28,o),
(792,226,o),
(746,426,cs),
(701,623,o),
(536,749,o),
(352,707,cs),
(164,665,o),
(70,468,o),
(115,270,cs),
(159,70,o),
(326,-55,o),
(513,-13,cs)
);
},
{
closed = 1;
nodes = (
(342,-16,o),
(231,117,o),
(194,282,cs),
(159,441,o),
(218,640,o),
(371,673,cs),
(521,707,o),
(628,571,o),
(664,410,cs),
(702,248,o),
(645,54,o),
(494,18,cs)
);
}
);
width = 837;
}
);
unicode = 87;
},
{
glyphname = X;
lastChange = "2022-04-03 14:50:04 +0000";
layers = (
{
layerId = m01;
shapes = (
{
closed = 1;
nodes = (
(60,75,ls),
(22,14,o),
(30,33,o),
(10,21,cs),
(4,17,o),
(-12,-21,o),
(17,-18,cs),
(55,-13,l),
(102,-13,l),
(157,-20,ls),
(185,-23,o),
(174,8,o),
(166,12,cs),
(111,42,o),
(102,19,o),
(108,50,cs),
(124,85,o),
(139,126,o),
(155,155,cs),
(229,296,ls),
(253,341,o),
(287,269,o),
(310,230,cs),
(350,160,o),
(391,93,o),
(399,71,cs),
(415,32,o),
(424,43,o),
(375,11,cs),
(361,1,o),
(352,-27,o),
(388,-21,cs),
(447,-10,l),
(517,-14,l),
(548,-18,ls),
(556,-19,o),
(558,16,o),
(539,22,cs),
(507,34,o),
(515,36,o),
(499,61,cs),
(399,210,ls),
(332,313,o),
(278,377,o),
(289,394,cs),
(317,441,l),
(442,617,ls),
(480,669,o),
(484,669,o),
(506,681,cs),
(511,685,o),
(527,710,o),
(500,707,cs),
(447,702,l),
(397,701,l),
(349,707,ls),
(321,711,o),
(330,689,o),
(343,681,cs),
(392,655,o),
(405,666,o),
(398,637,cs),
(385,603,o),
(373,579,o),
(359,557,cs),
(272,429,ls),
(253,400,o),
(203,537,o),
(195,556,cs),
(184,580,o),
(181,595,o),
(164,629,cs),
(153,666,o),
(143,651,o),
(193,678,cs),
(207,689,o),
(217,713,o),
(181,708,cs),
(122,699,l),
(65,700,l),
(28,705,ls),
(12,707,o),
(30,673,o),
(28,674,cs),
(65,652,o),
(61,678,o),
(85,629,cs),
(128,543,l),
(176,451,l),
(217,366,ls),
(225,350,o),
(185,277,o),
(136,199,cs)
);
},
{
closed = 0;
nodes = (
(272,429,l)
);
}
);
width = 554;
}
);
unicode = 88;
},
{
glyphname = Y;
lastChange = "2022-04-03 15:01:02 +0000";
layers = (
{
layerId = m01;
shapes = (
{
closed = 1;
nodes = (
(316,305,o),
(315,339,o),
(321,350,cs),
(468,624,ls),
(499,682,o),
(516,677,o),
(539,689,cs),
(546,694,o),
(563,717,o),
(534,715,cs),
(474,710,l),
(418,709,l),
(364,715,ls),
(334,718,o),
(343,697,o),
(358,689,cs),
(413,664,o),
(428,674,o),
(420,644,cs),
(405,610,o),
(386,587,o),
(376,564,cs),
(296,384,ls),
(283,353,o),
(202,543,o),
(193,563,cs),
(180,587,o),
(177,602,o),
(159,636,cs),
(146,674,o),
(136,658,o),
(191,686,cs),
(206,697,o),
(218,722,o),
(177,716,cs),
(112,708,l),
(48,708,l),
(7,713,ls),
(-11,715,o),
(10,681,o),
(7,682,cs),
(48,659,o),
(43,686,o),
(71,636,cs),
(118,550,l),
(172,431,l),
(236,314,o),
(234,311,o),
(238,299,cs),
(247,277,o),
(230,181,o),
(230,70,cs),
(230,27,o),
(235,42,o),
(179,9,cs),
(164,-1,o),
(171,-23,o),
(189,-21,cs),
(234,-16,l),
(354,-16,l),
(389,-20,ls),
(398,-21,o),
(400,14,o),
(378,21,cs),
(342,33,o),
(338,33,o),
(334,60,cs),
(325,144,ls),
(322,169,o),
(320,236,o),
(319,250,cs),
(317,286,ls)
);
}
);
width = 550;
},
{
associatedMasterId = m01;
layerId = "DF7DA911-4560-4CA9-87D7-E85FCB84B4D5";
name = "Apr 3, 22, 10:58";
shapes = (
{
closed = 1;
nodes = (
(305,327,o),
(303,362,o),
(309,372,cs),
(442,617,ls),
(473,674,o),
(484,669,o),
(506,681,cs),
(511,685,o),
(527,710,o),
(500,707,cs),
(447,702,l),
(397,701,l),
(349,707,ls),
(321,711,o),
(330,689,o),
(343,681,cs),
(392,655,o),
(405,666,o),
(398,637,cs),
(385,603,o),
(370,580,o),
(359,557,cs),
(287,406,ls),
(272,375,o),
(203,537,o),
(195,556,cs),
(184,580,o),
(181,595,o),
(164,629,cs),
(153,666,o),
(143,651,o),
(193,678,cs),
(207,689,o),
(217,713,o),
(181,708,cs),
(122,699,l),
(65,700,l),
(28,705,ls),
(12,707,o),
(30,673,o),
(28,674,cs),
(65,652,o),
(61,678,o),
(85,629,cs),
(128,543,l),
(176,451,l),
(233,336,o),
(231,333,o),
(235,321,cs),
(243,299,o),
(228,179,o),
(228,69,cs),
(228,27,o),
(232,41,o),
(183,9,cs),
(169,-1,o),
(175,-23,o),
(191,-21,cs),
(231,-16,l),
(340,-16,l),
(371,-20,ls),
(378,-21,o),
(380,14,o),
(361,20,cs),
(329,32,o),
(324,32,o),
(321,59,cs),
(313,142,ls),
(311,167,o),
(308,233,o),
(308,247,cs),
(306,308,ls)
);
}
);
width = 600;
}
);
unicode = 89;
},
{
glyphname = Z;
lastChange = "2022-04-03 16:20:59 +0000";
layers = (
{
layerId = m01;
shapes = (
{
closed = 1;
nodes = (
(48,45,o),
(30,19,cs),
(20,3,o),
(37,-8,o),
(59,-6,cs),
(136,1,l),
(378,1,ls),
(379,1,o),
(431,2,o),
(485,-2,cs),
(498,-3,o),
(517,-2,o),
(530,12,cs),
(537,20,o),
(555,103,o),
(556,118,cs),
(557,128,o),
(559,139,o),
(555,142,cs),
(550,148,o),
(539,144,o),
(537,139,cs),
(530,129,o),
(522,112,o),
(514,100,cs),
(502,83,o),
(486,64,o),
(477,58,cs),
(459,47,o),
(424,43,o),
(378,44,cs),
(242,46,ls),
(226,46,o),
(202,51,o),
(188,58,cs),
(180,63,o),
(165,78,o),
(175,91,cs),
(246,183,o),
(327,373,o),
(484,629,cs),
(485,630,o),
(512,642,o),
(514,654,cs),
(515,664,o),
(519,669,o),
(521,681,cs),
(524,697,o),
(522,705,o),
(508,704,cs),
(352,696,ls),
(338,695,o),
(254,697,o),
(248,697,c),
(144,700,l),
(110,703,ls),
(97,704,o),
(74,703,o),
(63,690,cs),
(54,679,o),
(37,633,o),
(35,619,cs),
(32,605,o),
(32,581,o),
(35,578,cs),
(40,573,o),
(46,582,o),
(52,590,cs),
(54,593,o),
(84,634,o),
(92,638,cs),
(97,643,o),
(103,650,o),
(114,655,cs),
(128,660,o),
(149,661,o),
(185,660,cs),
(237,659,o),
(330,659,o),
(333,659,cs),
(372,659,o),
(405,664,o),
(393,641,cs),
(337,529,l),
(257,398,o),
(133,120,o),
(60,74,cs),
(29,54,o)
);
}
);
width = 584;
},
{
associatedMasterId = m01;
layerId = "06026FF8-449B-4346-A849-1320A24DDF22";
name = "Apr 3, 22, 12:20";
shapes = (
{
closed = 1;
nodes = (
(49,45,o),
(30,19,cs),
(19,3,o),
(37,-8,o),
(61,-6,cs),
(145,1,l),
(409,1,ls),
(410,1,o),
(467,2,o),
(526,-2,cs),
(540,-3,o),
(561,-2,o),
(575,12,cs),
(583,20,o),
(602,103,o),
(603,118,cs),
(604,128,o),
(606,139,o),
(602,142,cs),
(597,148,o),
(585,144,o),
(582,139,cs),
(575,129,o),
(566,112,o),
(557,100,cs),
(544,83,o),
(527,64,o),
(517,58,cs),
(497,47,o),
(459,43,o),
(409,44,cs),
(261,46,ls),
(243,46,o),
(217,51,o),
(202,58,cs),
(193,63,o),
(177,78,o),
(188,91,cs),
(265,183,o),
(354,373,o),
(525,629,cs),
(526,630,o),
(555,642,o),
(557,654,cs),
(559,664,o),
(563,669,o),
(565,681,cs),
(568,697,o),
(566,705,o),
(551,704,cs),
(381,696,ls),
(366,695,o),
(274,697,o),
(267,697,c),
(154,700,l),
(117,703,ls),
(103,704,o),
(78,703,o),
(66,690,cs),
(56,679,o),
(38,633,o),
(35,619,cs),
(32,605,o),
(32,581,o),
(35,578,cs),
(41,573,o),
(47,582,o),
(54,590,cs),
(56,593,o),
(89,634,o),
(97,638,cs),
(103,643,o),
(109,650,o),
(122,655,cs),
(137,660,o),
(160,661,o),
(199,660,cs),
(256,659,o),
(357,659,o),
(360,659,cs),
(403,659,o),
(439,664,o),
(426,641,cs),
(364,529,l),
(277,398,o),
(142,120,o),
(63,74,cs),
(29,54,o)
);
},
{
closed = 1;
nodes = (
(318,8,o),
(218,415,o),
(183,529,cs),
(175,555,o),
(169,581,o),
(157,620,cs),
(153,638,o),
(153,652,o),
(198,679,cs),
(211,686,o),
(220,707,o),
(191,705,cs),
(125,700,l),
(69,701,l),
(16,705,ls),
(-12,707,o),
(4,683,o),
(9,679,cs),
(49,653,o),
(52,668,o),
(67,615,cs),
(87,544,l),
(156,331,ls),
(168,294,o),
(264,-45,o),
(308,-28,cs),
(367,-6,o),
(367,10,o),
(374,32,cs),
(410,153,l),
(530,537,l),
(549,600,ls),
(572,675,o),
(582,667,o),
(602,679,cs),
(607,683,o),
(623,707,o),
(595,705,cs),
(542,701,l),
(477,700,l),
(427,705,ls),
(399,708,o),
(408,686,o),
(421,679,cs),
(471,652,o),
(487,640,o),
(482,610,cs),
(474,572,o),
(465,532,o),
(459,508,c),
(335,69,ls)
);
}
);
visible = 1;
width = 631;
}
);
unicode = 90;
},
{
glyphname = a;
lastChange = "2022-04-06 19:43:10 +0000";
layers = (
{
layerId = m01;
shapes = (
{
closed = 1;
nodes = (
(226,198,o),
(197,198,o),
(156,184,cs),
(111,171,o),
(34,134,o),
(28,79,cs),
(24,52,o),
(22,-15,o),
(113,-19,cs),
(140,-21,o),
(170,-19,o),
(225,11,cs),
(251,25,o),
(239,-40,o),
(266,-16,cs),
(292,7,o),
(327,-25,o),
(343,-14,cs),
(360,0,o),
(339,9,o),
(332,11,cs),
(303,22,o),
(293,8,o),
(282,55,cs),
(279,68,o),
(282,134,o),
(282,140,cs),
(282,160,o),
(280,145,o),
(281,197,cs),
(283,298,ls),
(285,400,o),
(258,417,o),
(184,400,cs),
(118,388,o),
(93,372,o),
(72,346,cs),
(31,293,o),
(103,283,o),
(117,312,cs),
(122,323,o),
(102,353,o),
(173,370,cs),
(248,387,o),
(226,280,o),
(226,222,cs)
);
},
{
closed = 1;
nodes = (
(227,49,ls),
(227,33,o),
(160,20,o),
(135,20,cs),
(122,20,o),
(79,33,o),
(84,78,cs),
(85,105,o),
(130,136,o),
(153,146,cs),
(169,155,o),
(227,179,o),
(227,157,cs)
);
}
);
width = 368;
},
{
associatedMasterId = m01;
layerId = "78EC4529-FBCB-4AB1-83D0-3902D8B9B766";
name = "Apr 4, 22, 19:28";
shapes = (
{
closed = 1;
nodes = (
(158,311,o),
(154,288,o),
(155,261,cs),
(156,249,o),
(156,157,o),
(156,132,cs),
(156,109,o),
(153,56,o),
(166,41,cs),
(177,29,o),
(184,25,o),
(196,19,cs),
(206,15,o),
(223,-18,o),
(192,-17,c),
(169,-9,o),
(133,-4,o),
(94,-10,cs),
(46,-17,ls),
(17,-21,o),
(28,13,o),
(36,18,cs),
(68,40,o),
(100,6,o),
(100,139,cs),
(100,255,l),
(100,265,ls),
(100,352,o),
(75,329,o),
(53,345,cs),
(47,348,o),
(31,362,o),
(58,374,cs),
(110,396,l),
(135,412,ls),
(174,437,o),
(151,339,o),
(160,345,cs),
(242,400,o),
(388,411,o),
(395,250,cs),
(396,238,o),
(396,157,o),
(396,132,cs),
(396,109,o),
(391,53,o),
(406,41,cs),
(421,29,o),
(431,25,o),
(443,19,cs),
(453,15,o),
(470,-18,o),
(439,-17,c),
(416,-9,o),
(393,-4,o),
(354,-10,cs),
(306,-17,ls),
(277,-21,o),
(288,13,o),
(296,18,cs),
(328,40,o),
(338,6,o),
(338,139,cs),
(338,248,l),
(338,254,ls),
(338,346,o),
(223,359,o),
(161,313,cs)
);
}
);
visible = 1;
width = 484;
}
);
unicode = 97;
},
{
glyphname = b;
lastChange = "2022-04-04 22:40:23 +0000";
layers = (
{
layerId = m01;
shapes = (
{
closed = 1;
nodes = (
(149,358,o),
(150,346,o),
(157,350,cs),
(198,372,o),
(247,380,o),
(298,370,cs),
(414,346,o),
(472,240,o),
(444,132,cs),
(417,24,o),
(314,-44,o),
(198,-22,cs),
(184,-19,o),
(159,-4,o),
(154,-1,c),
(133,10,o),
(127,10,o),
(111,0,cs),
(79,-20,ls),
(60,-32,o),
(57,-5,o),
(61,1,cs),
(76,27,o),
(87,6,o),
(88,76,cs),
(92,430,l),
(92,472,l),
(92,648,l),
(92,718,ls),
(92,796,o),
(57,769,o),
(36,783,cs),
(31,787,o),
(17,800,o),
(41,809,cs),
(112,836,l),
(131,850,ls),
(171,879,o),
(145,795,o),
(149,715,cs),
(150,704,o),
(148,693,o),
(148,682,cs),
(148,641,o),
(148,637,o),
(149,610,cs),
(150,587,o),
(150,526,o),
(150,459,c),
(149,362,ls)
);
},
{
closed = 1;
nodes = (
(148,192,ls),
(148,142,o),
(148,154,o),
(148,137,cs),
(148,130,o),
(148,78,o),
(148,67,cs),
(148,64,o),
(152,53,o),
(153,50,c),
(154,22,o),
(183,15,o),
(205,10,cs),
(292,-8,o),
(356,59,o),
(377,142,cs),
(397,222,o),
(364,322,o),
(276,339,cs),
(234,347,o),
(198,335,o),
(170,311,cs),
(161,304,o),
(148,291,o),
(148,279,c)
);
}
);
width = 468;
}
);
unicode = 98;
},
{
glyphname = c;
lastChange = "2022-04-04 22:43:00 +0000";
layers = (
{
layerId = m01;
shapes = (
{
closed = 1;
nodes = (
(290,283,o),
(353,318,o),
(315,350,cs),
(302,361,o),
(251,394,o),
(161,375,cs),
(56,354,o),
(-4,242,o),
(23,134,cs),
(51,25,o),
(156,-41,o),
(272,-21,cs),
(339,-10,o),
(367,30,o),
(388,71,cs),
(393,81,o),
(381,103,o),
(361,81,cs),
(328,45,o),
(300,23,o),
(255,14,cs),
(160,-6,o),
(97,74,o),
(81,163,cs),
(71,216,o),
(88,311,o),
(174,342,cs),
(228,361,o),
(259,323,o),
(271,309,cs)
);
}
);
width = 404;
},
{
associatedMasterId = m01;
layerId = "0BD2AACF-944F-4AAD-9FCB-B800C5E8ACA9";
name = "Apr 4, 22, 18:03";
shapes = (
{
closed = 1;
nodes = (
(384,2,o),
(441,111,o),
(413,220,cs),
(385,329,o),
(282,398,o),
(166,375,cs),
(49,352,o),
(-10,244,o),
(18,134,cs),
(46,25,o),
(151,-44,o),
(267,-21,cs)
);
},
{
closed = 1;
nodes = (
(162,-4,o),
(100,63,o),
(79,145,cs),
(59,225,o),
(93,325,o),
(179,342,cs),
(264,359,o),
(325,290,o),
(346,211,cs),
(368,129,o),
(336,31,o),
(250,14,cs)
);
}
);
visible = 1;
width = 600;
}
);
unicode = 99;
},
{
glyphname = d;
lastChange = "2022-04-04 23:29:33 +0000";
layers = (
{
layerId = m01;
shapes = (
{
closed = 1;
nodes = (
(285,-17,o),
(314,11,o),
(314,11,cs),
(340,1,o),
(340,-34,o),
(352,-16,cs),
(367,6,ls),
(379,31,o),
(418,46,o),
(434,48,c),
(455,57,o),
(433,73,o),
(426,71,cs),
(417,71,o),
(377,62,o),
(377,75,cs),
(378,88,o),
(376,146,o),
(376,154,cs),
(376,175,o),
(375,159,o),
(375,218,cs),
(375,428,l),
(375,510,o),
(375,567,o),
(375,588,cs),
(374,613,o),
(374,617,o),
(374,654,cs),
(374,665,o),
(375,675,o),
(375,685,cs),
(370,754,o),
(393,840,o),
(352,808,cs),
(329,790,l),
(270,765,ls),
(248,756,o),
(260,744,o),
(265,741,cs),
(284,729,o),
(317,753,o),
(317,681,cs),
(317,617,l),
(317,433,l),
(317,363,ls),
(317,359,o),
(315,346,o),
(309,350,cs),
(267,371,o),
(219,380,o),
(169,369,cs),
(54,346,o),
(-4,241,o),
(24,133,cs),
(51,25,o),
(153,-42,o),
(267,-20,cs)
);
},
{
closed = 1;
nodes = (
(174,-6,o),
(109,62,o),
(90,145,cs),
(71,225,o),
(104,325,o),
(189,342,cs),
(231,350,o),
(267,339,o),
(294,315,cs),
(302,306,o),
(316,291,o),
(316,281,cs),
(313,53,ls),
(313,23,o),
(280,17,o),
(258,11,cs)
);
}
);
width = 470;
},
{
associatedMasterId = m01;
layerId = "E7DD9F19-F018-42E4-BFA5-CC7466389B3F";
name = "Apr 3, 22, 12:44";
shapes = (
{
closed = 1;
nodes = (
(529,17,o),
(607,162,o),
(569,309,cs),
(531,454,o),
(394,546,o),
(239,516,cs),
(82,484,o),
(4,340,o),
(42,194,cs),
(78,48,o),
(218,-44,o),
(374,-14,cs)
);
},
{
closed = 1;
nodes = (
(231,-16,o),
(138,82,o),
(108,203,cs),
(78,320,o),
(128,466,o),
(255,491,cs),
(381,516,o),
(470,415,o),
(500,298,cs),
(532,179,o),
(485,36,o),
(358,9,cs)
);
},
{
closed = 1;
nodes = (
(516,931,o),
(521,838,cs),
(522,825,o),
(520,812,o),
(520,799,cs),
(520,752,o),
(520,747,o),
(521,716,cs),
(523,649,o),
(521,308,o),
(521,256,cs),
(521,227,o),
(522,173,o),
(522,143,cs),
(522,119,o),
(516,61,o),
(531,48,cs),
(548,35,o),
(558,31,o),
(571,25,cs),
(580,21,o),
(598,-13,o),
(566,-11,c),
(543,-3,o),
(493,1,o),
(452,-4,cs),
(402,-11,ls),
(372,-15,o),
(383,19,o),
(391,24,cs),
(425,47,o),
(457,12,o),
(457,150,cs),
(457,760,l),
(457,841,ls),
(457,932,o),
(416,901,o),
(392,917,cs),
(386,921,o),
(370,936,o),
(398,947,cs),
(472,978,l),
(500,995,ls),
(547,1025,o)
);
},
{
closed = 1;
nodes = (
(516,931,o),
(521,838,cs),
(522,825,o),
(520,812,o),
(520,799,cs),
(520,752,o),
(520,747,o),
(521,716,cs),
(523,649,o),
(521,308,o),
(521,256,cs),
(521,227,o),
(522,173,o),
(522,143,cs),
(522,119,o),
(516,61,o),
(531,48,cs),
(548,35,o),
(558,31,o),
(571,25,cs),
(580,21,o),
(598,-13,o),
(566,-11,c),
(543,-3,o),
(493,1,o),
(452,-4,cs),
(402,-11,ls),
(372,-15,o),
(383,19,o),
(391,24,cs),
(425,47,o),
(457,12,o),
(457,150,cs),
(457,760,l),
(457,841,ls),
(457,932,o),
(416,901,o),
(392,917,cs),
(386,921,o),
(370,936,o),
(398,947,cs),
(472,978,l),
(500,995,ls),
(547,1025,o)
);
}
);
width = 600;
}
);
unicode = 100;
},
{
glyphname = e;
lastChange = "2022-04-09 14:15:56 +0000";
layers = (
{
layerId = m01;
shapes = (
{
closed = 1;
nodes = (
(328,45,o),
(300,23,o),
(255,14,cs),
(182,-1,o),
(102,75,o),
(84,145,cs),
(82,151,o),
(81,154,o),
(87,157,cs),
(129,176,o),
(204,196,o),
(292,249,cs),
(315,263,o),
(328,283,o),
(322,304,cs),
(318,317,o),
(304,335,o),
(296,342,cs),
(288,349,o),
(251,394,o),
(161,375,cs),
(56,354,o),
(-4,242,o),
(23,134,cs),
(51,25,o),
(156,-41,o),
(272,-21,cs),
(339,-10,o),
(367,30,o),
(388,71,cs),
(393,81,o),
(381,103,o),
(361,81,cs)
);
},
{
closed = 1;
nodes = (
(79,259,o),
(133,334,o),
(174,342,cs),
(230,354,o),
(270,304,o),
(267,297,cs),
(247,250,o),
(78,175,o),
(78,201,cs)
);
}
);
width = 404;
},
{
associatedMasterId = m01;
layerId = "82D3EA6E-2FF8-4F69-92AE-64703D7D1047";
name = "Apr 4, 22, 17:53";
shapes = (
{
closed = 1;
nodes = (
(123,176,o),
(223,178,o),
(306,246,cs),
(336,271,o),
(350,293,o),
(338,319,cs),
(332,332,o),
(312,348,o),
(306,352,cs),
(263,376,o),
(220,386,o),
(166,375,cs),
(49,352,o),
(-10,244,o),
(18,134,cs),
(46,25,o),
(151,-44,o),
(267,-21,cs),
(319,-11,o),
(359,16,o),
(385,53,c),
(334,79,l),
(318,47,o),
(290,22,o),
(250,14,cs),
(162,-4,o),
(100,63,o),
(79,145,cs),
(77,151,o),
(76,154,o),
(82,157,cs)
);
},
{
closed = 1;
nodes = (
(74,269,o),
(109,328,o),
(179,342,cs),
(218,350,o),
(243,336,o),
(270,319,cs),
(326,283,o),
(73,176,o),
(73,201,cs)
);
},
{
closed = 1;
nodes = (
(384,2,o),
(441,111,o),
(413,220,cs),
(385,329,o),
(282,398,o),
(166,375,cs),
(49,352,o),
(-10,244,o),
(18,134,cs),
(46,25,o),
(151,-44,o),
(267,-21,cs)
);
},
{
closed = 1;
nodes = (
(162,-4,o),
(100,63,o),
(79,145,cs),
(59,225,o),
(93,325,o),
(179,342,cs),
(264,359,o),
(325,290,o),
(346,211,cs),
(368,129,o),
(336,31,o),
(250,14,cs)
);
}
);
visible = 1;
width = 600;
}
);
unicode = 101;
},
{
glyphname = f;
lastChange = "2022-04-08 12:15:31 +0000";
layers = (
{
layerId = m01;
shapes = (
{
closed = 1;
nodes = (
(383,704,o),
(335,659,o),
(340,643,cs),
(355,600,o),
(458,603,o),
(408,684,cs),
(382,723,o),
(368,747,o),
(293,752,cs),
(201,759,o),
(141,694,o),
(105,616,cs),
(94,592,o),
(84,455,o),
(85,430,cs),
(86,367,o),
(70,380,o),
(52,375,cs),
(29,369,o),
(30,342,o),
(35,338,cs),
(46,312,o),
(83,358,o),
(85,255,cs),
(86,192,l),
(86,155,ls),
(86,22,o),
(52,40,o),
(20,18,cs),
(12,13,o),
(1,-21,o),
(30,-17,cs),
(78,-10,ls),
(117,-4,o),
(204,-15,o),
(228,-19,cs),
(259,-24,o),
(242,13,o),
(232,17,cs),
(220,23,o),
(170,27,o),
(155,39,cs),
(140,51,o),
(145,112,o),
(145,135,c),
(144,149,o),
(147,239,o),
(146,251,cs),
(145,273,o),
(140,325,o),
(158,326,cs),
(296,333,ls),
(309,334,o),
(310,349,o),
(286,370,cs),
(268,388,o),
(146,347,o),
(145,402,cs),
(145,423,o),
(142,582,o),
(166,625,cs),
(190,671,o),
(217,741,o),
(302,725,cs)
);
}
);
width = 299;
}
);
unicode = 102;
},
{
glyphname = g;
lastChange = "2022-04-05 00:35:00 +0000";
layers = (
{
layerId = m01;
shapes = (
{
closed = 1;
nodes = (
(191,139,o),
(206,138,o),
(223,141,cs),
(298,154,o),
(334,216,o),
(317,279,cs),
(313,292,o),
(302,312,o),
(302,316,cs),
(302,345,o),
(322,326,o),
(349,339,cs),
(364,343,o),
(384,383,o),
(346,368,cs),
(321,359,o),
(282,345,o),
(230,365,cs),
(211,373,o),
(184,374,o),
(160,369,cs),
(85,355,o),
(47,293,o),
(65,230,cs),
(76,192,o),
(94,178,o),
(133,158,cs),
(158,145,o),
(97,140,o),
(91,119,cs),
(67,42,o),
(215,40,o),
(262,16,cs),
(288,3,o),
(318,-1,o),
(326,-41,cs),
(329,-57,o),
(359,-143,o),
(242,-160,cs),
(130,-176,o),
(71,-54,o),
(109,-41,cs),
(146,-29,o),
(199,44,o),
(99,26,cs),
(78,22,o),
(71,-4,o),
(37,-13,cs),
(4,-22,o),
(67,-48,o),
(61,-64,cs),
(45,-104,o),
(90,-222,o),
(206,-206,cs),
(291,-194,o),
(413,-127,o),
(379,-8,cs),
(367,31,o),
(318,64,o),
(277,72,cs),
(160,95,o),
(124,104,o),
(127,118,cs),
(130,132,o),
(150,139,o),
(176,139,cs)
);
},
{
closed = 1;
nodes = (
(159,158,o),
(121,195,o),
(109,239,cs),
(97,283,o),
(118,336,o),
(168,345,cs),
(220,355,o),
(256,317,o),
(268,274,cs),
(282,229,o),
(264,178,o),
(211,168,cs)
);
}
);
width = 412;
},
{
associatedMasterId = m01;
layerId = "7A171021-72BF-428D-9803-E7637A94AE65";
name = "Apr 4, 22, 20:14";
shapes = (
{
closed = 1;
nodes = (
(390,2,o),
(447,111,o),
(419,220,cs),
(391,329,o),
(288,398,o),
(172,375,cs),
(55,352,o),
(-4,244,o),
(24,134,cs),
(52,25,o),
(157,-44,o),
(273,-21,cs)
);
},
{
closed = 1;
nodes = (
(168,-4,o),
(106,63,o),
(85,145,cs),
(65,225,o),
(99,325,o),
(185,342,cs),
(270,359,o),
(331,290,o),
(352,211,cs),
(374,129,o),
(342,31,o),
(256,14,cs)
);
}
);
width = 600;
}
);
unicode = 103;
},
{
glyphname = h;
lastChange = "2022-04-04 22:42:18 +0000";
layers = (
{
layerId = m01;
shapes = (
{
closed = 1;
nodes = (
(102,703,ls),
(102,790,o),
(77,767,o),
(55,783,cs),
(49,786,o),
(33,800,o),
(60,812,cs),
(112,834,l),
(138,850,ls),
(173,871,o),
(157,799,o),
(159,785,cs),
(159,784,o),
(160,783,o),
(160,765,cs),
(160,761,o),
(159,524,o),
(159,524,c),
(161,341,l),
(243,396,o),
(390,407,o),
(397,246,cs),
(398,234,o),
(398,157,o),
(398,132,cs),
(398,109,o),
(393,53,o),
(408,41,cs),
(423,29,o),
(433,25,o),
(445,19,cs),
(455,15,o),
(472,-18,o),
(441,-17,c),
(418,-9,o),
(395,-4,o),
(356,-10,cs),
(308,-17,ls),
(279,-21,o),
(290,13,o),
(298,18,cs),
(330,40,o),
(340,6,o),
(340,139,cs),
(340,244,l),
(340,250,ls),
(340,342,o),
(225,355,o),
(163,309,cs),
(160,307,o),
(156,284,o),
(157,257,cs),
(158,245,o),
(158,157,o),
(158,132,cs),
(158,109,o),
(155,56,o),
(168,41,cs),
(179,29,o),
(186,25,o),
(198,19,cs),
(208,15,o),
(225,-18,o),
(194,-17,c),
(171,-9,o),
(135,-4,o),
(96,-10,cs),
(48,-17,ls),
(19,-21,o),
(30,13,o),
(38,18,cs),
(70,40,o),
(102,6,o),
(102,139,cs),
(102,225,l),
(102,693,l)
);
}
);
width = 482;
}
);
unicode = 104;
},
{
glyphname = i;
lastChange = "2022-04-06 19:52:36 +0000";
layers = (
{
layerId = m01;
shapes = (
{
closed = 1;
nodes = (
(98,678,o),
(75,677,o),
(38,639,cs),
(10,611,o),
(50,561,o),
(87,574,cs),
(111,581,o),
(169,591,o),
(124,645,cs)
);
},
{
closed = 1;
nodes = (
(99,192,l),
(98,255,ls),
(97,342,o),
(59,312,o),
(37,328,cs),
(31,331,o),
(15,346,o),
(42,357,cs),
(113,386,l),
(140,402,ls),
(185,429,o),
(155,341,o),
(159,251,cs),
(160,242,o),
(161,164,o),
(161,132,cs),
(161,109,o),
(157,53,o),
(172,41,cs),
(187,29,o),
(197,25,o),
(209,19,cs),
(219,15,o),
(236,-18,o),
(205,-17,c),
(182,-9,o),
(134,-4,o),
(95,-10,cs),
(47,-17,ls),
(18,-21,o),
(29,13,o),
(37,18,cs),
(69,40,o),
(99,6,o),
(99,139,cs)
);
}
);
width = 252;
}
);
unicode = 105;
},
{
glyphname = j;
lastChange = "2022-04-09 14:16:19 +0000";
layers = (
{
layerId = m01;
shapes = (
{
closed = 1;
nodes = (
(247,98,o),
(257,-107,o),
(241,-142,cs),
(222,-195,o),
(135,-225,o),
(47,-209,cs),
(19,-204,o),
(6,-174,o),
(-7,-150,cs),
(-13,-135,o),
(-26,-111,o),
(-27,-104,cs),
(-28,-95,o),
(-16,-102,o),
(-8,-104,c),
(-4,-105,o),
(22,-113,o),
(47,-138,cs),
(104,-200,o),
(188,-187,o),
(187,-89,cs),
(186,83,l),
(187,192,l),
(186,255,ls),
(185,342,o),
(147,312,o),
(125,328,cs),
(119,331,o),
(103,346,o),
(130,357,cs),
(201,386,l),
(228,402,ls),
(273,429,o),
(243,341,o),
(247,251,cs),
(248,239,o),
(246,146,o),
(246,134,cs)
);
},
{
closed = 1;
nodes = (
(186,678,o),
(163,677,o),
(126,639,cs),
(98,611,o),
(138,561,o),
(175,574,cs),
(199,581,o),
(257,591,o),
(212,645,cs)
);
}
);
width = 307;
}
);
unicode = 106;
},
{
glyphname = k;
lastChange = "2022-04-08 19:57:09 +0000";
layers = (
{
layerId = m01;
shapes = (
{
closed = 1;
nodes = (
(161,184,o),
(184,178,o),
(187,176,cs),
(203,168,o),
(247,120,o),
(260,107,cs),
(301,63,ls),
(302,62,o),
(351,13,o),
(341,5,cs),
(334,-1,o),
(332,-1,o),
(330,-5,cs),
(330,-8,o),
(327,-18,o),
(336,-18,cs),
(342,-18,o),
(397,-11,o),
(421,-13,cs),
(456,-16,ls),
(474,-18,o),
(471,3,o),
(463,5,cs),
(438,11,o),
(442,0,o),
(420,24,cs),
(349,99,l),
(262,182,ls),
(248,196,o),
(252,200,o),
(258,207,cs),
(349,323,ls),
(371,351,o),
(375,341,o),
(396,355,cs),
(398,356,o),
(405,370,o),
(393,368,cs),
(363,362,l),
(310,362,l),
(282,368,ls),
(268,371,o),
(274,358,o),
(281,355,cs),
(303,339,o),
(310,345,o),
(306,330,cs),
(300,312,o),
(224,204,o),
(214,195,cs),
(197,184,o),
(180,190,o),
(172,194,cs),
(167,196,o),
(160,227,o),
(160,238,cs),
(160,288,o),
(163,473,o),
(160,538,cs),
(159,567,o),
(159,572,o),
(159,617,cs),
(159,629,o),
(161,642,o),
(160,654,cs),
(156,744,o),
(185,832,o),
(140,805,cs),
(113,789,l),
(42,760,ls),
(15,749,o),
(31,734,o),
(37,731,cs),
(59,715,o),
(98,745,o),
(98,658,cs),
(98,580,l),
(98,136,ls),
(98,3,o),
(68,37,o),
(36,15,cs),
(28,10,o),
(17,-24,o),
(46,-20,cs),
(94,-13,ls),
(133,-7,o),
(181,-12,o),
(204,-20,c),
(235,-21,o),
(218,12,o),
(208,16,cs),
(196,22,o),
(186,26,o),
(171,38,cs),
(156,50,o),
(161,151,o),
(161,174,cs)
);
}
);
width = 469;
},
{
associatedMasterId = m01;
layerId = "2AA65BEA-74E6-4458-AF21-78ECC7982AA9";
name = "Apr 8, 22, 15:50";
shapes = (
{
closed = 1;
nodes = (
(200,480,o),
(200,483,o),
(199,506,cs),
(198,533,o),
(198,570,o),
(198,610,cs),
(198,628,o),
(189,651,o),
(233,679,cs),
(244,686,o),
(252,707,o),
(227,705,cs),
(168,700,l),
(122,701,l),
(75,705,ls),
(50,707,o),
(64,682,o),
(69,679,cs),
(95,659,o),
(122,658,o),
(122,610,cs),
(122,544,l),
(122,170,ls),
(122,52,o),
(93,54,o),
(63,34,cs),
(56,30,o),
(46,-9,o),
(72,-6,cs),
(117,0,ls),
(156,5,o),
(211,1,o),
(232,-6,c),
(260,-7,o),
(249,33,o),
(241,36,cs),
(229,41,o),
(228,45,o),
(213,56,cs),
(199,67,o),
(200,106,o),
(200,126,cs),
(200,152,o),
(199,198,o),
(199,223,cs),
(199,244,o),
(200,289,o),
(200,352,cs),
(200,371,o),
(231,356,o),
(236,352,cs),
(258,337,o),
(360,247,o),
(386,223,cs),
(472,143,ls),
(474,141,o),
(574,51,o),
(553,36,cs),
(539,26,o),
(534,26,o),
(531,18,cs),
(529,12,o),
(524,-7,o),
(543,-7,cs),
(555,-7,o),
(595,7,o),
(644,0,cs),
(689,-6,ls),
(728,-11,o),
(720,29,o),
(702,33,cs),
(651,44,o),
(672,36,o),
(642,67,cs),
(499,216,l),
(324,364,ls),
(299,385,o),
(296,385,o),
(306,398,cs),
(345,448,l),
(469,623,ls),
(507,676,o),
(497,656,o),
(540,680,cs),
(545,684,o),
(561,709,o),
(534,706,cs),
(481,701,l),
(431,700,l),
(383,706,ls),
(355,710,o),
(364,688,o),
(377,680,cs),
(426,654,o),
(439,665,o),
(432,636,cs),
(419,602,o),
(283,403,o),
(262,387,cs),
(235,367,o),
(224,378,o),
(213,384,cs),
(204,388,o),
(200,404,o),
(200,424,cs)
);
},
{
closed = 1;
nodes = (
(390,2,o),
(447,111,o),
(419,220,cs),
(391,329,o),
(288,398,o),
(172,375,cs),
(55,352,o),
(-4,244,o),
(24,134,cs),
(52,25,o),
(157,-44,o),
(273,-21,cs)
);
},
{
closed = 1;
nodes = (
(168,-4,o),
(106,63,o),
(85,145,cs),
(65,225,o),
(99,325,o),
(185,342,cs),
(270,359,o),
(331,290,o),
(352,211,cs),
(374,129,o),
(342,31,o),
(256,14,cs)
);
}
);
visible = 1;
width = 600;
}
);
unicode = 107;
},
{
glyphname = l;
lastChange = "2022-04-04 22:41:44 +0000";
layers = (
{
layerId = m01;
shapes = (
{
closed = 1;
nodes = (
(158,747,o),
(162,657,cs),
(163,645,o),
(161,632,o),
(161,620,cs),
(161,575,o),
(161,570,o),
(162,541,cs),
(165,476,o),
(162,291,o),
(162,241,cs),
(162,213,o),
(163,161,o),
(163,132,cs),
(163,109,o),
(158,53,o),
(173,41,cs),
(188,29,o),
(198,25,o),
(210,19,cs),
(220,15,o),
(237,-18,o),
(206,-17,c),
(183,-9,o),
(135,-4,o),
(96,-10,cs),
(48,-17,ls),
(19,-21,o),
(30,13,o),
(38,18,cs),
(70,40,o),
(100,6,o),
(100,139,cs),
(100,583,l),
(100,661,ls),
(100,748,o),
(61,718,o),
(39,734,cs),
(33,737,o),
(17,751,o),
(44,763,cs),
(115,792,l),
(142,808,ls),
(186,837,o)
);
}
);
width = 247;
},
{
associatedMasterId = m01;
layerId = "1F0FA8BC-615A-4A24-B439-2BB2C55B7C89";
name = "Apr 3, 22, 12:34";
shapes = (
{
closed = 1;
nodes = (
(632,28,o),
(726,226,o),
(680,426,cs),
(635,623,o),
(470,749,o),
(286,707,cs),
(98,665,o),
(4,468,o),
(49,270,cs),
(93,70,o),
(260,-55,o),
(447,-13,cs)
);
},
{
closed = 1;
nodes = (
(276,-16,o),
(165,117,o),
(128,282,cs),
(93,441,o),
(152,640,o),
(305,673,cs),
(455,707,o),
(562,571,o),
(598,410,cs),
(636,248,o),
(579,54,o),
(428,18,cs)
);
}
);
width = 600;
}
);
unicode = 108;
},
{
glyphname = m;
lastChange = "2022-04-06 19:58:52 +0000";
layers = (
{
layerId = m01;
shapes = (
{
closed = 1;
nodes = (
(377,301,o),
(383,278,o),
(384,250,cs),
(385,238,o),
(385,157,o),
(385,132,cs),
(385,109,o),
(380,53,o),
(395,41,cs),
(409,29,o),
(419,25,o),
(431,19,cs),
(440,15,o),
(457,-18,o),
(427,-17,c),
(404,-9,o),
(382,-4,o),
(344,-10,cs),
(298,-17,ls),
(269,-21,o),
(280,13,o),
(288,18,cs),
(319,40,o),
(329,6,o),
(329,139,cs),
(329,248,l),
(329,254,ls),
(329,346,o),
(217,359,o),
(157,313,cs),
(154,311,o),
(150,288,o),
(151,261,cs),
(152,249,o),
(152,157,o),
(152,132,cs),
(152,109,o),
(149,56,o),
(162,41,cs),
(172,29,o),
(179,25,o),
(191,19,cs),
(201,15,o),
(217,-18,o),
(187,-17,c),
(165,-9,o),
(130,-4,o),
(92,-10,cs),
(45,-17,ls),
(17,-21,o),
(28,13,o),
(35,18,cs),
(67,40,o),
(98,6,o),
(98,139,cs),
(98,255,l),
(98,265,ls),
(98,352,o),
(73,329,o),
(52,345,cs),
(46,348,o),
(31,362,o),
(57,374,cs),
(107,396,l),
(132,412,ls),
(170,436,o),
(147,339,o),
(156,345,cs),
(215,386,o),
(308,402,o),
(355,342,c),
(434,396,o),
(578,423,o),
(589,250,cs),
(590,238,o),
(590,157,o),
(590,132,cs),
(590,109,o),
(585,53,o),
(600,41,cs),
(614,29,o),
(624,25,o),
(636,19,cs),
(645,15,o),
(662,-18,o),
(632,-17,c),
(609,-9,o),
(587,-4,o),
(549,-10,cs),
(503,-17,ls),
(474,-21,o),
(485,13,o),
(493,18,cs),
(524,40,o),
(534,6,o),
(534,139,cs),
(534,248,l),
(534,254,ls),
(534,350,o),
(431,355,o),
(369,319,c)
);
}
);
width = 672;
}
);
unicode = 109;
},
{
glyphname = n;
lastChange = "2022-04-04 22:36:50 +0000";
layers = (
{
layerId = m01;
shapes = (
{
closed = 1;
nodes = (
(158,311,o),
(154,288,o),
(155,261,cs),
(156,249,o),
(156,157,o),
(156,132,cs),
(156,109,o),
(153,56,o),
(166,41,cs),
(177,29,o),
(184,25,o),
(196,19,cs),
(206,15,o),
(223,-18,o),
(192,-17,c),
(169,-9,o),
(133,-4,o),
(94,-10,cs),
(46,-17,ls),
(17,-21,o),
(28,13,o),
(36,18,cs),
(68,40,o),
(100,6,o),
(100,139,cs),
(100,255,l),
(100,265,ls),
(100,352,o),
(75,329,o),
(53,345,cs),
(47,348,o),
(31,362,o),
(58,374,cs),
(110,396,l),
(135,412,ls),
(174,437,o),
(151,339,o),
(160,345,cs),
(242,400,o),
(388,411,o),
(395,250,cs),
(396,238,o),
(396,157,o),
(396,132,cs),
(396,109,o),
(391,53,o),
(406,41,cs),
(421,29,o),
(431,25,o),
(443,19,cs),
(453,15,o),
(470,-18,o),
(439,-17,c),
(416,-9,o),
(393,-4,o),
(354,-10,cs),
(306,-17,ls),
(277,-21,o),
(288,13,o),
(296,18,cs),
(328,40,o),
(338,6,o),
(338,139,cs),
(338,248,l),
(338,254,ls),
(338,346,o),
(223,359,o),
(161,313,cs)
);
}
);
width = 480;
},
{
associatedMasterId = m01;
layerId = "E0937919-4384-4DF6-9DBF-0615643A1E12";
name = "Apr 4, 22, 18:09";
shapes = (
{
closed = 1;
nodes = (
(384,2,o),
(441,111,o),
(413,220,cs),
(385,329,o),
(282,398,o),
(166,375,cs),
(49,352,o),
(-10,244,o),
(18,134,cs),
(46,25,o),
(151,-44,o),
(267,-21,cs)
);
},
{
closed = 1;
nodes = (
(162,-4,o),
(100,63,o),
(79,145,cs),
(59,225,o),
(93,325,o),
(179,342,cs),
(264,359,o),
(325,290,o),
(346,211,cs),
(368,129,o),
(336,31,o),
(250,14,cs)
);
}
);
visible = 1;
width = 600;
}
);
unicode = 110;
},
{
glyphname = o;
lastChange = "2022-04-04 22:45:00 +0000";
layers = (
{
layerId = m01;
shapes = (
{
closed = 1;
nodes = (
(390,2,o),
(447,111,o),
(419,220,cs),
(391,329,o),
(288,398,o),
(172,375,cs),
(55,352,o),
(-4,244,o),
(24,134,cs),
(52,25,o),
(157,-44,o),
(273,-21,cs)
);
},
{
closed = 1;
nodes = (
(168,-4,o),
(106,63,o),
(85,145,cs),
(65,225,o),
(99,325,o),
(185,342,cs),
(270,359,o),
(331,290,o),
(352,211,cs),
(374,129,o),
(342,31,o),
(256,14,cs)
);
}
);
width = 443;
}
);
unicode = 111;
},
{
glyphname = p;
lastChange = "2022-04-15 18:49:29 +0000";
layers = (
{
layerId = m01;
shapes = (
{
closed = 1;
nodes = (
(135,25,o),
(167,13,o),
(190,8,cs),
(279,-10,o),
(349,59,o),
(369,143,cs),
(390,225,o),
(355,326,o),
(266,345,cs),
(222,352,o),
(185,341,o),
(157,315,cs),
(148,308,o),
(137,293,o),
(135,283,cs),
(133,275,o),
(133,266,o),
(133,256,cs),
(133,230,o),
(133,226,o),
(134,207,cs),
(135,190,o),
(135,127,o),
(135,48,cs)
);
},
{
closed = 1;
nodes = (
(135,-126,o),
(134,-152,o),
(134,-170,cs),
(134,-188,o),
(135,-223,o),
(135,-243,cs),
(135,-257,o),
(131,-295,o),
(141,-303,cs),
(151,-312,o),
(158,-315,o),
(165,-319,cs),
(172,-321,o),
(183,-343,o),
(163,-341,c),
(148,-336,o),
(99,-334,o),
(73,-337,cs),
(41,-341,ls),
(23,-343,o),
(29,-322,o),
(34,-319,cs),
(56,-304,o),
(77,-326,o),
(77,-239,cs),
(77,237,l),
(77,288,ls),
(77,346,o),
(51,326,o),
(34,336,cs),
(31,339,o),
(21,349,o),
(40,356,cs),
(86,372,l),
(109,383,ls),
(135,395,o),
(137,392,o),
(137,368,cs),
(137,361,o),
(137,349,o),
(144,353,cs),
(186,374,o),
(235,384,o),
(288,373,cs),
(405,350,o),
(464,242,o),
(435,132,cs),
(407,23,o),
(299,-45,o),
(182,-22,cs),
(168,-20,o),
(135,-5,o),
(135,-11,cs)
);
}
);
width = 459;
},
{
associatedMasterId = m01;
layerId = "114C4AA6-5596-4E5A-8DBD-10A3A1FD2603";
name = "Apr 4, 22, 12:18";
shapes = (
{
closed = 0;
nodes = (
(163,506,l),
(163,499,o),
(165,484,o),
(174,489,cs),
(230,518,o),
(296,530,o),
(365,516,cs),
(522,484,o),
(600,340,o),
(562,194,cs),
(526,48,o),
(386,-44,o),
(230,-14,cs),
(210,-10,o),
(176,9,o),
(169,14,c)
);
},
{
closed = 0;
nodes = (
(168,69,ls),
(170,27,o),
(213,16,o),
(246,9,cs),
(373,-16,o),
(466,82,o),
(496,203,cs),
(526,320,o),
(476,466,o),
(349,491,cs),
(287,503,o),
(234,485,o),
(193,450,cs),
(181,439,o),
(162,419,o),
(161,403,c)
);
},
{
closed = 1;
nodes = (
(137,520,o),
(141,440,cs),
(142,429,o),
(140,418,o),
(140,407,cs),
(140,367,o),
(140,363,o),
(141,336,cs),
(143,279,o),
(141,-13,o),
(141,-57,cs),
(141,-82,o),
(142,-128,o),
(142,-154,cs),
(142,-174,o),
(137,-224,o),
(150,-235,cs),
(164,-246,o),
(173,-250,o),
(184,-255,cs),
(192,-258,o),
(207,-287,o),
(180,-286,c),
(160,-279,o),
(117,-275,o),
(82,-280,cs),
(39,-286,ls),
(14,-289,o),
(23,-260,o),
(30,-256,cs),
(59,-236,o),
(86,-266,o),
(86,-148,cs),
(86,374,l),
(86,443,ls),
(86,521,o),
(51,494,o),
(31,508,cs),
(26,511,o),
(12,524,o),
(36,534,cs),
(99,560,l),
(123,575,ls),
(163,600,o)
);
},
{
closed = 1;
nodes = (
(457,-546,ls),
(494,-541,o),
(540,-545,o),
(561,-552,c),
(590,-553,o),
(574,-522,o),
(566,-522,cs),
(553,-522,o),
(544,-513,o),
(529,-501,cs),
(516,-489,o),
(521,-236,o),
(521,-215,cs),
(521,-187,o),
(520,-139,o),
(520,-112,cs),
(520,-86,o),
(521,202,o),
(521,275,cs),
(521,445,ls),
(521,450,o),
(518,458,o),
(520,464,cs),
(528,482,o),
(548,502,o),
(553,508,cs),
(560,515,o),
(560,548,o),
(536,534,c),
(521,520,o),
(484,502,o),
(450,491,cs),
(444,489,o),
(435,494,o),
(430,496,cs),
(378,520,o),
(317,529,o),
(254,516,cs),
(97,484,o),
(19,340,o),
(57,194,cs),
(93,48,o),
(233,-44,o),
(389,-14,cs),
(412,-10,o),
(447,15,o),
(451,15,cs),
(461,14,o),
(455,-155,o),
(455,-209,cs),
(455,-531,o),
(439,-513,o),
(402,-523,cs),
(395,-525,o),
(385,-556,o),
(412,-552,cs)
);
},
{
closed = 1;
nodes = (
(246,-16,o),
(153,82,o),
(123,203,cs),
(93,320,o),
(143,466,o),
(270,491,cs),
(332,503,o),
(385,485,o),
(426,450,cs),
(438,439,o),
(458,418,o),
(458,402,cs),
(451,70,ls),
(450,27,o),
(406,16,o),
(373,9,cs)
);
}
);
width = 600;
}
);
unicode = 112;
},
{
glyphname = q;
lastChange = "2022-04-15 18:49:42 +0000";
layers = (
{
layerId = m01;
shapes = (
{
closed = 1;
nodes = (
(320,-339,ls),
(358,-333,o),
(392,-338,o),
(408,-344,c),
(429,-344,o),
(418,-322,o),
(412,-322,cs),
(401,-322,o),
(395,-315,o),
(384,-306,cs),
(374,-297,o),
(378,-186,o),
(378,-170,cs),
(378,-150,o),
(377,-114,o),
(377,-94,cs),
(377,-75,o),
(378,139,o),
(378,193,cs),
(378,319,ls),
(378,322,o),
(375,328,o),
(377,333,cs),
(382,343,o),
(394,364,o),
(401,367,cs),
(409,371,o),
(395,394,o),
(370,374,cs),
(360,366,o),
(345,362,o),
(315,353,cs),
(311,352,o),
(304,355,o),
(301,357,cs),
(262,374,o),
(217,381,o),
(170,371,cs),
(54,348,o),
(-4,242,o),
(24,133,cs),
(51,25,o),
(155,-44,o),
(270,-22,cs),
(287,-19,o),
(312,0,o),
(316,0,cs),
(324,0,o),
(319,-126,o),
(319,-166,cs),
(319,-329,o),
(306,-315,o),
(280,-322,cs),
(274,-324,o),
(267,-347,o),
(287,-344,cs)
);
},
{
closed = 1;
nodes = (
(174,-8,o),
(109,60,o),
(89,143,cs),
(68,223,o),
(103,324,o),
(191,342,cs),
(234,350,o),
(270,337,o),
(299,313,cs),
(307,304,o),
(321,291,o),
(321,281,cs),
(316,50,ls),
(315,22,o),
(285,13,o),
(262,8,cs)
);
}
);
width = 447;
}
);
unicode = 113;
},
{
glyphname = r;
lastChange = "2022-04-04 22:54:04 +0000";
layers = (
{
layerId = m01;
shapes = (
{
closed = 1;
nodes = (
(278,315,o),
(288,311,o),
(291,309,cs),
(314,294,o),
(351,318,o),
(336,353,cs),
(330,367,o),
(325,370,o),
(300,376,cs),
(243,390,o),
(187,335,o),
(160,316,cs),
(151,310,o),
(174,437,o),
(135,412,cs),
(110,396,l),
(58,374,ls),
(31,362,o),
(47,348,o),
(53,345,cs),
(75,329,o),
(100,352,o),
(100,265,cs),
(100,255,l),
(100,139,ls),
(100,6,o),
(68,40,o),
(36,18,cs),
(28,13,o),
(17,-21,o),
(46,-17,cs),
(94,-10,ls),
(133,-4,o),
(169,-9,o),
(192,-17,c),
(223,-18,o),
(206,15,o),
(196,19,cs),
(184,25,o),
(177,29,o),
(166,41,cs),
(153,56,o),
(156,109,o),
(156,132,cs),
(156,157,o),
(156,246,o),
(155,258,cs),
(155,264,o),
(154,269,o),
(161,275,cs),
(180,289,o),
(227,342,o),
(265,322,cs)
);
}
);
width = 339;
},
{
associatedMasterId = m01;
layerId = "A133F0CF-BD72-4B5C-8362-BB04CE0DA2EF";
name = "Apr 4, 22, 18:49";
shapes = (
{
closed = 1;
nodes = (
(335,277,l),
(318,348,o),
(217,355,o),
(161,313,cs),
(158,311,o),
(154,288,o),
(155,261,cs),
(156,249,o),
(156,157,o),
(156,132,cs),
(156,109,o),
(153,56,o),
(166,41,cs),
(177,29,o),
(184,25,o),
(196,19,cs),
(206,15,o),
(223,-18,o),
(192,-17,c),
(169,-9,o),
(133,-4,o),
(94,-10,cs),
(46,-17,ls),
(17,-21,o),
(28,13,o),
(36,18,cs),
(68,40,o),
(100,6,o),
(100,139,cs),
(100,255,l),
(100,265,ls),
(100,352,o),
(75,329,o),
(53,345,cs),
(47,348,o),
(31,362,o),
(58,374,cs),
(110,396,l),
(135,412,ls),
(174,437,o),
(151,339,o),
(160,345,cs),
(233,394,o),
(358,408,o),
(388,295,c)
);
},
{
closed = 1;
nodes = (
(310,283,o),
(373,318,o),
(335,350,cs),
(322,361,o),
(271,394,o),
(181,375,cs),
(76,354,o),
(16,242,o),
(43,134,cs),
(71,25,o),
(176,-41,o),
(292,-21,cs),
(359,-10,o),
(387,30,o),
(408,71,cs),
(413,81,o),
(401,103,o),
(381,81,cs),
(348,45,o),
(320,23,o),
(275,14,cs),
(180,-6,o),
(117,74,o),
(101,163,cs),
(91,216,o),
(108,311,o),
(194,342,cs),
(248,361,o),
(279,323,o),
(291,309,cs)
);
}
);
visible = 1;
width = 600;
}
);
unicode = 114;
},
{
glyphname = s;
lastChange = "2022-04-04 23:10:24 +0000";
layers = (
{
layerId = m01;
shapes = (
{
closed = 1;
nodes = (
(100,-18,o),
(190,-22,o),
(201,-21,cs),
(286,-14,o),
(356,42,o),
(325,136,cs),
(313,171,o),
(268,200,o),
(227,207,cs),
(110,227,o),
(104,253,o),
(100,266,cs),
(89,313,o),
(105,345,o),
(160,350,cs),
(261,359,o),
(232,306,o),
(248,296,cs),
(254,291,o),
(280,298,o),
(284,308,cs),
(285,311,o),
(296,328,o),
(293,336,cs),
(290,344,o),
(263,359,o),
(253,365,cs),
(240,375,o),
(186,376,o),
(170,376,cs),
(139,376,o),
(48,348,o),
(40,296,cs),
(24,180,o),
(140,184,o),
(201,156,cs),
(227,144,o),
(258,114,o),
(265,98,cs),
(271,88,o),
(299,21,o),
(182,6,cs),
(120,-2,o),
(77,44,o),
(95,72,cs),
(107,92,o),
(121,125,o),
(53,114,cs),
(42,112,o),
(25,91,o),
(24,84,cs),
(18,56,o),
(34,36,o),
(45,27,cs)
);
}
);
width = 355;
}
);
unicode = 115;
},
{
glyphname = t;
lastChange = "2022-04-06 19:34:12 +0000";
layers = (
{
layerId = m01;
shapes = (
{
closed = 1;
nodes = (
(24,369,o),
(25,342,o),
(30,338,cs),
(41,312,o),
(78,358,o),
(80,255,cs),
(81,192,l),
(81,155,l),
(81,126,o),
(76,69,o),
(86,47,cs),
(105,-6,o),
(252,-35,o),
(298,43,cs),
(311,65,o),
(285,53,o),
(280,51,cs),
(202,20,o),
(139,2,o),
(140,100,c),
(141,172,o),
(140,57,o),
(140,135,cs),
(140,149,o),
(142,239,o),
(141,251,cs),
(140,273,o),
(135,325,o),
(153,326,cs),
(291,333,ls),
(304,334,o),
(305,349,o),
(281,370,cs),
(263,388,o),
(109,342,o),
(139,423,cs),
(152,458,o),
(106,492,o),
(90,445,cs),
(74,398,o),
(65,380,o),
(47,375,cs)
);
}
);
width = 329;
}
);
unicode = 116;
},
{
glyphname = u;
lastChange = "2022-04-06 20:05:47 +0000";
layers = (
{
layerId = m01;
shapes = (
{
closed = 1;
nodes = (
(172,387,o),
(153,319,o),
(153,207,cs),
(153,98,l),
(153,92,ls),
(153,0,o),
(268,16,o),
(330,62,cs),
(333,64,o),
(337,87,o),
(336,114,cs),
(335,126,o),
(335,218,o),
(335,243,cs),
(335,266,o),
(335,298,o),
(328,317,cs),
(320,338,o),
(294,331,o),
(277,329,cs),
(258,326,o),
(216,359,o),
(270,363,cs),
(349,370,o),
(392,405,o),
(387,370,cs),
(383,343,ls),
(381,332,o),
(391,270,o),
(391,236,cs),
(391,120,l),
(391,110,ls),
(391,99,o),
(392,90,o),
(392,82,cs),
(392,62,o),
(433,71,o),
(442,71,cs),
(449,73,o),
(471,57,o),
(450,48,c),
(434,46,o),
(399,29,o),
(383,6,cs),
(368,-16,ls),
(351,-41,o),
(342,15,o),
(342,25,cs),
(342,33,o),
(343,42,o),
(331,30,cs),
(249,-25,o),
(103,-65,o),
(96,96,cs),
(95,108,o),
(95,189,o),
(95,214,cs),
(95,237,o),
(102,304,o),
(84,312,cs),
(67,320,o),
(56,322,o),
(43,325,cs),
(32,326,o),
(8,354,o),
(38,361,c),
(62,358,o),
(83,364,o),
(122,374,cs)
);
}
);
width = 482;
}
);
unicode = 117;
},
{
glyphname = v;
lastChange = "2022-04-08 13:28:51 +0000";
layers = (
{
layerId = m01;
shapes = (
{
closed = 1;
nodes = (
(238,-8,o),
(165,207,o),
(138,269,cs),
(132,282,o),
(127,296,o),
(118,318,cs),
(115,328,o),
(115,336,o),
(150,350,cs),
(159,354,o),
(167,366,o),
(144,365,cs),
(96,362,l),
(53,362,l),
(12,365,ls),
(-9,367,o),
(2,353,o),
(7,350,cs),
(38,336,o),
(40,344,o),
(51,315,cs),
(66,276,l),
(117,161,ls),
(126,140,o),
(197,-39,o),
(232,-28,cs),
(257,-20,o),
(272,-14,o),
(281,7,cs),
(390,273,l),
(404,307,ls),
(421,348,o),
(429,343,o),
(445,350,cs),
(450,353,o),
(461,367,o),
(440,365,cs),
(400,362,l),
(350,362,l),
(313,365,ls),
(291,367,o),
(298,354,o),
(308,350,cs),
(345,336,o),
(359,329,o),
(355,312,cs),
(347,291,o),
(341,270,o),
(337,257,c),
(250,25,ls)
);
}
);
width = 452;
},
{
associatedMasterId = m01;
layerId = "3E5AC861-3400-4F63-9E36-1CFB96730DD4";
name = "Apr 8, 22, 09:19";
shapes = (
{
closed = 1;
nodes = (
(200,-11,o),
(136,251,o),
(113,324,cs),
(108,340,o),
(104,357,o),
(97,382,cs),
(94,394,o),
(94,403,o),
(123,420,cs),
(131,425,o),
(137,438,o),
(118,437,cs),
(76,434,l),
(40,434,l),
(6,437,ls),
(-12,438,o),
(-2,423,o),
(1,420,cs),
(27,403,o),
(29,413,o),
(39,379,cs),
(52,333,l),
(96,197,ls),
(104,173,o),
(165,-45,o),
(194,-34,cs),
(231,-20,o),
(231,-10,o),
(236,4,cs),
(259,82,l),
(336,329,l),
(348,369,ls),
(363,418,o),
(370,412,o),
(382,420,cs),
(386,423,o),
(396,438,o),
(378,437,cs),
(344,434,l),
(302,434,l),
(270,437,ls),
(252,439,o),
(258,425,o),
(266,420,cs),
(298,403,o),
(309,395,o),
(305,376,cs),
(300,351,o),
(294,326,o),
(291,310,c),
(211,28,ls)
);
},
{
closed = 1;
nodes = (
(390,2,o),
(447,111,o),
(419,220,cs),
(391,329,o),
(288,398,o),
(172,375,cs),
(55,352,o),
(-4,244,o),
(24,134,cs),
(52,25,o),
(157,-44,o),
(273,-21,cs)
);
},
{
closed = 1;
nodes = (
(168,-4,o),
(106,63,o),
(85,145,cs),
(65,225,o),
(99,325,o),
(185,342,cs),
(270,359,o),
(331,290,o),
(352,211,cs),
(374,129,o),
(342,31,o),
(256,14,cs)
);
}
);
visible = 1;
width = 600;
}
);
unicode = 118;
},
{
glyphname = w;
lastChange = "2022-04-08 13:27:51 +0000";
layers = (
{
layerId = m01;
shapes = (
{
closed = 1;
nodes = (
(297,170,o),
(301,209,o),
(315,157,cs),
(321,137,o),
(362,-44,o),
(394,-35,cs),
(432,-23,o),
(433,-14,o),
(437,-2,cs),
(460,61,l),
(538,268,l),
(550,303,ls),
(564,343,o),
(572,339,o),
(586,345,cs),
(589,348,o),
(598,360,o),
(581,359,cs),
(546,357,l),
(504,356,l),
(472,359,ls),
(453,361,o),
(459,349,o),
(467,345,cs),
(500,331,o),
(510,324,o),
(507,307,cs),
(503,287,o),
(496,266,o),
(491,253,c),
(411,35,ls),
(400,4,o),
(340,258,o),
(321,313,cs),
(318,322,o),
(318,331,o),
(351,345,cs),
(360,349,o),
(366,360,o),
(345,359,cs),
(298,356,l),
(277,357,l),
(237,359,ls),
(217,360,o),
(229,348,o),
(234,345,cs),
(261,331,o),
(265,331,o),
(276,303,cs),
(298,250,o),
(294,240,o),
(286,218,cs),
(219,34,ls),
(207,1,o),
(159,203,o),
(133,265,cs),
(127,278,o),
(124,293,o),
(115,314,cs),
(112,323,o),
(112,331,o),
(144,346,cs),
(154,349,o),
(160,361,o),
(139,360,cs),
(91,357,l),
(50,357,l),
(12,360,ls),
(-9,362,o),
(3,348,o),
(6,346,cs),
(35,331,o),
(37,341,o),
(49,311,cs),
(64,273,l),
(104,158,ls),
(111,138,o),
(166,-45,o),
(198,-36,cs),
(236,-24,o),
(237,-15,o),
(241,-4,cs),
(262,61,ls)
);
}
);
width = 591;
}
);
unicode = 119;
},
{
glyphname = x;
lastChange = "2022-04-08 20:09:16 +0000";
layers = (
{
layerId = m01;
shapes = (
{
closed = 1;
nodes = (
(45,29,ls),
(17,-5,o),
(22,5,o),
(7,-1,cs),
(3,-3,o),
(-9,-27,o),
(13,-22,cs),
(40,-16,l),
(75,-16,l),
(101,-20,ls),
(124,-24,o),
(119,-8,o),
(109,-3,cs),
(105,-1,o),
(85,-6,o),
(90,11,cs),
(101,30,o),
(109,43,o),
(120,58,cs),
(171,125,ls),
(187,147,o),
(193,131,o),
(211,110,cs),
(240,72,o),
(269,37,o),
(277,26,cs),
(289,11,o),
(289,5,o),
(272,0,cs),
(261,-3,o),
(254,-22,o),
(281,-18,cs),
(312,-13,l),
(372,-13,l),
(396,-18,ls),
(401,-19,o),
(403,1,o),
(389,4,cs),
(365,10,o),
(363,7,o),
(351,22,cs),
(287,102,ls),
(240,160,o),
(215,191,o),
(223,201,cs),
(343,341,ls),
(358,359,o),
(365,348,o),
(383,355,cs),
(386,357,o),
(394,369,o),
(373,367,cs),
(338,363,l),
(303,365,l),
(268,369,ls),
(254,371,o),
(261,353,o),
(270,351,cs),
(282,347,o),
(287,342,o),
(282,334,cs),
(272,316,o),
(268,308,o),
(258,295,cs),
(201,222,ls),
(189,207,o),
(161,283,o),
(155,293,cs),
(148,306,o),
(146,313,o),
(133,332,cs),
(117,355,o),
(130,352,o),
(136,355,cs),
(146,360,o),
(148,375,o),
(127,372,cs),
(90,367,l),
(49,368,l),
(21,370,ls),
(8,371,o),
(22,353,o),
(21,354,cs),
(52,340,o),
(45,354,o),
(63,328,cs),
(95,282,l),
(131,233,l),
(164,181,ls),
(169,173,o),
(137,139,o),
(101,96,cs)
);
}
);
width = 400;
}
);
unicode = 120;
},
{
glyphname = y;
lastChange = "2022-04-08 13:41:24 +0000";
layers = (
{
layerId = m01;
shapes = (
{
closed = 1;
nodes = (
(251,38,o),
(256,52,o),
(261,62,cs),
(374,307,ls),
(392,347,o),
(399,343,o),
(415,350,cs),
(420,353,o),
(431,367,o),
(410,365,cs),
(370,362,l),
(320,362,l),
(283,365,ls),
(261,367,o),
(268,354,o),
(278,350,cs),
(315,336,o),
(329,329,o),
(325,312,cs),
(317,291,o),
(312,270,o),
(307,257,cs),
(241,96,ls),
(232,75,o),
(165,207,o),
(138,269,cs),
(132,282,o),
(127,296,o),
(118,318,cs),
(115,328,o),
(115,336,o),
(150,350,cs),
(159,354,o),
(167,366,o),
(144,365,cs),
(96,362,l),
(53,362,l),
(12,365,ls),
(-9,367,o),
(2,353,o),
(7,350,cs),
(38,336,o),
(38,343,o),
(51,315,cs),
(96,219,ls),
(100,210,o),
(131,159,o),
(150,135,cs),
(162,119,o),
(204,60,o),
(195,34,cs),
(182,-1,o),
(135,-208,o),
(82,-198,cs),
(67,-196,o),
(56,-195,o),
(53,-194,cs),
(27,-187,o),
(-1,-221,o),
(25,-250,cs),
(34,-262,o),
(40,-262,o),
(66,-261,cs),
(124,-250,o),
(146,-196,o),
(162,-168,cs),
(166,-160,o),
(237,3,o),
(246,25,cs)
);
}
);
width = 422;
}
);
unicode = 121;
},
{
glyphname = z;
lastChange = "2022-04-08 20:15:09 +0000";
layers = (
{
layerId = m01;
shapes = (
{
closed = 1;
nodes = (
(38,7,o),
(25,-8,cs),
(18,-17,o),
(30,-23,o),
(46,-22,cs),
(101,-18,l),
(273,-18,ls),
(274,-18,o),
(311,-18,o),
(349,-20,cs),
(358,-20,o),
(372,-20,o),
(381,-12,cs),
(386,-8,o),
(399,38,o),
(399,47,cs),
(400,52,o),
(402,58,o),
(399,60,cs),
(395,63,o),
(387,61,o),
(386,58,cs),
(381,53,o),
(375,43,o),
(370,36,cs),
(361,28,o),
(350,27,o),
(343,24,cs),
(330,18,o),
(306,14,o),
(273,15,cs),
(176,17,ls),
(165,17,o),
(142,19,o),
(132,23,cs),
(126,26,o),
(132,31,o),
(145,50,cs),
(177,94,o),
(236,190,o),
(348,331,cs),
(348,331,o),
(371,345,o),
(375,359,cs),
(377,368,o),
(373,373,o),
(363,373,cs),
(254,368,ls),
(244,368,o),
(185,368,o),
(180,368,cs),
(115,368,l),
(91,370,ls),
(82,371,o),
(70,373,o),
(60,363,cs),
(53,356,o),
(42,331,o),
(41,323,cs),
(40,312,o),
(40,299,o),
(42,298,cs),
(45,295,o),
(50,301,o),
(54,305,cs),
(55,307,o),
(71,328,o),
(76,330,cs),
(80,333,o),
(119,336,o),
(144,335,cs),
(181,335,o),
(239,337,o),
(241,337,cs),
(269,337,o),
(288,337,o),
(279,325,cs),
(244,275,l),
(187,203,o),
(98,48,o),
(46,22,cs),
(24,12,o)
);
}
);
width = 424;
}
);
unicode = 122;
},
{
glyphname = f_f;
lastChange = "2022-04-08 12:39:58 +0000";
layers = (
{
layerId = m01;
shapes = (
{
closed = 1;
nodes = (
(419,707,o),
(399,729,o),
(334,733,cs),
(242,740,o),
(165,679,o),
(129,601,cs),
(118,577,o),
(84,455,o),
(85,430,cs),
(86,367,o),
(70,380,o),
(52,375,cs),
(29,369,o),
(30,342,o),
(35,338,cs),
(46,312,o),
(83,358,o),
(85,255,cs),
(86,192,l),
(86,155,ls),
(86,22,o),
(52,40,o),
(20,18,cs),
(12,13,o),
(1,-21,o),
(30,-17,cs),
(78,-10,ls),
(117,-4,o),
(204,-15,o),
(228,-19,cs),
(259,-24,o),
(242,13,o),
(232,17,cs),
(220,23,o),
(170,27,o),
(155,39,cs),
(140,51,o),
(145,112,o),
(145,135,c),
(144,149,o),
(147,239,o),
(146,251,cs),
(145,273,o),
(140,325,o),
(158,326,cs),
(334,333,ls),
(360,334,o),
(383,348,o),
(384,255,cs),
(385,192,l),
(385,155,ls),
(385,22,o),
(351,40,o),
(319,18,cs),
(311,13,o),
(300,-21,o),
(329,-17,cs),
(377,-10,ls),
(416,-4,o),
(503,-15,o),
(527,-19,cs),
(558,-24,o),
(541,13,o),
(531,17,cs),
(519,23,o),
(469,27,o),
(454,39,cs),
(439,51,o),
(444,112,o),
(444,135,c),
(443,149,o),
(446,239,o),
(445,251,cs),
(444,273,o),
(439,325,o),
(457,326,cs),
(595,333,ls),
(608,334,o),
(609,349,o),
(585,370,cs),
(567,388,o),
(445,347,o),
(444,402,cs),
(444,423,o),
(441,582,o),
(465,625,cs),
(489,671,o),
(516,741,o),
(601,725,cs),
(682,704,o),
(634,659,o),
(639,643,cs),
(654,600,o),
(757,603,o),
(707,684,cs),
(681,723,o),
(667,747,o),
(592,752,cs),
(525,757,o),
(476,724,o),
(440,677,c)
);
},
{
closed = 1;
nodes = (
(390,558,o),
(383,452,o),
(384,430,cs),
(385,367,o),
(360,371,o),
(341,370,cs),
(308,369,o),
(146,347,o),
(145,402,cs),
(145,423,o),
(157,563,o),
(181,606,cs),
(198,638,o),
(262,721,o),
(343,706,cs),
(424,685,o),
(377,639,o),
(381,624,cs),
(385,610,o),
(401,604,o),
(399,599,cs)
);
}
);
width = 598;
}
);
metricLeft = f;
metricRight = f;
},
{
glyphname = f_f_i;
lastChange = "2022-04-08 12:58:15 +0000";
layers = (
{
layerId = m01;
shapes = (
{
closed = 1;
nodes = (
(452,-8,o),
(522,-16,o),
(541,-19,cs),
(572,-24,o),
(555,13,o),
(545,17,cs),
(533,23,o),
(471,27,o),
(453,39,cs),
(437,50,o),
(443,112,o),
(443,135,c),
(442,149,o),
(445,239,o),
(444,251,cs),
(443,273,o),
(438,326,o),
(456,326,cs),
(626,330,ls),
(668,331,o),
(694,341,o),
(695,255,cs),
(696,192,l),
(696,139,ls),
(696,6,o),
(666,40,o),
(634,18,cs),
(626,13,o),
(615,-21,o),
(644,-17,cs),
(692,-10,ls),
(731,-4,o),
(779,-9,o),
(802,-17,c),
(833,-18,o),
(816,15,o),
(806,19,cs),
(794,25,o),
(784,29,o),
(769,41,cs),
(754,53,o),
(758,109,o),
(758,132,cs),
(758,164,o),
(757,242,o),
(756,251,cs),
(752,341,o),
(782,429,o),
(737,402,cs),
(710,386,l),
(635,363,ls),
(627,361,o),
(444,362,o),
(443,402,cs),
(443,423,o),
(440,582,o),
(464,625,cs),
(488,671,o),
(525,741,o),
(610,725,cs),
(691,704,o),
(651,650,o),
(649,622,cs),
(645,564,o),
(797,570,o),
(733,674,cs),
(700,713,o),
(676,747,o),
(601,752,cs),
(528,757,o),
(473,717,o),
(440,677,c),
(419,707,o),
(399,729,o),
(334,733,cs),
(242,740,o),
(165,679,o),
(129,601,cs),
(118,577,o),
(84,455,o),
(85,430,cs),
(86,367,o),
(70,380,o),
(52,375,cs),
(29,369,o),
(30,342,o),
(35,338,cs),
(46,312,o),
(83,358,o),
(85,255,cs),
(86,192,l),
(86,155,ls),
(86,22,o),
(52,40,o),
(20,18,cs),
(12,13,o),
(1,-21,o),
(30,-17,cs),
(78,-10,ls),
(117,-4,o),
(204,-15,o),
(228,-19,cs),
(259,-24,o),
(242,13,o),
(232,17,cs),
(220,23,o),
(170,27,o),
(155,39,cs),
(140,51,o),
(145,112,o),
(145,135,c),
(144,149,o),
(147,239,o),
(146,251,cs),
(145,273,o),
(140,325,o),
(158,326,cs),
(334,333,ls),
(360,334,o),
(383,348,o),
(384,255,cs),
(385,192,l),
(385,155,ls),
(385,22,o),
(351,40,o),
(319,18,cs),
(311,13,o),
(300,-21,o),
(329,-17,cs),
(377,-10,ls),
(388,-8,o),
(390,-8,o),
(406,-8,cs)
);
},
{
closed = 1;
nodes = (
(390,558,o),
(383,452,o),
(384,430,cs),
(385,367,o),
(360,371,o),
(341,370,cs),
(308,369,o),
(146,347,o),
(145,402,cs),
(145,423,o),
(157,563,o),
(181,606,cs),
(198,638,o),
(262,721,o),
(343,706,cs),
(424,685,o),
(377,639,o),
(381,624,cs),
(385,610,o),
(401,604,o),
(399,599,cs)
);
}
);
width = 849;
},
{
associatedMasterId = m01;
layerId = "931F60F0-3EAC-4331-B6E7-41BE8BC5F8B1";
name = "Apr 8, 22, 08:55";
shapes = (
{
closed = 1;
nodes = (
(383,704,o),
(335,659,o),
(340,643,cs),
(355,600,o),
(458,603,o),
(408,684,cs),
(382,723,o),
(368,747,o),
(293,752,cs),
(201,759,o),
(141,694,o),
(105,616,cs),
(94,592,o),
(84,455,o),
(85,430,cs),
(86,367,o),
(70,380,o),
(52,375,cs),
(29,369,o),
(30,342,o),
(35,338,cs),
(46,312,o),
(83,358,o),
(85,255,cs),
(86,192,l),
(86,155,ls),
(86,22,o),
(52,40,o),
(20,18,cs),
(12,13,o),
(1,-21,o),
(30,-17,cs),
(78,-10,ls),
(117,-4,o),
(204,-15,o),
(228,-19,cs),
(259,-24,o),
(242,13,o),
(232,17,cs),
(220,23,o),
(170,27,o),
(155,39,cs),
(140,51,o),
(145,112,o),
(145,135,c),
(144,149,o),
(147,239,o),
(146,251,cs),
(145,273,o),
(140,325,o),
(158,326,cs),
(296,333,ls),
(309,334,o),
(310,349,o),
(286,370,cs),
(268,388,o),
(146,347,o),
(145,402,cs),
(145,423,o),
(142,582,o),
(166,625,cs),
(190,671,o),
(217,741,o),
(302,725,cs)
);
},
{
closed = 1;
nodes = (
(457,326,ls),
(439,326,o),
(444,273,o),
(445,251,cs),
(446,239,o),
(443,149,o),
(444,135,c),
(444,112,o),
(438,50,o),
(454,39,cs),
(472,27,o),
(534,23,o),
(546,17,cs),
(556,13,o),
(573,-24,o),
(542,-19,cs),
(518,-15,o),
(416,-4,o),
(377,-10,cs),
(329,-17,ls),
(300,-21,o),
(311,13,o),
(319,18,cs),
(351,40,o),
(385,22,o),
(385,155,cs),
(385,192,l),
(384,255,ls),
(382,358,o),
(345,312,o),
(334,338,cs),
(329,342,o),
(328,369,o),
(351,375,cs),
(369,380,o),
(385,367,o),
(384,430,cs),
(383,455,o),
(393,592,o),
(404,616,cs),
(440,694,o),
(510,759,o),
(602,752,cs),
(677,747,o),
(701,713,o),
(734,674,cs),
(798,570,o),
(646,564,o),
(650,622,cs),
(652,650,o),
(692,704,o),
(611,725,cs),
(526,741,o),
(489,671,o),
(465,625,cs),
(441,582,o),
(444,423,o),
(444,402,cs),
(445,362,o),
(628,361,o),
(636,363,cs),
(711,386,l),
(738,402,ls),
(783,429,o),
(753,341,o),
(757,251,cs),
(758,242,o),
(759,164,o),
(759,132,cs),
(759,109,o),
(755,53,o),
(770,41,cs),
(785,29,o),
(795,25,o),
(807,19,cs),
(817,15,o),
(834,-18,o),
(803,-17,c),
(780,-9,o),
(732,-4,o),
(693,-10,cs),
(645,-17,ls),
(616,-21,o),
(627,13,o),
(635,18,cs),
(667,40,o),
(697,6,o),
(697,139,cs),
(697,192,l),
(696,255,ls),
(695,341,o),
(669,331,o),
(627,330,cs)
);
},
{
closed = 1;
nodes = (
(383,704,o),
(335,659,o),
(340,643,cs),
(355,600,o),
(458,603,o),
(408,684,cs),
(382,723,o),
(368,747,o),
(293,752,cs),
(201,759,o),
(141,694,o),
(105,616,cs),
(94,592,o),
(84,455,o),
(85,430,cs),
(86,367,o),
(70,380,o),
(52,375,cs),
(29,369,o),
(30,342,o),
(35,338,cs),
(46,312,o),
(83,358,o),
(85,255,cs),
(86,192,l),
(86,155,ls),
(86,22,o),
(52,40,o),
(20,18,cs),
(12,13,o),
(1,-21,o),
(30,-17,cs),
(78,-10,ls),
(117,-4,o),
(204,-15,o),
(228,-19,cs),
(259,-24,o),
(242,13,o),
(232,17,cs),
(220,23,o),
(170,27,o),
(155,39,cs),
(140,51,o),
(145,112,o),
(145,135,c),
(144,149,o),
(147,239,o),
(146,251,cs),
(145,273,o),
(140,325,o),
(158,326,cs),
(296,333,ls),
(309,334,o),
(310,349,o),
(286,370,cs),
(268,388,o),
(146,347,o),
(145,402,cs),
(145,423,o),
(142,582,o),
(166,625,cs),
(190,671,o),
(217,741,o),
(302,725,cs)
);
},
{
closed = 1;
nodes = (
(457,326,ls),
(439,326,o),
(444,273,o),
(445,251,cs),
(446,239,o),
(443,149,o),
(444,135,c),
(444,112,o),
(438,50,o),
(454,39,cs),
(472,27,o),
(534,23,o),
(546,17,cs),
(556,13,o),
(573,-24,o),
(542,-19,cs),
(518,-15,o),
(416,-4,o),
(377,-10,cs),
(329,-17,ls),
(300,-21,o),
(311,13,o),
(319,18,cs),
(351,40,o),
(385,22,o),
(385,155,cs),
(385,192,l),
(384,255,ls),
(382,358,o),
(345,312,o),
(334,338,cs),
(329,342,o),
(328,369,o),
(351,375,cs),
(369,380,o),
(385,367,o),
(384,430,cs),
(383,455,o),
(393,592,o),
(404,616,cs),
(440,694,o),
(510,759,o),
(602,752,cs),
(677,747,o),
(701,713,o),
(734,674,cs),
(798,570,o),
(646,564,o),
(650,622,cs),
(652,650,o),
(692,704,o),
(611,725,cs),
(526,741,o),
(489,671,o),
(465,625,cs),
(441,582,o),
(444,423,o),
(444,402,cs),
(445,362,o),
(628,361,o),
(636,363,cs),
(711,386,l),
(738,402,ls),
(783,429,o),
(753,341,o),
(757,251,cs),
(758,242,o),
(759,164,o),
(759,132,cs),
(759,109,o),
(755,53,o),
(770,41,cs),
(785,29,o),
(795,25,o),
(807,19,cs),
(817,15,o),
(834,-18,o),
(803,-17,c),
(780,-9,o),
(732,-4,o),
(693,-10,cs),
(645,-17,ls),
(616,-21,o),
(627,13,o),
(635,18,cs),
(667,40,o),
(697,6,o),
(697,139,cs),
(697,192,l),
(696,255,ls),
(695,341,o),
(669,331,o),
(627,330,cs)
);
}
);
visible = 1;
width = 850;
}
);
metricLeft = f;
metricRight = i;
},
{
glyphname = f_f_l;
lastChange = "2022-04-08 12:52:05 +0000";
layers = (
{
layerId = m01;
shapes = (
{
closed = 1;
nodes = (
(425,-3,o),
(530,-16,o),
(548,-19,cs),
(579,-24,o),
(562,13,o),
(552,17,cs),
(540,23,o),
(470,27,o),
(453,39,cs),
(437,50,o),
(443,112,o),
(443,135,c),
(442,149,o),
(445,239,o),
(444,251,cs),
(443,273,o),
(438,325,o),
(456,326,cs),
(594,333,ls),
(607,334,o),
(608,349,o),
(584,370,cs),
(566,388,o),
(444,347,o),
(443,402,cs),
(443,423,o),
(440,582,o),
(464,625,cs),
(481,657,o),
(511,737,o),
(644,721,cs),
(719,712,o),
(697,667,o),
(697,642,cs),
(697,583,l),
(697,139,ls),
(697,6,o),
(667,40,o),
(635,18,cs),
(627,13,o),
(616,-21,o),
(645,-17,cs),
(693,-10,ls),
(732,-4,o),
(780,-9,o),
(803,-17,c),
(834,-18,o),
(817,15,o),
(807,19,cs),
(795,25,o),
(785,29,o),
(770,41,cs),
(755,53,o),
(760,109,o),
(760,132,cs),
(760,161,o),
(759,213,o),
(759,241,cs),
(759,291,o),
(762,476,o),
(759,541,cs),
(758,570,o),
(758,575,o),
(758,620,cs),
(758,632,o),
(760,645,o),
(759,657,cs),
(755,747,o),
(784,835,o),
(739,808,cs),
(712,792,l),
(654,752,ls),
(644,745,o),
(603,751,o),
(591,752,cs),
(522,757,o),
(477,728,o),
(440,677,c),
(419,707,o),
(399,729,o),
(334,733,cs),
(242,740,o),
(165,679,o),
(129,601,cs),
(118,577,o),
(84,455,o),
(85,430,cs),
(86,367,o),
(70,380,o),
(52,375,cs),
(29,369,o),
(30,342,o),
(35,338,cs),
(46,312,o),
(83,358,o),
(85,255,cs),
(86,192,l),
(86,155,ls),
(86,22,o),
(52,40,o),
(20,18,cs),
(12,13,o),
(1,-21,o),
(30,-17,cs),
(78,-10,ls),
(117,-4,o),
(204,-15,o),
(228,-19,cs),
(259,-24,o),
(242,13,o),
(232,17,cs),
(220,23,o),
(170,27,o),
(155,39,cs),
(140,51,o),
(145,112,o),
(145,135,c),
(144,149,o),
(147,239,o),
(146,251,cs),
(145,273,o),
(140,325,o),
(158,326,cs),
(334,333,ls),
(360,334,o),
(383,348,o),
(384,255,cs),
(385,192,l),
(385,155,ls),
(385,22,o),
(351,40,o),
(319,18,cs),
(311,13,o),
(300,-21,o),
(329,-17,cs),
(377,-10,ls)
);
},
{
closed = 1;
nodes = (
(390,558,o),
(383,452,o),
(384,430,cs),
(385,367,o),
(360,371,o),
(341,370,cs),
(308,369,o),
(146,347,o),
(145,402,cs),
(145,423,o),
(157,563,o),
(181,606,cs),
(198,638,o),
(262,721,o),
(343,706,cs),
(424,685,o),
(377,639,o),
(381,624,cs),
(385,610,o),
(401,604,o),
(399,599,cs)
);
}
);
width = 844;
},
{
associatedMasterId = m01;
layerId = "CADB0502-20BA-4142-B468-DA726B67164C";
name = "Apr 8, 22, 08:44";
shapes = (
{
closed = 0;
nodes = (
(435,671,l),
(472,722,o),
(523,757,o),
(592,752,cs),
(604,751,o),
(645,745,o),
(655,752,cs),
(713,792,l),
(740,808,ls),
(785,835,o),
(756,747,o),
(760,657,cs),
(761,645,o),
(759,632,o),
(759,620,cs),
(759,575,o),
(759,570,o),
(760,541,cs),
(763,476,o),
(760,291,o),
(760,241,cs),
(760,213,o),
(761,161,o),
(761,132,cs),
(761,109,o),
(756,53,o),
(771,41,cs),
(786,29,o),
(796,25,o),
(808,19,cs),
(818,15,o),
(835,-18,o),
(804,-17,c),
(781,-9,o),
(733,-4,o),
(694,-10,cs),
(646,-17,ls),
(617,-21,o),
(628,13,o),
(636,18,cs),
(668,40,o),
(698,6,o),
(698,139,cs),
(698,583,l),
(698,642,ls),
(698,667,o),
(720,712,o),
(645,721,cs),
(512,737,o),
(482,657,o),
(465,625,cs),
(441,582,o),
(444,423,o),
(444,402,cs),
(445,347,o),
(567,388,o),
(585,370,cs),
(609,349,o),
(608,334,o),
(595,333,cs),
(457,326,ls),
(439,325,o),
(444,273,o),
(445,251,cs),
(446,239,o),
(443,149,o),
(444,135,c),
(444,112,o),
(438,50,o),
(454,39,cs),
(471,27,o),
(541,23,o),
(553,17,cs),
(563,13,o),
(580,-24,o),
(549,-19,cs),
(531,-16,o),
(468,-9,o),
(420,-8,c)
);
},
{
closed = 1;
nodes = (
(419,707,o),
(399,729,o),
(334,733,cs),
(242,740,o),
(165,679,o),
(129,601,cs),
(118,577,o),
(84,455,o),
(85,430,cs),
(86,367,o),
(70,380,o),
(52,375,cs),
(29,369,o),
(30,342,o),
(35,338,cs),
(46,312,o),
(83,358,o),
(85,255,cs),
(86,192,l),
(86,155,ls),
(86,22,o),
(52,40,o),
(20,18,cs),
(12,13,o),
(1,-21,o),
(30,-17,cs),
(78,-10,ls),
(117,-4,o),
(204,-15,o),
(228,-19,cs),
(259,-24,o),
(242,13,o),
(232,17,cs),
(220,23,o),
(170,27,o),
(155,39,cs),
(140,51,o),
(145,112,o),
(145,135,c),
(144,149,o),
(147,239,o),
(146,251,cs),
(145,273,o),
(140,325,o),
(158,326,cs),
(334,333,ls),
(360,334,o),
(383,348,o),
(384,255,cs),
(385,192,l),
(385,155,ls),
(385,22,o),
(351,40,o),
(319,18,cs),
(311,13,o),
(300,-21,o),
(329,-17,cs),
(377,-10,ls),
(416,-4,o),
(503,-15,o),
(527,-19,cs),
(558,-24,o),
(541,13,o),
(531,17,cs),
(519,23,o),
(469,27,o),
(454,39,cs),
(439,51,o),
(444,112,o),
(444,135,c),
(443,149,o),
(446,239,o),
(445,251,cs),
(444,273,o),
(439,325,o),
(457,326,cs),
(595,333,ls),
(608,334,o),
(609,349,o),
(585,370,cs),
(567,388,o),
(445,347,o),
(444,402,cs),
(444,423,o),
(441,582,o),
(465,625,cs),
(489,671,o),
(516,741,o),
(601,725,cs),
(682,704,o),
(634,659,o),
(639,643,cs),
(654,600,o),
(757,603,o),
(707,684,cs),
(681,723,o),
(667,747,o),
(592,752,cs),
(525,757,o),
(476,724,o),
(440,677,c)
);
},
{
closed = 1;
nodes = (
(390,558,o),
(383,452,o),
(384,430,cs),
(385,367,o),
(360,371,o),
(341,370,cs),
(308,369,o),
(146,347,o),
(145,402,cs),
(145,423,o),
(157,563,o),
(181,606,cs),
(198,638,o),
(262,721,o),
(343,706,cs),
(424,685,o),
(377,639,o),
(381,624,cs),
(385,610,o),
(401,604,o),
(399,599,cs)
);
}
);
visible = 1;
width = 845;
}
);
metricLeft = f;
metricRight = l;
},
{
glyphname = f_f_t;
lastChange = "2022-04-08 13:31:48 +0000";
layers = (
{
layerId = m01;
shapes = (
{
closed = 1;
nodes = (
(419,707,o),
(399,729,o),
(334,733,cs),
(242,740,o),
(165,679,o),
(129,601,cs),
(118,577,o),
(84,455,o),
(85,430,cs),
(86,367,o),
(70,380,o),
(52,375,cs),
(29,369,o),
(30,342,o),
(35,338,cs),
(46,312,o),
(83,358,o),
(85,255,cs),
(86,192,l),
(86,155,ls),
(86,22,o),
(52,40,o),
(20,18,cs),
(12,13,o),
(1,-21,o),
(30,-17,cs),
(78,-10,ls),
(117,-4,o),
(204,-15,o),
(228,-19,cs),
(259,-24,o),
(242,13,o),
(232,17,cs),
(220,23,o),
(170,27,o),
(155,39,cs),
(140,51,o),
(145,112,o),
(145,135,c),
(144,149,o),
(147,239,o),
(146,251,cs),
(145,273,o),
(140,325,o),
(158,326,cs),
(334,333,ls),
(360,334,o),
(383,348,o),
(384,255,cs),
(385,192,l),
(385,155,ls),
(385,22,o),
(351,40,o),
(319,18,cs),
(311,13,o),
(300,-21,o),
(329,-17,cs),
(377,-10,ls),
(416,-4,o),
(503,-15,o),
(527,-19,cs),
(558,-24,o),
(541,13,o),
(531,17,cs),
(519,23,o),
(469,27,o),
(454,39,cs),
(439,51,o),
(444,112,o),
(444,135,c),
(443,149,o),
(446,239,o),
(445,251,cs),
(444,273,o),
(439,325,o),
(457,326,cs),
(595,333,ls),
(608,334,o),
(609,349,o),
(585,370,cs),
(567,388,o),
(445,347,o),
(444,402,cs),
(444,423,o),
(441,582,o),
(465,625,cs),
(489,671,o),
(516,741,o),
(601,725,cs),
(682,704,o),
(634,659,o),
(639,643,cs),
(654,600,o),
(757,603,o),
(707,684,cs),
(681,723,o),
(667,747,o),
(592,752,cs),
(525,757,o),
(476,724,o),
(440,677,c)
);
},
{
closed = 1;
nodes = (
(390,558,o),
(383,452,o),
(384,430,cs),
(385,367,o),
(360,371,o),
(341,370,cs),
(308,369,o),
(146,347,o),
(145,402,cs),
(145,423,o),
(157,563,o),
(181,606,cs),
(198,638,o),
(262,721,o),
(343,706,cs),
(424,685,o),
(377,639,o),
(381,624,cs),
(385,610,o),
(401,604,o),
(399,599,cs)
);
},
{
closed = 1;
nodes = (
(624,369,o),
(625,342,o),
(630,338,cs),
(641,312,o),
(678,358,o),
(680,255,cs),
(681,192,l),
(681,155,l),
(681,106,o),
(676,49,o),
(686,27,cs),
(705,-26,o),
(852,-55,o),
(898,23,cs),
(911,45,o),
(885,33,o),
(880,31,cs),
(802,0,o),
(739,-18,o),
(740,80,c),
(741,152,o),
(740,37,o),
(740,115,cs),
(740,129,o),
(742,239,o),
(741,251,cs),
(740,273,o),
(735,325,o),
(753,326,cs),
(891,333,ls),
(904,334,o),
(905,349,o),
(881,370,cs),
(863,388,o),
(709,342,o),
(739,423,cs),
(752,458,o),
(706,492,o),
(690,445,cs),
(674,398,o),
(665,380,o),
(647,375,cs)
);
}
);
width = 929;
},
{
associatedMasterId = m01;
layerId = "21749EBD-ED23-4011-9F22-8028A3BAD74E";
name = "Apr 8, 22, 09:12";
shapes = (
{
closed = 1;
nodes = (
(383,704,o),
(335,659,o),
(340,643,cs),
(355,600,o),
(458,603,o),
(408,684,cs),
(382,723,o),
(368,747,o),
(293,752,cs),
(201,759,o),
(141,694,o),
(105,616,cs),
(94,592,o),
(84,455,o),
(85,430,cs),
(86,367,o),
(70,380,o),
(52,375,cs),
(29,369,o),
(30,342,o),
(35,338,cs),
(46,312,o),
(83,358,o),
(85,255,cs),
(86,192,l),
(86,155,ls),
(86,22,o),
(52,40,o),
(20,18,cs),
(12,13,o),
(1,-21,o),
(30,-17,cs),
(78,-10,ls),
(117,-4,o),
(204,-15,o),
(228,-19,cs),
(259,-24,o),
(242,13,o),
(232,17,cs),
(220,23,o),
(170,27,o),
(155,39,cs),
(140,51,o),
(145,112,o),
(145,135,c),
(144,149,o),
(147,239,o),
(146,251,cs),
(145,273,o),
(140,325,o),
(158,326,cs),
(296,333,ls),
(309,334,o),
(310,349,o),
(286,370,cs),
(268,388,o),
(146,347,o),
(145,402,cs),
(145,423,o),
(142,582,o),
(166,625,cs),
(190,671,o),
(217,741,o),
(302,725,cs)
);
},
{
closed = 1;
nodes = (
(653,335,o),
(676,352,o),
(678,255,cs),
(679,192,l),
(679,155,l),
(679,126,o),
(674,52,o),
(684,30,cs),
(703,-23,o),
(850,-52,o),
(896,26,cs),
(909,48,o),
(883,36,o),
(878,34,cs),
(800,3,o),
(737,-15,o),
(738,100,c),
(739,172,o),
(738,40,o),
(738,135,cs),
(738,149,o),
(740,239,o),
(739,251,cs),
(738,273,o),
(733,325,o),
(751,326,cs),
(889,333,ls),
(902,334,o),
(903,349,o),
(879,370,cs),
(861,388,o),
(707,342,o),
(737,423,cs),
(750,458,o),
(704,492,o),
(688,445,cs),
(672,398,o),
(647,372,o),
(628,370,cs),
(592,366,o),
(445,347,o),
(444,402,cs),
(444,423,o),
(441,582,o),
(465,625,cs),
(489,671,o),
(516,741,o),
(601,725,cs),
(682,704,o),
(634,659,o),
(639,643,cs),
(654,600,o),
(757,603,o),
(707,684,cs),
(681,723,o),
(667,747,o),
(592,752,cs),
(500,759,o),
(440,694,o),
(404,616,cs),
(393,592,o),
(383,455,o),
(384,430,cs),
(385,367,o),
(369,380,o),
(351,375,cs),
(328,369,o),
(329,342,o),
(334,338,cs),
(345,312,o),
(382,358,o),
(384,255,cs),
(385,192,l),
(385,155,ls),
(385,22,o),
(351,40,o),
(319,18,cs),
(311,13,o),
(300,-21,o),
(329,-17,cs),
(377,-10,ls),
(416,-4,o),
(503,-15,o),
(527,-19,cs),
(558,-24,o),
(541,13,o),
(531,17,cs),
(519,23,o),
(469,27,o),
(454,39,cs),
(439,51,o),
(444,112,o),
(444,135,c),
(443,149,o),
(446,239,o),
(445,251,cs),
(444,273,o),
(439,325,o),
(457,326,cs),
(608,333,ls)
);
},
{
closed = 1;
nodes = (
(383,704,o),
(335,659,o),
(340,643,cs),
(355,600,o),
(458,603,o),
(408,684,cs),
(382,723,o),
(368,747,o),
(293,752,cs),
(201,759,o),
(141,694,o),
(105,616,cs),
(94,592,o),
(84,455,o),
(85,430,cs),
(86,367,o),
(70,380,o),
(52,375,cs),
(29,369,o),
(30,342,o),
(35,338,cs),
(46,312,o),
(83,358,o),
(85,255,cs),
(86,192,l),
(86,155,ls),
(86,22,o),
(52,40,o),
(20,18,cs),
(12,13,o),
(1,-21,o),
(30,-17,cs),
(78,-10,ls),
(117,-4,o),
(204,-15,o),
(228,-19,cs),
(259,-24,o),
(242,13,o),
(232,17,cs),
(220,23,o),
(170,27,o),
(155,39,cs),
(140,51,o),
(145,112,o),
(145,135,c),
(144,149,o),
(147,239,o),
(146,251,cs),
(145,273,o),
(140,325,o),
(158,326,cs),
(296,333,ls),
(309,334,o),
(310,349,o),
(286,370,cs),
(268,388,o),
(146,347,o),
(145,402,cs),
(145,423,o),
(142,582,o),
(166,625,cs),
(190,671,o),
(217,741,o),
(302,725,cs)
);
},
{
closed = 1;
nodes = (
(653,335,o),
(676,352,o),
(678,255,cs),
(679,192,l),
(679,155,l),
(679,126,o),
(674,52,o),
(684,30,cs),
(703,-23,o),
(850,-52,o),
(896,26,cs),
(909,48,o),
(883,36,o),
(878,34,cs),
(800,3,o),
(737,-15,o),
(738,100,c),
(739,172,o),
(738,40,o),
(738,135,cs),
(738,149,o),
(740,239,o),
(739,251,cs),
(738,273,o),
(733,325,o),
(751,326,cs),
(889,333,ls),
(902,334,o),
(903,349,o),
(879,370,cs),
(861,388,o),
(707,342,o),
(737,423,cs),
(750,458,o),
(704,492,o),
(688,445,cs),
(672,398,o),
(647,372,o),
(628,370,cs),
(592,366,o),
(445,347,o),
(444,402,cs),
(444,423,o),
(441,582,o),
(465,625,cs),
(489,671,o),
(516,741,o),
(601,725,cs),
(682,704,o),
(634,659,o),
(639,643,cs),
(654,600,o),
(757,603,o),
(707,684,cs),
(681,723,o),
(667,747,o),
(592,752,cs),
(500,759,o),
(440,694,o),
(404,616,cs),
(393,592,o),
(383,455,o),
(384,430,cs),
(385,367,o),
(369,380,o),
(351,375,cs),
(328,369,o),
(329,342,o),
(334,338,cs),
(345,312,o),
(382,358,o),
(384,255,cs),
(385,192,l),
(385,155,ls),
(385,22,o),
(351,40,o),
(319,18,cs),
(311,13,o),
(300,-21,o),
(329,-17,cs),
(377,-10,ls),
(416,-4,o),
(503,-15,o),
(527,-19,cs),
(558,-24,o),
(541,13,o),
(531,17,cs),
(519,23,o),
(469,27,o),
(454,39,cs),
(439,51,o),
(444,112,o),
(444,135,c),
(443,149,o),
(446,239,o),
(445,251,cs),
(444,273,o),
(439,325,o),
(457,326,cs),
(608,333,ls)
);
}
);
visible = 1;
width = 927;
}
);
metricLeft = f;
metricRight = t;
},
{
glyphname = f_i;
lastChange = "2022-04-08 12:29:30 +0000";
layers = (
{
layerId = m01;
shapes = (
{
closed = 1;
nodes = (
(158,326,ls),
(140,326,o),
(145,273,o),
(146,251,cs),
(147,239,o),
(144,149,o),
(145,135,c),
(145,112,o),
(139,50,o),
(155,39,cs),
(173,27,o),
(235,23,o),
(247,17,cs),
(257,13,o),
(274,-24,o),
(243,-19,cs),
(219,-15,o),
(117,-4,o),
(78,-10,cs),
(30,-17,ls),
(1,-21,o),
(12,13,o),
(20,18,cs),
(52,40,o),
(86,22,o),
(86,155,cs),
(86,192,l),
(85,255,ls),
(83,358,o),
(46,312,o),
(35,338,cs),
(30,342,o),
(29,369,o),
(52,375,cs),
(70,380,o),
(86,367,o),
(85,430,cs),
(84,455,o),
(94,592,o),
(105,616,cs),
(141,694,o),
(211,759,o),
(303,752,cs),
(378,747,o),
(402,713,o),
(435,674,cs),
(499,570,o),
(347,564,o),
(351,622,cs),
(353,650,o),
(393,704,o),
(312,725,cs),
(227,741,o),
(190,671,o),
(166,625,cs),
(142,582,o),
(145,423,o),
(145,402,cs),
(146,362,o),
(329,361,o),
(337,363,cs),
(412,386,l),
(439,402,ls),
(484,429,o),
(454,341,o),
(458,251,cs),
(459,242,o),
(460,164,o),
(460,132,cs),
(460,109,o),
(456,53,o),
(471,41,cs),
(486,29,o),
(496,25,o),
(508,19,cs),
(518,15,o),
(535,-18,o),
(504,-17,c),
(481,-9,o),
(433,-4,o),
(394,-10,cs),
(346,-17,ls),
(317,-21,o),
(328,13,o),
(336,18,cs),
(368,40,o),
(398,6,o),
(398,139,cs),
(398,192,l),
(397,255,ls),
(396,341,o),
(370,331,o),
(328,330,cs)
);
}
);
width = 551;
}
);
metricLeft = f;
metricRight = i;
},
{
glyphname = f_j;
lastChange = "2022-04-09 14:27:49 +0000";
layers = (
{
layerId = m01;
shapes = (
{
closed = 1;
nodes = (
(489,677,o),
(412,636,o),
(421,607,cs),
(441,548,o),
(564,566,o),
(496,677,cs),
(480,702,o),
(392,745,o),
(293,752,cs),
(201,759,o),
(141,694,o),
(105,616,cs),
(94,592,o),
(84,455,o),
(85,430,cs),
(86,367,o),
(70,380,o),
(52,375,cs),
(29,369,o),
(30,342,o),
(35,338,cs),
(46,312,o),
(83,358,o),
(85,255,cs),
(86,192,l),
(86,155,ls),
(86,22,o),
(52,40,o),
(20,18,cs),
(12,13,o),
(1,-21,o),
(30,-17,cs),
(78,-10,ls),
(117,-4,o),
(204,-15,o),
(228,-19,cs),
(259,-24,o),
(242,13,o),
(232,17,cs),
(220,23,o),
(170,27,o),
(155,39,cs),
(140,51,o),
(145,112,o),
(145,135,c),
(144,149,o),
(147,239,o),
(146,251,cs),
(145,273,o),
(140,325,o),
(158,326,cs),
(296,333,ls),
(309,334,o),
(310,349,o),
(286,370,cs),
(268,388,o),
(146,347,o),
(145,402,cs),
(145,423,o),
(142,582,o),
(166,625,cs),
(190,671,o),
(226,747,o),
(314,721,cs)
);
},
{
closed = 1;
nodes = (
(546,98,o),
(556,-107,o),
(540,-142,cs),
(521,-195,o),
(434,-225,o),
(346,-209,cs),
(318,-204,o),
(305,-174,o),
(292,-150,cs),
(286,-135,o),
(273,-111,o),
(272,-104,cs),
(271,-95,o),
(283,-102,o),
(291,-104,c),
(295,-105,o),
(321,-113,o),
(346,-138,cs),
(403,-200,o),
(487,-187,o),
(486,-89,cs),
(485,83,l),
(486,192,l),
(485,255,ls),
(484,342,o),
(446,312,o),
(424,328,cs),
(418,331,o),
(402,346,o),
(429,357,cs),
(500,386,l),
(527,402,ls),
(572,429,o),
(542,341,o),
(546,251,cs),
(547,239,o),
(545,146,o),
(545,134,cs)
);
}
);
width = 606;
},
{
associatedMasterId = m01;
layerId = "E2AE9531-6C70-4774-9D7E-9C3814DA069B";
name = "Apr 8, 22, 08:31";
shapes = (
{
closed = 1;
nodes = (
(383,704,o),
(335,659,o),
(340,643,cs),
(355,600,o),
(458,603,o),
(408,684,cs),
(382,723,o),
(368,747,o),
(293,752,cs),
(201,759,o),
(141,694,o),
(105,616,cs),
(94,592,o),
(84,455,o),
(85,430,cs),
(86,367,o),
(70,380,o),
(52,375,cs),
(29,369,o),
(30,342,o),
(35,338,cs),
(46,312,o),
(83,358,o),
(85,255,cs),
(86,192,l),
(86,155,ls),
(86,22,o),
(52,40,o),
(20,18,cs),
(12,13,o),
(1,-21,o),
(30,-17,cs),
(78,-10,ls),
(117,-4,o),
(204,-15,o),
(228,-19,cs),
(259,-24,o),
(242,13,o),
(232,17,cs),
(220,23,o),
(170,27,o),
(155,39,cs),
(140,51,o),
(145,112,o),
(145,135,c),
(144,149,o),
(147,239,o),
(146,251,cs),
(145,273,o),
(140,325,o),
(158,326,cs),
(296,333,ls),
(309,334,o),
(310,349,o),
(286,370,cs),
(268,388,o),
(146,347,o),
(145,402,cs),
(145,423,o),
(142,582,o),
(166,625,cs),
(190,671,o),
(217,741,o),
(302,725,cs)
);
},
{
closed = 1;
nodes = (
(546,98,o),
(556,-107,o),
(540,-142,cs),
(521,-195,o),
(434,-225,o),
(346,-209,cs),
(318,-204,o),
(305,-174,o),
(292,-150,cs),
(286,-135,o),
(273,-111,o),
(272,-104,cs),
(271,-95,o),
(283,-102,o),
(291,-104,c),
(295,-105,o),
(321,-113,o),
(346,-138,cs),
(403,-200,o),
(487,-187,o),
(486,-89,cs),
(485,83,l),
(486,192,l),
(485,255,ls),
(484,342,o),
(446,312,o),
(424,328,cs),
(418,331,o),
(402,346,o),
(429,357,cs),
(500,386,l),
(527,402,ls),
(572,429,o),
(542,341,o),
(546,251,cs),
(547,239,o),
(545,146,o),
(545,134,cs)
);
},
{
closed = 1;
nodes = (
(485,678,o),
(462,677,o),
(425,639,cs),
(397,611,o),
(437,561,o),
(474,574,cs),
(498,581,o),
(556,591,o),
(511,645,cs)
);
},
{
closed = 1;
nodes = (
(383,704,o),
(335,659,o),
(340,643,cs),
(355,600,o),
(458,603,o),
(408,684,cs),
(382,723,o),
(368,747,o),
(293,752,cs),
(201,759,o),
(141,694,o),
(105,616,cs),
(94,592,o),
(84,455,o),
(85,430,cs),
(86,367,o),
(70,380,o),
(52,375,cs),
(29,369,o),
(30,342,o),
(35,338,cs),
(46,312,o),
(83,358,o),
(85,255,cs),
(86,192,l),
(86,155,ls),
(86,22,o),
(52,40,o),
(20,18,cs),
(12,13,o),
(1,-21,o),
(30,-17,cs),
(78,-10,ls),
(117,-4,o),
(204,-15,o),
(228,-19,cs),
(259,-24,o),
(242,13,o),
(232,17,cs),
(220,23,o),
(170,27,o),
(155,39,cs),
(140,51,o),
(145,112,o),
(145,135,c),
(144,149,o),
(147,239,o),
(146,251,cs),
(145,273,o),
(140,325,o),
(158,326,cs),
(296,333,ls),
(309,334,o),
(310,349,o),
(286,370,cs),
(268,388,o),
(146,347,o),
(145,402,cs),
(145,423,o),
(142,582,o),
(166,625,cs),
(190,671,o),
(217,741,o),
(302,725,cs)
);
},
{
closed = 1;
nodes = (
(546,98,o),
(556,-107,o),
(540,-142,cs),
(521,-195,o),
(434,-225,o),
(346,-209,cs),
(318,-204,o),
(305,-174,o),
(292,-150,cs),
(286,-135,o),
(273,-111,o),
(272,-104,cs),
(271,-95,o),
(283,-102,o),
(291,-104,c),
(295,-105,o),
(321,-113,o),
(346,-138,cs),
(403,-200,o),
(487,-187,o),
(486,-89,cs),
(485,83,l),
(486,192,l),
(485,255,ls),
(484,342,o),
(446,312,o),
(424,328,cs),
(418,331,o),
(402,346,o),
(429,357,cs),
(500,386,l),
(527,402,ls),
(572,429,o),
(542,341,o),
(546,251,cs),
(547,239,o),
(545,146,o),
(545,134,cs)
);
},
{
closed = 1;
nodes = (
(485,678,o),
(462,677,o),
(425,639,cs),
(397,611,o),
(437,561,o),
(474,574,cs),
(498,581,o),
(556,591,o),
(511,645,cs)
);
}
);
visible = 1;
width = 579;
}
);
metricLeft = f;
metricRight = j;
},
{
glyphname = f_l;
lastChange = "2022-04-08 12:26:38 +0000";
layers = (
{
layerId = m01;
shapes = (
{
closed = 1;
nodes = (
(399,667,o),
(421,712,o),
(346,721,cs),
(213,737,o),
(183,657,o),
(166,625,cs),
(142,582,o),
(145,423,o),
(145,402,cs),
(146,347,o),
(268,388,o),
(286,370,cs),
(310,349,o),
(309,334,o),
(296,333,cs),
(158,326,ls),
(140,325,o),
(145,273,o),
(146,251,cs),
(147,239,o),
(144,149,o),
(145,135,c),
(145,112,o),
(139,50,o),
(155,39,cs),
(172,27,o),
(242,23,o),
(254,17,cs),
(264,13,o),
(281,-24,o),
(250,-19,cs),
(226,-15,o),
(117,-4,o),
(78,-10,cs),
(30,-17,ls),
(1,-21,o),
(12,13,o),
(20,18,cs),
(52,40,o),
(86,22,o),
(86,155,cs),
(86,192,l),
(85,255,ls),
(83,358,o),
(46,312,o),
(35,338,cs),
(30,342,o),
(29,369,o),
(52,375,cs),
(70,380,o),
(86,367,o),
(85,430,cs),
(84,455,o),
(94,592,o),
(105,616,cs),
(141,694,o),
(201,759,o),
(293,752,cs),
(305,751,o),
(346,745,o),
(356,752,cs),
(414,792,l),
(441,808,ls),
(486,835,o),
(457,747,o),
(461,657,cs),
(462,645,o),
(460,632,o),
(460,620,cs),
(460,575,o),
(460,570,o),
(461,541,cs),
(464,476,o),
(461,291,o),
(461,241,cs),
(461,213,o),
(462,161,o),
(462,132,cs),
(462,109,o),
(457,53,o),
(472,41,cs),
(487,29,o),
(497,25,o),
(509,19,cs),
(519,15,o),
(536,-18,o),
(505,-17,c),
(482,-9,o),
(434,-4,o),
(395,-10,cs),
(347,-17,ls),
(318,-21,o),
(329,13,o),
(337,18,cs),
(369,40,o),
(399,6,o),
(399,139,cs),
(399,583,l),
(399,642,ls)
);
}
);
width = 546;
}
);
metricLeft = f;
metricRight = l;
},
{
glyphname = f_t;
lastChange = "2022-04-13 00:23:14 +0000";
layers = (
{
layerId = m01;
shapes = (
{
closed = 1;
nodes = (
(259,-24,o),
(242,13,o),
(232,17,cs),
(220,23,o),
(170,27,o),
(155,39,cs),
(140,51,o),
(145,112,o),
(145,135,cs),
(144,149,o),
(147,239,o),
(146,251,cs),
(145,273,o),
(140,325,o),
(158,326,cs),
(309,333,ls),
(354,335,o),
(377,352,o),
(379,255,cs),
(380,192,l),
(380,155,ls),
(380,126,o),
(375,52,o),
(385,30,c),
(404,-23,o),
(551,-52,o),
(597,26,cs),
(610,48,o),
(584,36,o),
(579,34,cs),
(501,3,o),
(438,-15,o),
(439,100,cs),
(440,172,o),
(439,40,o),
(439,135,cs),
(439,149,o),
(441,239,o),
(440,251,cs),
(439,273,o),
(434,325,o),
(452,326,cs),
(590,333,ls),
(603,334,o),
(604,349,o),
(580,370,cs),
(562,388,o),
(408,342,o),
(438,423,cs),
(451,458,o),
(405,492,o),
(389,445,cs),
(373,398,o),
(348,372,o),
(329,370,cs),
(293,366,o),
(146,347,o),
(145,402,cs),
(145,423,o),
(142,582,o),
(166,625,cs),
(190,671,o),
(217,741,o),
(302,725,c),
(383,704,o),
(335,659,o),
(340,643,cs),
(355,600,o),
(458,603,o),
(408,684,cs),
(382,723,o),
(368,747,o),
(293,752,cs),
(201,759,o),
(141,694,o),
(105,616,cs),
(94,592,o),
(84,455,o),
(85,430,cs),
(86,367,o),
(70,380,o),
(52,375,cs),
(29,369,o),
(30,342,o),
(35,338,c),
(46,312,o),
(83,358,o),
(85,255,cs),
(86,192,l),
(86,155,ls),
(86,22,o),
(52,40,o),
(20,18,cs),
(12,13,o),
(1,-21,o),
(30,-17,cs),
(78,-10,ls),
(117,-4,o),
(204,-15,o),
(228,-19,cs)
);
}
);
width = 628;
}
);
metricLeft = f;
metricRight = t;
},
{
glyphname = zero;
lastChange = "2022-04-12 23:59:03 +0000";
layers = (
{
layerId = m01;
shapes = (
{
closed = 1;
nodes = (
(361,11,o),
(415,133,o),
(387,258,cs),
(363,378,o),
(268,457,o),
(161,431,cs),
(53,403,o),
(-2,283,o),
(23,161,cs),
(50,38,o),
(147,-40,o),
(254,-16,cs)
);
},
{
closed = 1;
nodes = (
(156,-17,o),
(91,67,o),
(70,168,cs),
(50,266,o),
(83,389,o),
(172,409,cs),
(260,431,o),
(320,346,o),
(341,247,cs),
(363,147,o),
(329,27,o),
(242,6,cs)
);
}
);
width = 411;
}
);
unicode = 48;
},
{
glyphname = one;
lastChange = "2022-04-12 23:58:58 +0000";
layers = (
{
layerId = m01;
shapes = (
{
closed = 1;
nodes = (
(175,348,o),
(175,328,cs),
(175,297,o),
(176,154,o),
(176,121,cs),
(176,106,o),
(177,78,o),
(177,63,cs),
(175,-10,o),
(186,9,o),
(255,2,cs),
(280,0,o),
(286,-24,o),
(258,-21,cs),
(236,-19,o),
(117,-17,o),
(83,-19,cs),
(40,-22,ls),
(14,-24,o),
(24,-4,o),
(31,-3,cs),
(89,15,o),
(130,-18,o),
(130,66,cs),
(131,322,ls),
(131,410,o),
(112,345,o),
(58,336,cs),
(51,335,o),
(43,337,o),
(58,352,cs),
(134,429,ls),
(173,469,o)
);
}
);
width = 300;
},
{
associatedMasterId = m01;
layerId = "B9C0EEA7-56A5-4576-B18D-1DF8DDFAD56A";
name = "Apr 9, 22, 10:56";
shapes = (
{
closed = 1;
nodes = (
(175,333,o),
(175,314,cs),
(175,284,o),
(176,147,o),
(176,115,cs),
(176,101,o),
(177,74,o),
(177,59,cs),
(175,-11,o),
(186,8,o),
(255,1,cs),
(280,-1,o),
(286,-24,o),
(258,-21,cs),
(236,-19,o),
(117,-17,o),
(83,-19,cs),
(40,-22,ls),
(14,-24,o),
(24,-5,o),
(31,-4,cs),
(89,13,o),
(130,-18,o),
(130,62,cs),
(131,308,ls),
(131,392,o),
(112,330,o),
(58,321,cs),
(51,320,o),
(43,322,o),
(58,337,cs),
(134,411,ls),
(173,449,o)
);
},
{
closed = 1;
nodes = (
(361,11,o),
(415,133,o),
(387,258,cs),
(363,378,o),
(268,457,o),
(161,431,cs),
(53,403,o),
(-2,283,o),
(23,161,cs),
(50,38,o),
(147,-40,o),
(254,-16,cs)
);
},
{
closed = 1;
nodes = (
(156,-17,o),
(91,67,o),
(70,168,cs),
(50,266,o),
(83,389,o),
(172,409,cs),
(260,431,o),
(320,346,o),
(341,247,cs),
(363,147,o),
(329,27,o),
(242,6,cs)
);
}
);
visible = 1;
width = 300;
}
);
unicode = 49;
},
{
glyphname = two;
lastChange = "2022-04-12 23:59:05 +0000";
layers = (
{
layerId = m01;
shapes = (
{
closed = 1;
nodes = (
(338,-23,o),
(344,-16,o),
(357,34,cs),
(368,71,o),
(346,56,o),
(337,43,cs),
(329,30,o),
(316,20,o),
(309,17,cs),
(300,14,o),
(174,18,o),
(107,18,cs),
(70,18,o),
(188,142,o),
(215,174,cs),
(279,249,o),
(367,461,o),
(146,433,cs),
(104,428,o),
(73,406,o),
(57,384,cs),
(42,365,o),
(28,341,o),
(24,330,cs),
(20,315,o),
(38,306,o),
(49,318,cs),
(53,324,o),
(63,349,o),
(77,361,cs),
(87,372,o),
(107,396,o),
(139,400,cs),
(279,418,o),
(235,258,o),
(171,174,cs),
(130,120,o),
(93,72,o),
(67,51,cs),
(37,27,o),
(45,25,o),
(34,-1,cs),
(18,-34,o),
(74,-24,o),
(125,-21,cs),
(230,-16,o),
(287,-27,o),
(322,-24,cs)
);
}
);
width = 371;
},
{
associatedMasterId = m01;
layerId = "2EB3D7AD-49C7-4B49-BF31-2AEDE85314CC";
name = "Apr 9, 22, 10:56";
shapes = (
{
closed = 1;
nodes = (
(338,-24,o),
(344,-17,o),
(357,30,cs),
(368,65,o),
(346,51,o),
(337,38,cs),
(329,26,o),
(316,17,o),
(309,14,cs),
(300,11,o),
(174,15,o),
(107,15,cs),
(70,15,o),
(188,131,o),
(215,161,cs),
(279,232,o),
(367,431,o),
(146,405,cs),
(104,400,o),
(73,379,o),
(57,359,cs),
(42,341,o),
(28,318,o),
(24,308,cs),
(20,294,o),
(38,285,o),
(49,297,cs),
(53,302,o),
(63,326,o),
(77,337,cs),
(87,347,o),
(107,370,o),
(139,374,cs),
(279,391,o),
(235,240,o),
(171,161,cs),
(130,111,o),
(93,66,o),
(67,46,cs),
(37,23,o),
(45,21,o),
(34,-3,cs),
(18,-34,o),
(74,-25,o),
(125,-22,cs),
(230,-17,o),
(287,-27,o),
(322,-25,cs)
);
},
{
closed = 1;
nodes = (
(361,11,o),
(415,133,o),
(387,258,cs),
(363,378,o),
(268,457,o),
(161,431,cs),
(53,403,o),
(-2,283,o),
(23,161,cs),
(50,38,o),
(147,-40,o),
(254,-16,cs)
);
},
{
closed = 1;
nodes = (
(156,-17,o),
(91,67,o),
(70,168,cs),
(50,266,o),
(83,389,o),
(172,409,cs),
(260,431,o),
(320,346,o),
(341,247,cs),
(363,147,o),
(329,27,o),
(242,6,cs)
);
}
);
visible = 1;
width = 383;
}
);
unicode = 50;
},
{
glyphname = three;
lastChange = "2022-04-12 23:59:07 +0000";
layers = (
{
layerId = m01;
shapes = (
{
closed = 1;
nodes = (
(254,-137,o),
(292,22,o),
(272,85,cs),
(255,142,o),
(172,188,o),
(147,182,cs),
(135,179,o),
(133,171,o),
(124,170,cs),
(92,165,o),
(124,211,o),
(163,255,cs),
(180,274,o),
(209,318,o),
(194,354,cs),
(179,393,o),
(147,410,o),
(114,406,cs),
(90,403,o),
(84,397,o),
(70,383,cs),
(56,369,o),
(51,351,o),
(40,343,cs),
(28,333,o),
(4,348,o),
(13,360,cs),
(44,402,o),
(83,435,o),
(118,435,cs),
(183,437,o),
(220,413,o),
(244,364,cs),
(286,258,o),
(139,217,o),
(190,210,cs),
(227,205,o),
(299,152,o),
(319,92,cs),
(366,-56,o),
(225,-164,o),
(142,-182,cs),
(115,-188,o),
(69,-184,o),
(49,-171,cs),
(32,-160,o),
(-7,-139,o),
(26,-106,cs),
(36,-96,o),
(73,-69,o),
(79,-125,cs),
(82,-155,o),
(130,-159,o),
(144,-156,cs)
);
}
);
width = 355;
},
{
associatedMasterId = m01;
layerId = "AB068AE7-B92E-4663-8741-73A6200FB2C4";
name = "Apr 9, 22, 11:22";
shapes = (
{
closed = 1;
nodes = (
(448,-23,o),
(454,-16,o),
(467,34,cs),
(478,71,o),
(456,56,o),
(447,43,cs),
(439,30,o),
(426,20,o),
(419,17,cs),
(410,14,o),
(284,18,o),
(217,18,cs),
(180,18,o),
(298,142,o),
(325,174,cs),
(389,249,o),
(477,461,o),
(256,433,cs),
(214,428,o),
(183,406,o),
(167,384,cs),
(152,365,o),
(138,341,o),
(134,330,cs),
(130,315,o),
(148,306,o),
(159,318,cs),
(163,324,o),
(173,349,o),
(187,361,cs),
(197,372,o),
(217,396,o),
(249,400,cs),
(389,418,o),
(345,258,o),
(281,174,cs),
(240,120,o),
(203,72,o),
(177,51,cs),
(147,27,o),
(155,25,o),
(144,-1,cs),
(128,-34,o),
(184,-24,o),
(235,-21,cs),
(340,-16,o),
(397,-27,o),
(432,-24,cs)
);
}
);
visible = 1;
width = 600;
}
);
unicode = 51;
},
{
glyphname = four;
lastChange = "2022-04-12 23:59:09 +0000";
layers = (
{
layerId = m01;
shapes = (
{
closed = 1;
nodes = (
(346,6,o),
(187,6,o),
(157,6,cs),
(115,6,o),
(-16,-14,o),
(25,51,cs),
(254,418,ls),
(265,435,o),
(290,420,o),
(288,413,cs),
(267,338,o),
(35,41,o),
(81,41,cs),
(113,41,o),
(327,44,o),
(348,44,cs),
(368,44,o),
(380,6,o),
(368,6,cs)
);
},
{
closed = 1;
nodes = (
(236,114,o),
(273,134,o),
(273,119,cs),
(273,66,o),
(272,26,o),
(272,4,cs),
(272,-16,o),
(273,-55,o),
(273,-75,cs),
(271,-173,o),
(281,-145,o),
(340,-155,cs),
(361,-158,o),
(366,-190,o),
(342,-186,cs),
(323,-182,o),
(221,-178,o),
(193,-182,cs),
(155,-187,ls),
(134,-190,o),
(142,-164,o),
(147,-162,cs),
(197,-139,o),
(231,-181,o),
(233,-70,cs),
(236,96,ls)
);
}
);
width = 384;
},
{
associatedMasterId = m01;
layerId = "35DA2049-CFF0-4847-AF87-A961F998D0D7";
name = "Apr 11, 22, 17:04";
shapes = (
{
closed = 1;
nodes = (
(254,-137,o),
(292,22,o),
(272,85,cs),
(255,142,o),
(172,188,o),
(147,182,cs),
(135,179,o),
(133,171,o),
(124,170,cs),
(92,165,o),
(124,211,o),
(163,255,cs),
(180,274,o),
(209,318,o),
(194,354,cs),
(179,393,o),
(147,410,o),
(114,406,cs),
(90,403,o),
(84,397,o),
(70,383,cs),
(56,369,o),
(51,351,o),
(40,343,cs),
(28,333,o),
(4,348,o),
(13,360,cs),
(44,402,o),
(83,435,o),
(118,435,cs),
(183,437,o),
(220,413,o),
(244,364,cs),
(286,258,o),
(139,217,o),
(190,210,cs),
(227,205,o),
(299,152,o),
(319,92,cs),
(366,-56,o),
(225,-164,o),
(142,-182,cs),
(115,-188,o),
(69,-184,o),
(49,-171,cs),
(32,-160,o),
(-7,-139,o),
(26,-106,cs),
(36,-96,o),
(73,-69,o),
(79,-125,cs),
(82,-155,o),
(130,-159,o),
(144,-156,cs)
);
}
);
visible = 1;
width = 600;
},
{
associatedMasterId = m01;
layerId = "A8EE3ABD-AAD6-4F86-81DB-24BDF89E58E6";
name = "Apr 11, 22, 17:05";
shapes = (
{
closed = 1;
nodes = (
(398,-143,o),
(216,-143,o),
(181,-143,cs),
(133,-143,o),
(-18,-164,o),
(29,-89,cs),
(293,331,ls),
(305,350,o),
(320,338,o),
(318,331,cs),
(296,250,o),
(27,-97,o),
(88,-97,cs),
(125,-97,o),
(376,-100,o),
(401,-100,cs),
(424,-100,o),
(437,-143,o),
(424,-143,cs)
);
},
{
closed = 1;
nodes = (
(272,-19,o),
(314,4,o),
(314,-13,cs),
(314,-74,o),
(313,-120,o),
(313,-146,cs),
(313,-169,o),
(314,-213,o),
(314,-237,cs),
(312,-349,o),
(323,-317,o),
(391,-328,cs),
(415,-332,o),
(421,-369,o),
(394,-364,cs),
(372,-360,o),
(255,-354,o),
(222,-359,cs),
(179,-365,ls),
(154,-368,o),
(164,-339,o),
(170,-337,cs),
(227,-310,o),
(265,-358,o),
(268,-231,cs),
(272,-40,ls)
);
},
{
closed = 1;
nodes = (
(361,11,o),
(415,133,o),
(387,258,cs),
(363,378,o),
(268,457,o),
(161,431,cs),
(53,403,o),
(-2,283,o),
(23,161,cs),
(50,38,o),
(147,-40,o),
(254,-16,cs)
);
},
{
closed = 1;
nodes = (
(156,-17,o),
(91,67,o),
(70,168,cs),
(50,266,o),
(83,389,o),
(172,409,cs),
(260,431,o),
(320,346,o),
(341,247,cs),
(363,147,o),
(329,27,o),
(242,6,cs)
);
}
);
visible = 1;
width = 600;
}
);
unicode = 52;
},
{
glyphname = five;
lastChange = "2022-04-12 23:59:10 +0000";
layers = (
{
layerId = m01;
shapes = (
{
closed = 1;
nodes = (
(199,-164,o),
(319,-80,o),
(316,19,cs),
(309,181,o),
(168,211,o),
(98,242,cs),
(97,243,o),
(87,248,o),
(83,250,cs),
(80,252,o),
(79,250,o),
(78,256,cs),
(67,284,o),
(88,357,o),
(103,373,cs),
(115,386,o),
(127,385,o),
(141,385,cs),
(220,385,o),
(224,375,o),
(258,379,cs),
(274,380,o),
(280,381,o),
(293,443,cs),
(300,478,o),
(282,465,o),
(277,453,cs),
(267,430,o),
(252,424,o),
(247,420,cs),
(227,410,o),
(187,418,o),
(162,418,cs),
(152,418,o),
(137,418,o),
(125,421,cs),
(120,423,o),
(82,441,o),
(72,428,cs),
(63,416,o),
(70,405,o),
(66,396,cs),
(60,374,o),
(51,345,o),
(46,314,cs),
(39,279,o),
(23,173,o),
(39,174,cs),
(67,174,o),
(61,208,o),
(84,209,cs),
(233,169,o),
(255,106,o),
(261,30,cs),
(267,-32,o),
(234,-129,o),
(131,-156,cs),
(117,-160,o),
(69,-155,o),
(66,-125,cs),
(60,-69,o),
(23,-96,o),
(13,-106,cs),
(-20,-139,o),
(19,-160,o),
(36,-171,cs),
(44,-176,o),
(91,-193,o),
(152,-177,cs)
);
}
);
width = 343;
},
{
associatedMasterId = m01;
layerId = "67CA3F22-2758-4B17-9571-DEA92254EB18";
name = "Apr 9, 22, 11:50";
shapes = (
{
closed = 1;
nodes = (
(354,-137,o),
(392,22,o),
(372,85,cs),
(355,142,o),
(272,188,o),
(247,182,cs),
(235,179,o),
(233,171,o),
(224,170,cs),
(192,165,o),
(224,211,o),
(263,255,cs),
(280,274,o),
(309,318,o),
(294,354,cs),
(279,393,o),
(247,410,o),
(214,406,cs),
(190,403,o),
(184,397,o),
(170,383,cs),
(156,369,o),
(151,351,o),
(140,343,cs),
(128,333,o),
(104,348,o),
(113,360,cs),
(144,402,o),
(183,435,o),
(218,435,cs),
(283,437,o),
(320,413,o),
(344,364,cs),
(386,258,o),
(239,217,o),
(290,210,cs),
(327,205,o),
(399,152,o),
(419,92,cs),
(466,-56,o),
(325,-164,o),
(242,-182,cs),
(215,-188,o),
(169,-184,o),
(149,-171,cs),
(132,-160,o),
(93,-139,o),
(126,-106,cs),
(136,-96,o),
(173,-69,o),
(179,-125,cs),
(182,-155,o),
(230,-159,o),
(244,-156,cs)
);
}
);
visible = 1;
width = 711;
}
);
unicode = 53;
},
{
glyphname = six;
lastChange = "2022-04-12 23:59:12 +0000";
layers = (
{
layerId = m01;
shapes = (
{
closed = 1;
nodes = (
(53,489,o),
(71,372,o),
(68,275,cs),
(68,224,o),
(76,191,o),
(87,155,cs),
(110,89,o),
(176,4,o),
(244,21,cs),
(304,32,o),
(331,136,o),
(317,195,cs),
(299,270,o),
(235,262,o),
(178,222,cs),
(149,202,o),
(124,214,o),
(165,243,cs),
(243,296,o),
(335,295,o),
(356,203,cs),
(379,108,o),
(333,15,o),
(243,-4,cs),
(152,-23,o),
(66,47,o),
(44,140,cs),
(35,176,o),
(23,229,o),
(23,277,cs),
(23,454,o),
(127,576,o),
(200,583,cs),
(257,588,o),
(234,551,o),
(197,547,cs)
);
}
);
width = 385;
},
{
associatedMasterId = m01;
layerId = "65F31442-F194-4842-866F-4DEB303B6D30";
name = "Apr 11, 22, 18:08";
shapes = (
{
closed = 1;
nodes = (
(53,489,o),
(71,372,o),
(68,275,cs),
(68,224,o),
(76,191,o),
(87,155,cs),
(110,89,o),
(176,4,o),
(244,21,cs),
(304,32,o),
(331,136,o),
(317,195,cs),
(299,270,o),
(235,262,o),
(178,222,cs),
(149,202,o),
(124,214,o),
(165,243,cs),
(243,296,o),
(335,295,o),
(356,203,cs),
(379,108,o),
(333,15,o),
(243,-4,cs),
(152,-23,o),
(66,47,o),
(44,140,cs),
(35,176,o),
(23,229,o),
(23,277,cs),
(23,454,o),
(127,576,o),
(200,583,cs),
(257,588,o),
(234,551,o),
(197,547,cs)
);
},
{
closed = 1;
nodes = (
(199,-164,o),
(319,-80,o),
(316,19,cs),
(309,181,o),
(168,211,o),
(98,242,cs),
(97,243,o),
(87,248,o),
(83,250,cs),
(80,252,o),
(79,250,o),
(78,256,cs),
(67,284,o),
(88,357,o),
(103,373,cs),
(115,386,o),
(127,385,o),
(141,385,cs),
(220,385,o),
(224,375,o),
(258,379,cs),
(274,380,o),
(280,381,o),
(293,443,cs),
(300,478,o),
(282,465,o),
(277,453,cs),
(267,430,o),
(252,424,o),
(247,420,cs),
(227,410,o),
(187,418,o),
(162,418,cs),
(152,418,o),
(137,418,o),
(125,421,cs),
(120,423,o),
(82,441,o),
(72,428,cs),
(63,416,o),
(70,405,o),
(66,396,cs),
(60,374,o),
(51,345,o),
(46,314,cs),
(39,279,o),
(23,173,o),
(39,174,cs),
(67,174,o),
(61,208,o),
(84,209,cs),
(233,169,o),
(255,106,o),
(261,30,cs),
(267,-32,o),
(234,-129,o),
(131,-156,cs),
(117,-160,o),
(69,-155,o),
(66,-125,cs),
(60,-69,o),
(23,-96,o),
(13,-106,cs),
(-20,-139,o),
(19,-160,o),
(36,-171,cs),
(44,-176,o),
(91,-193,o),
(152,-177,cs)
);
}
);
visible = 1;
width = 385;
}
);
unicode = 54;
},
{
glyphname = seven;
lastChange = "2022-04-12 23:59:13 +0000";
layers = (
{
layerId = m01;
shapes = (
{
closed = 1;
nodes = (
(151,-51,o),
(168,79,o),
(173,97,cs),
(216,240,o),
(285,305,o),
(290,313,cs),
(321,362,o),
(348,379,o),
(220,379,cs),
(134,379,o),
(76,378,o),
(67,374,cs),
(55,371,o),
(40,360,o),
(30,345,cs),
(26,338,o),
(6,319,o),
(12,354,cs),
(23,416,o),
(33,419,o),
(49,420,cs),
(82,424,o),
(155,413,o),
(273,424,cs),
(325,429,o),
(382,431,o),
(371,397,cs),
(363,372,o),
(336,339,o),
(306,295,cs),
(299,284,o),
(210,193,o),
(197,30,cs),
(193,-19,o),
(193,-109,o),
(193,-122,cs),
(193,-149,o),
(194,-145,o),
(253,-155,cs),
(274,-158,o),
(279,-190,o),
(255,-186,cs),
(236,-182,o),
(141,-177,o),
(113,-182,cs),
(82,-187,ls),
(61,-190,o),
(69,-164,o),
(74,-162,cs),
(112,-145,o),
(151,-159,o),
(151,-109,cs)
);
}
);
width = 383;
},
{
associatedMasterId = m01;
layerId = "5FDB98DB-0578-4310-BDCB-9EAF9B0B1C02";
name = "Apr 11, 22, 17:27";
shapes = (
{
closed = 1;
nodes = (
(98,104,o),
(143,137,o),
(156,167,cs),
(207,297,o),
(299,447,o),
(312,468,cs),
(341,518,o),
(384,567,o),
(393,595,cs),
(405,633,o),
(341,632,o),
(282,626,cs),
(170,613,o),
(87,626,o),
(50,621,cs),
(32,620,o),
(20,616,o),
(8,546,cs),
(1,506,o),
(24,528,o),
(28,536,cs),
(40,553,o),
(57,565,o),
(70,569,cs),
(80,573,o),
(146,575,o),
(221,575,cs),
(367,575,o),
(328,560,o),
(301,500,cs),
(291,477,o),
(149,252,o),
(104,123,cs)
);
},
{
closed = 1;
nodes = (
(346,6,o),
(187,6,o),
(157,6,cs),
(115,6,o),
(-16,-14,o),
(25,51,cs),
(254,418,ls),
(265,435,o),
(290,420,o),
(288,413,cs),
(267,338,o),
(35,41,o),
(81,41,cs),
(113,41,o),
(327,44,o),
(348,44,cs),
(368,44,o),
(380,6,o),
(368,6,cs)
);
},
{
closed = 1;
nodes = (
(236,114,o),
(273,134,o),
(273,119,cs),
(273,66,o),
(272,26,o),
(272,4,cs),
(272,-16,o),
(273,-55,o),
(273,-75,cs),
(271,-173,o),
(281,-145,o),
(340,-155,cs),
(361,-158,o),
(366,-190,o),
(342,-186,cs),
(323,-182,o),
(221,-178,o),
(193,-182,cs),
(155,-187,ls),
(134,-190,o),
(142,-164,o),
(147,-162,cs),
(197,-139,o),
(231,-181,o),
(233,-70,cs),
(236,96,ls)
);
}
);
visible = 1;
width = 600;
}
);
unicode = 55;
},
{
glyphname = eight;
lastChange = "2022-04-12 23:59:14 +0000";
layers = (
{
layerId = m01;
shapes = (
{
closed = 1;
nodes = (
(308,-6,o),
(369,119,o),
(313,218,cs),
(284,268,o),
(252,297,o),
(217,314,c),
(162,340,o),
(110,354,o),
(89,395,cs),
(50,473,o),
(112,541,o),
(148,548,cs),
(219,560,o),
(249,528,o),
(269,466,cs),
(278,441,o),
(284,377,o),
(242,344,cs),
(202,310,o),
(179,319,o),
(108,276,c),
(73,257,o),
(2,174,o),
(29,92,cs),
(57,22,o),
(124,-24,o),
(199,-18,cs)
);
},
{
closed = 1;
nodes = (
(132,-2,o),
(94,44,o),
(74,105,cs),
(55,159,o),
(76,225,o),
(113,250,cs),
(181,297,o),
(199,286,o),
(241,317,cs),
(272,339,o),
(334,404,o),
(314,480,cs),
(295,552,o),
(222,596,o),
(141,579,cs),
(71,561,o),
(18,488,o),
(50,392,cs),
(76,311,o),
(153,296,o),
(186,279,cs),
(228,256,o),
(247,215,o),
(261,188,cs),
(290,132,o),
(285,31,o),
(195,11,cs)
);
}
);
width = 357;
},
{
associatedMasterId = m01;
layerId = "5D9589B0-41E8-4B51-836B-7477CCBC2564";
name = "Apr 11, 22, 18:08";
shapes = (
{
closed = 1;
nodes = (
(372,-3,o),
(441,138,o),
(377,251,cs),
(344,308,o),
(308,341,o),
(268,360,c),
(206,389,o),
(147,405,o),
(123,452,cs),
(78,540,o),
(149,618,o),
(190,626,cs),
(270,639,o),
(305,603,o),
(327,533,cs),
(338,504,o),
(344,432,o),
(297,394,cs),
(251,355,o),
(225,366,o),
(144,317,c),
(105,295,o),
(24,201,o),
(55,108,cs),
(86,28,o),
(163,-24,o),
(248,-17,cs)
);
},
{
closed = 1;
nodes = (
(172,1,o),
(129,53,o),
(106,123,cs),
(84,184,o),
(108,259,o),
(150,287,cs),
(227,341,o),
(248,328,o),
(296,363,cs),
(331,388,o),
(401,462,o),
(378,549,cs),
(357,630,o),
(274,680,o),
(182,661,cs),
(102,641,o),
(42,557,o),
(78,449,cs),
(108,357,o),
(195,340,o),
(233,320,cs),
(281,294,o),
(302,247,o),
(318,217,cs),
(351,153,o),
(345,38,o),
(243,16,cs)
);
},
{
closed = 1;
nodes = (
(53,489,o),
(71,372,o),
(68,275,cs),
(68,224,o),
(76,191,o),
(87,155,cs),
(110,89,o),
(176,4,o),
(244,21,cs),
(304,32,o),
(331,136,o),
(317,195,cs),
(299,270,o),
(235,262,o),
(178,222,cs),
(149,202,o),
(124,214,o),
(165,243,cs),
(243,296,o),
(335,295,o),
(356,203,cs),
(379,108,o),
(333,15,o),
(243,-4,cs),
(152,-23,o),
(66,47,o),
(44,140,cs),
(35,176,o),
(23,229,o),
(23,277,cs),
(23,454,o),
(127,576,o),
(200,583,cs),
(257,588,o),
(234,551,o),
(197,547,cs)
);
}
);
visible = 1;
width = 600;
}
);
unicode = 56;
},
{
glyphname = nine;
lastChange = "2022-04-12 23:59:16 +0000";
layers = (
{
layerId = m01;
shapes = (
{
closed = 1;
nodes = (
(230,-131,o),
(254,-10,o),
(292,84,cs),
(310,134,o),
(315,169,o),
(316,208,cs),
(318,281,o),
(282,388,o),
(210,395,cs),
(147,406,o),
(104,318,o),
(95,254,cs),
(84,189,o),
(149,152,o),
(222,158,cs),
(250,160,o),
(262,133,o),
(225,133,cs),
(125,132,o),
(40,189,o),
(54,264,cs),
(66,364,o),
(125,432,o),
(221,419,cs),
(317,405,o),
(376,307,o),
(364,207,cs),
(360,169,o),
(353,113,o),
(336,66,cs),
(272,-106,o),
(126,-189,o),
(54,-170,cs),
(-5,-155,o),
(31,-127,o),
(68,-137,cs)
);
}
);
width = 389;
},
{
associatedMasterId = m01;
layerId = "F9A3B531-E460-4336-AEB5-B3D7F44D9409";
name = "Apr 11, 22, 18:07";
shapes = (
{
closed = 1;
nodes = (
(310,66,o),
(336,197,o),
(377,298,cs),
(396,351,o),
(401,389,o),
(402,431,cs),
(404,510,o),
(366,625,o),
(288,632,cs),
(221,644,o),
(174,549,o),
(165,481,cs),
(153,411,o),
(223,371,o),
(301,377,cs),
(331,379,o),
(344,350,o),
(304,350,cs),
(197,349,o),
(105,411,o),
(121,491,cs),
(133,599,o),
(197,672,o),
(300,658,cs),
(403,643,o),
(467,538,o),
(454,430,cs),
(450,389,o),
(442,329,o),
(424,278,cs),
(355,93,o),
(198,4,o),
(120,24,cs),
(57,40,o),
(96,71,o),
(136,60,cs)
);
},
{
closed = 1;
nodes = (
(199,-164,o),
(319,-80,o),
(316,19,cs),
(309,181,o),
(168,211,o),
(98,242,cs),
(97,243,o),
(87,248,o),
(83,250,cs),
(80,252,o),
(79,250,o),
(78,256,cs),
(67,284,o),
(88,357,o),
(103,373,cs),
(115,386,o),
(127,385,o),
(141,385,cs),
(220,385,o),
(224,375,o),
(258,379,cs),
(274,380,o),
(280,381,o),
(293,443,cs),
(300,478,o),
(282,465,o),
(277,453,cs),
(267,430,o),
(252,424,o),
(247,420,cs),
(227,410,o),
(187,418,o),
(162,418,cs),
(152,418,o),
(137,418,o),
(125,421,cs),
(120,423,o),
(82,441,o),
(72,428,cs),
(63,416,o),
(70,405,o),
(66,396,cs),
(60,374,o),
(51,345,o),
(46,314,cs),
(39,279,o),
(23,173,o),
(39,174,cs),
(67,174,o),
(61,208,o),
(84,209,cs),
(233,169,o),
(255,106,o),
(261,30,cs),
(267,-32,o),
(234,-129,o),
(131,-156,cs),
(117,-160,o),
(69,-155,o),
(66,-125,cs),
(60,-69,o),
(23,-96,o),
(13,-106,cs),
(-20,-139,o),
(19,-160,o),
(36,-171,cs),
(44,-176,o),
(91,-193,o),
(152,-177,cs)
);
}
);
visible = 1;
width = 600;
}
);
unicode = 57;
},
{
glyphname = zero.pf;
lastChange = "2022-04-12 23:58:16 +0000";
layers = (
{
layerId = m01;
shapes = (
{
closed = 1;
nodes = (
(394,23,o),
(452,209,o),
(423,397,cs),
(396,582,o),
(293,700,o),
(179,661,cs),
(62,621,o),
(4,436,o),
(32,250,cs),
(59,62,o),
(163,-55,o),
(279,-16,cs)
);
},
{
closed = 1;
nodes = (
(173,-18,o),
(104,107,o),
(81,261,cs),
(59,411,o),
(96,598,o),
(191,629,cs),
(284,661,o),
(350,533,o),
(373,382,cs),
(396,230,o),
(360,47,o),
(267,14,cs)
);
}
);
width = 600;
}
);
},
{
glyphname = one.pf;
lastChange = "2022-04-12 23:58:22 +0000";
layers = (
{
layerId = m01;
shapes = (
{
closed = 1;
nodes = (
(313,551,o),
(313,518,cs),
(313,481,o),
(313,476,o),
(314,451,cs),
(316,397,o),
(314,242,o),
(314,199,cs),
(314,176,o),
(315,132,o),
(315,108,cs),
(313,-4,o),
(324,28,o),
(392,17,cs),
(416,13,o),
(422,-24,o),
(395,-19,cs),
(373,-15,o),
(256,-10,o),
(223,-14,cs),
(180,-20,ls),
(155,-24,o),
(165,6,o),
(171,8,cs),
(228,35,o),
(269,-13,o),
(269,114,cs),
(269,565,ls),
(269,654,o),
(227,526,o),
(153,506,cs),
(146,504,o),
(136,511,o),
(153,531,cs),
(273,673,ls),
(312,720,o)
);
}
);
width = 600;
},
{
associatedMasterId = m01;
layerId = "0D0915BE-D601-4136-AB9C-B60287E641F1";
name = "Apr 9, 22, 10:56";
shapes = (
{
closed = 1;
nodes = (
(316,586,o),
(316,552,cs),
(316,512,o),
(316,507,o),
(317,481,cs),
(319,423,o),
(317,258,o),
(317,213,cs),
(317,188,o),
(318,142,o),
(318,116,cs),
(316,-3,o),
(327,31,o),
(396,20,cs),
(421,16,o),
(427,-24,o),
(399,-19,cs),
(377,-15,o),
(258,-9,o),
(224,-14,cs),
(181,-20,ls),
(155,-24,o),
(165,7,o),
(172,11,cs),
(230,39,o),
(271,-13,o),
(271,122,cs),
(271,602,ls),
(271,696,o),
(228,560,o),
(153,539,cs),
(146,537,o),
(136,544,o),
(153,565,cs),
(275,716,ls),
(315,766,o)
);
},
{
closed = 1;
nodes = (
(394,23,o),
(452,209,o),
(423,397,cs),
(396,582,o),
(293,700,o),
(179,661,cs),
(62,621,o),
(4,436,o),
(32,250,cs),
(59,62,o),
(163,-55,o),
(279,-16,cs)
);
},
{
closed = 1;
nodes = (
(173,-18,o),
(104,107,o),
(81,261,cs),
(59,411,o),
(96,598,o),
(191,629,cs),
(284,661,o),
(350,533,o),
(373,382,cs),
(396,230,o),
(360,47,o),
(267,14,cs)
);
}
);
visible = 1;
width = 600;
}
);
},
{
glyphname = two.pf;
lastChange = "2022-04-12 23:58:31 +0000";
layers = (
{
layerId = m01;
shapes = (
{
closed = 1;
nodes = (
(432,-18,o),
(439,-22,o),
(455,52,cs),
(464,94,o),
(438,77,o),
(432,63,cs),
(423,43,o),
(399,34,o),
(391,29,cs),
(380,25,o),
(306,35,o),
(222,29,cs),
(123,21,o),
(128,45,o),
(180,94,cs),
(204,114,o),
(317,205,o),
(397,349,cs),
(401,356,o),
(548,653,o),
(269,668,cs),
(218,671,o),
(156,627,o),
(137,594,cs),
(118,565,o),
(101,529,o),
(96,513,cs),
(91,490,o),
(113,476,o),
(126,496,cs),
(132,504,o),
(144,540,o),
(160,560,cs),
(173,573,o),
(220,627,o),
(262,626,cs),
(443,618,o),
(405,392,o),
(300,279,cs),
(226,198,o),
(155,125,o),
(124,94,cs),
(88,57,o),
(97,54,o),
(83,16,cs),
(64,-34,o),
(133,-19,o),
(196,-15,cs),
(323,-6,o),
(369,-23,o),
(412,-19,cs)
);
}
);
width = 600;
},
{
associatedMasterId = m01;
layerId = "5CCF64E6-004F-43C4-A1C4-759B7A860100";
name = "Apr 9, 22, 10:57";
shapes = (
{
closed = 1;
nodes = (
(450,-17,o),
(458,-22,o),
(474,59,cs),
(484,103,o),
(457,86,o),
(450,70,cs),
(440,49,o),
(416,39,o),
(407,34,cs),
(396,29,o),
(318,40,o),
(230,33,cs),
(126,25,o),
(131,51,o),
(186,103,cs),
(210,126,o),
(329,223,o),
(414,378,cs),
(418,385,o),
(571,704,o),
(280,720,cs),
(226,723,o),
(161,676,o),
(140,641,cs),
(121,609,o),
(103,571,o),
(98,554,cs),
(92,529,o),
(116,514,o),
(129,535,cs),
(135,544,o),
(148,583,o),
(165,603,cs),
(178,619,o),
(228,677,o),
(271,675,cs),
(462,666,o),
(422,423,o),
(312,302,cs),
(234,216,o),
(160,137,o),
(127,103,cs),
(89,64,o),
(99,61,o),
(84,20,cs),
(64,-34,o),
(136,-19,o),
(202,-14,cs),
(336,-4,o),
(384,-23,o),
(429,-19,cs)
);
},
{
closed = 1;
nodes = (
(394,23,o),
(452,209,o),
(423,397,cs),
(396,582,o),
(293,700,o),
(179,661,cs),
(62,621,o),
(4,436,o),
(32,250,cs),
(59,62,o),
(163,-55,o),
(279,-16,cs)
);
},
{
closed = 1;
nodes = (
(173,-18,o),
(104,107,o),
(81,261,cs),
(59,411,o),
(96,598,o),
(191,629,cs),
(284,661,o),
(350,533,o),
(373,382,cs),
(396,230,o),
(360,47,o),
(267,14,cs)
);
}
);
visible = 1;
width = 600;
}
);
},
{
glyphname = three.pf;
lastChange = "2022-04-12 23:58:38 +0000";
layers = (
{
layerId = m01;
shapes = (
{
closed = 0;
nodes = (
(326,21,l)
);
},
{
closed = 1;
nodes = (
(132,110,o),
(160,107,o),
(155,124,cs),
(147,157,o),
(85,172,o),
(91,101,cs),
(94,66,o),
(150,-24,o),
(262,-18,cs),
(297,-16,o),
(323,-11,o),
(334,-7,cs),
(391,10,o),
(501,111,o),
(469,224,cs),
(447,303,o),
(399,345,o),
(322,356,cs),
(309,359,o),
(305,364,o),
(305,364,cs),
(305,368,o),
(307,378,o),
(317,384,cs),
(391,414,o),
(426,488,o),
(398,568,cs),
(370,637,o),
(326,670,o),
(246,667,cs),
(202,665,o),
(155,621,o),
(118,562,cs),
(108,545,o),
(127,537,o),
(142,550,cs),
(157,562,o),
(160,586,o),
(179,601,cs),
(209,626,o),
(202,626,o),
(239,632,cs),
(302,641,o),
(333,614,o),
(353,555,cs),
(373,502,o),
(351,450,o),
(310,417,cs),
(263,378,o),
(209,312,o),
(246,312,cs),
(258,312,o),
(267,327,o),
(287,327,cs),
(352,327,o),
(402,282,o),
(420,214,cs),
(438,150,o),
(387,38,o),
(326,21,cs),
(307,16,o),
(285,7,o),
(263,7,cs),
(213,7,o),
(183,5,o),
(157,59,cs)
);
}
);
width = 600;
},
{
associatedMasterId = m01;
layerId = "1F1F2FAE-D8A1-4E68-89C7-4540766B1082";
name = "Apr 9, 22, 10:59";
shapes = (
{
closed = 1;
nodes = (
(432,-18,o),
(439,-22,o),
(455,52,cs),
(464,94,o),
(438,77,o),
(432,63,cs),
(423,43,o),
(399,34,o),
(391,29,cs),
(380,25,o),
(306,35,o),
(222,29,cs),
(123,21,o),
(128,45,o),
(180,94,cs),
(204,114,o),
(317,205,o),
(397,349,cs),
(401,356,o),
(548,653,o),
(269,668,cs),
(218,671,o),
(156,627,o),
(137,594,cs),
(118,565,o),
(101,529,o),
(96,513,cs),
(91,490,o),
(113,476,o),
(126,496,cs),
(132,504,o),
(144,540,o),
(160,560,cs),
(173,573,o),
(220,627,o),
(262,626,cs),
(443,618,o),
(405,392,o),
(300,279,cs),
(226,198,o),
(155,125,o),
(124,94,cs),
(88,57,o),
(97,54,o),
(83,16,cs),
(64,-34,o),
(133,-19,o),
(196,-15,cs),
(323,-6,o),
(369,-23,o),
(412,-19,cs)
);
}
);
visible = 1;
width = 600;
}
);
},
{
glyphname = four.pf;
lastChange = "2022-04-12 23:58:35 +0000";
layers = (
{
layerId = m01;
shapes = (
{
closed = 1;
nodes = (
(399,202,o),
(217,202,o),
(182,202,cs),
(134,202,o),
(-17,181,o),
(30,256,cs),
(294,676,ls),
(306,695,o),
(321,683,o),
(319,676,cs),
(297,595,o),
(28,248,o),
(89,248,cs),
(126,248,o),
(377,245,o),
(402,245,cs),
(425,245,o),
(438,202,o),
(425,202,cs)
);
},
{
closed = 1;
nodes = (
(273,326,o),
(315,349,o),
(315,332,cs),
(315,271,o),
(314,225,o),
(314,199,cs),
(314,176,o),
(315,132,o),
(315,108,cs),
(313,-4,o),
(324,28,o),
(392,17,cs),
(416,13,o),
(422,-24,o),
(395,-19,cs),
(373,-15,o),
(256,-9,o),
(223,-14,cs),
(180,-20,ls),
(155,-23,o),
(165,6,o),
(171,8,cs),
(228,35,o),
(266,-13,o),
(269,114,cs),
(273,305,ls)
);
}
);
width = 600;
}
);
},
{
glyphname = five.pf;
lastChange = "2022-04-12 23:58:44 +0000";
layers = (
{
layerId = m01;
shapes = (
{
closed = 0;
nodes = (
(226,18,l)
);
},
{
closed = 1;
nodes = (
(109,451,o),
(106,457,cs),
(93,487,o),
(112,597,o),
(135,604,cs),
(156,610,o),
(162,614,o),
(177,614,cs),
(277,614,o),
(325,601,o),
(364,605,cs),
(381,606,o),
(388,608,o),
(402,676,cs),
(410,715,o),
(387,699,o),
(381,686,cs),
(370,660,o),
(357,655,o),
(351,651,cs),
(330,641,o),
(223,655,o),
(199,655,cs),
(188,655,o),
(168,654,o),
(158,657,cs),
(146,660,o),
(104,678,o),
(93,664,cs),
(84,651,o),
(92,638,o),
(88,628,cs),
(82,604,o),
(73,571,o),
(69,537,cs),
(63,481,o),
(47,345,o),
(64,346,cs),
(91,347,o),
(81,403,o),
(115,405,cs),
(298,357,o),
(332,330,o),
(340,220,cs),
(347,147,o),
(283,34,o),
(229,19,cs),
(209,13,o),
(191,5,o),
(172,5,cs),
(127,5,o),
(103,3,o),
(80,53,cs),
(57,100,o),
(82,97,o),
(78,113,cs),
(70,143,o),
(17,157,o),
(23,92,cs),
(25,59,o),
(73,-24,o),
(171,-18,cs),
(201,-17,o),
(224,-12,o),
(236,-8,cs),
(288,7,o),
(405,99,o),
(401,208,cs),
(394,387,o),
(208,411,o),
(130,442,cs),
(129,443,o),
(117,449,o),
(113,451,cs),
(109,453,o)
);
}
);
width = 427;
},
{
associatedMasterId = m01;
layerId = "411FBEA2-570D-4DEF-B1DD-4287B04F458E";
name = "Apr 9, 22, 11:45";
shapes = (
{
closed = 0;
nodes = (
(326,21,l)
);
},
{
closed = 1;
nodes = (
(194,588,o),
(199,642,o),
(221,655,cs),
(232,661,o),
(240,665,o),
(256,665,cs),
(373,665,o),
(427,651,o),
(472,655,cs),
(492,656,o),
(499,658,o),
(515,732,cs),
(524,774,o),
(498,757,o),
(492,743,cs),
(479,714,o),
(457,713,o),
(451,709,cs),
(430,701,o),
(309,709,o),
(282,709,cs),
(269,709,o),
(246,708,o),
(235,711,cs),
(221,715,o),
(185,735,o),
(173,720,cs),
(162,706,o),
(171,692,o),
(167,681,cs),
(160,655,o),
(150,619,o),
(146,583,cs),
(138,522,o),
(118,375,o),
(139,376,cs),
(170,377,o),
(158,444,o),
(197,435,cs),
(399,385,o),
(439,367,o),
(451,233,cs),
(458,157,o),
(387,38,o),
(326,21,cs),
(307,16,o),
(285,7,o),
(263,7,cs),
(213,7,o),
(183,5,o),
(157,59,cs),
(132,110,o),
(160,107,o),
(155,124,cs),
(147,157,o),
(85,172,o),
(91,101,cs),
(94,66,o),
(150,-24,o),
(262,-18,cs),
(297,-16,o),
(323,-11,o),
(334,-7,cs),
(391,10,o),
(522,106,o),
(518,220,cs),
(511,413,o),
(295,450,o),
(210,483,cs),
(187,492,o),
(190,503,o),
(190,503,cs),
(189,507,o),
(188,535,o),
(189,546,cs)
);
},
{
closed = 1;
nodes = (
(394,23,o),
(452,209,o),
(423,397,cs),
(396,582,o),
(293,700,o),
(179,661,cs),
(62,621,o),
(4,436,o),
(32,250,cs),
(59,62,o),
(163,-55,o),
(279,-16,cs)
);
},
{
closed = 1;
nodes = (
(173,-18,o),
(104,107,o),
(81,261,cs),
(59,411,o),
(96,598,o),
(191,629,cs),
(284,661,o),
(350,533,o),
(373,382,cs),
(396,230,o),
(360,47,o),
(267,14,cs)
);
}
);
visible = 1;
width = 600;
}
);
},
{
glyphname = six.pf;
lastChange = "2022-04-12 23:58:41 +0000";
layers = (
{
layerId = m01;
shapes = (
{
closed = 1;
nodes = (
(65,551,o),
(85,420,o),
(81,311,cs),
(81,254,o),
(90,217,o),
(103,177,cs),
(128,102,o),
(203,7,o),
(279,26,cs),
(346,39,o),
(376,155,o),
(360,221,cs),
(340,305,o),
(268,296,o),
(205,252,cs),
(172,229,o),
(144,243,o),
(190,275,cs),
(277,335,o),
(381,333,o),
(404,230,cs),
(430,124,o),
(378,20,o),
(277,-2,cs),
(175,-23,o),
(79,55,o),
(54,160,cs),
(44,200,o),
(31,259,o),
(31,313,cs),
(31,511,o),
(148,648,o),
(229,656,cs),
(293,662,o),
(267,620,o),
(226,616,cs)
);
}
);
width = 600;
},
{
associatedMasterId = m01;
layerId = "59CFC357-BE40-494D-AB64-01BE9D1ED063";
name = "Apr 11, 22, 17:37";
shapes = (
{
closed = 1;
nodes = (
(394,23,o),
(452,209,o),
(423,397,cs),
(396,582,o),
(293,700,o),
(179,661,cs),
(62,621,o),
(4,436,o),
(32,250,cs),
(59,62,o),
(163,-55,o),
(279,-16,cs)
);
},
{
closed = 1;
nodes = (
(173,-18,o),
(104,107,o),
(81,261,cs),
(59,411,o),
(96,598,o),
(191,629,cs),
(284,661,o),
(350,533,o),
(373,382,cs),
(396,230,o),
(360,47,o),
(267,14,cs)
);
}
);
visible = 1;
width = 600;
}
);
},
{
glyphname = seven.pf;
lastChange = "2022-04-12 23:58:48 +0000";
layers = (
{
layerId = m01;
shapes = (
{
closed = 1;
nodes = (
(291,318,o),
(394,476,o),
(408,499,cs),
(441,552,o),
(490,603,o),
(500,633,cs),
(514,673,o),
(441,672,o),
(374,666,cs),
(248,652,o),
(155,666,o),
(113,660,cs),
(93,659,o),
(79,655,o),
(65,581,cs),
(58,539,o),
(83,562,o),
(89,571,cs),
(102,589,o),
(121,601,o),
(136,606,cs),
(147,610,o),
(221,612,o),
(305,612,cs),
(471,612,o),
(426,596,o),
(396,532,cs),
(385,508,o),
(225,270,o),
(174,134,cs),
(156,81,o),
(146,-5,o),
(180,-25,cs),
(245,-64,o),
(252,14,o),
(234,40,cs),
(221,59,o),
(211,134,o),
(232,180,cs)
);
}
);
width = 600;
}
);
},
{
glyphname = eight.pf;
lastChange = "2022-04-12 23:58:46 +0000";
layers = (
{
layerId = m01;
shapes = (
{
closed = 1;
nodes = (
(372,-3,o),
(441,138,o),
(377,251,cs),
(344,308,o),
(308,341,o),
(268,360,c),
(206,389,o),
(147,405,o),
(123,452,cs),
(78,540,o),
(149,618,o),
(190,626,cs),
(270,639,o),
(305,603,o),
(327,533,cs),
(338,504,o),
(344,432,o),
(297,394,cs),
(251,355,o),
(225,366,o),
(144,317,c),
(105,295,o),
(24,201,o),
(55,108,cs),
(86,28,o),
(163,-24,o),
(248,-17,cs)
);
},
{
closed = 1;
nodes = (
(172,1,o),
(129,53,o),
(106,123,cs),
(84,184,o),
(108,259,o),
(150,287,cs),
(227,341,o),
(248,328,o),
(296,363,cs),
(331,388,o),
(401,462,o),
(378,549,cs),
(357,630,o),
(274,680,o),
(182,661,cs),
(102,641,o),
(42,557,o),
(78,449,cs),
(108,357,o),
(195,340,o),
(233,320,cs),
(281,294,o),
(302,247,o),
(318,217,cs),
(351,153,o),
(345,38,o),
(243,16,cs)
);
}
);
width = 600;
},
{
associatedMasterId = m01;
layerId = "39F46283-AF35-4A0E-A84A-2A327FE832BB";
name = "Apr 11, 22, 18:03";
shapes = (
{
closed = 1;
nodes = (
(380,69,o),
(441,189,o),
(384,285,cs),
(355,333,o),
(323,361,o),
(287,377,c),
(232,402,o),
(169,415,o),
(158,455,c),
(134,523,o),
(160,592,o),
(218,603,cs),
(289,613,o),
(320,583,o),
(340,524,cs),
(349,499,o),
(355,439,o),
(313,406,cs),
(272,373,o),
(249,383,o),
(177,341,c),
(142,322,o),
(70,242,o),
(98,163,cs),
(125,96,o),
(194,51,o),
(269,58,cs)
);
},
{
closed = 1;
nodes = (
(202,77,o),
(163,117,o),
(143,176,cs),
(123,228,o),
(145,291,o),
(182,315,cs),
(251,361,o),
(269,350,o),
(312,380,cs),
(343,401,o),
(405,463,o),
(385,537,cs),
(366,606,o),
(292,649,o),
(211,632,cs),
(139,615,o),
(86,524,o),
(118,432,c),
(145,354,o),
(222,340,o),
(256,323,c),
(299,301,o),
(317,261,o),
(332,235,cs),
(361,181,o),
(356,108,o),
(265,90,cs)
);
},
{
closed = 1;
nodes = (
(394,23,o),
(452,209,o),
(423,397,cs),
(396,582,o),
(293,700,o),
(179,661,cs),
(62,621,o),
(4,436,o),
(32,250,cs),
(59,62,o),
(163,-55,o),
(279,-16,cs)
);
},
{
closed = 1;
nodes = (
(173,-18,o),
(104,107,o),
(81,261,cs),
(59,411,o),
(96,598,o),
(191,629,cs),
(284,661,o),
(350,533,o),
(373,382,cs),
(396,230,o),
(360,47,o),
(267,14,cs)
);
}
);
visible = 1;
width = 600;
}
);
},
{
glyphname = nine.pf;
lastChange = "2022-04-12 23:58:52 +0000";
layers = (
{
layerId = m01;
shapes = (
{
closed = 1;
nodes = (
(310,66,o),
(336,197,o),
(377,298,cs),
(396,351,o),
(401,389,o),
(402,431,cs),
(404,510,o),
(366,625,o),
(288,632,cs),
(221,644,o),
(174,549,o),
(165,481,cs),
(153,411,o),
(223,371,o),
(301,377,cs),
(331,379,o),
(344,350,o),
(304,350,cs),
(197,349,o),
(105,411,o),
(121,491,cs),
(133,599,o),
(197,672,o),
(300,658,cs),
(403,643,o),
(467,538,o),
(454,430,cs),
(450,389,o),
(442,329,o),
(424,278,cs),
(355,93,o),
(198,4,o),
(120,24,cs),
(57,40,o),
(96,71,o),
(136,60,cs)
);
}
);
width = 600;
}
);
},
{
glyphname = zero.tf;
lastChange = "2022-04-09 14:11:24 +0000";
layers = (
{
layerId = m01;
shapes = (
{
closed = 1;
nodes = (
(355,23,o),
(409,199,o),
(381,378,cs),
(357,553,o),
(262,666,o),
(155,629,cs),
(47,590,o),
(-8,415,o),
(17,239,cs),
(44,61,o),
(141,-51,o),
(248,-15,cs)
);
},
{
closed = 1;
nodes = (
(150,-17,o),
(85,103,o),
(64,249,cs),
(44,391,o),
(77,569,o),
(166,597,cs),
(254,629,o),
(314,506,o),
(335,364,cs),
(357,220,o),
(323,46,o),
(236,15,cs)
);
}
);
width = 399;
}
);
},
{
glyphname = one.tf;
lastChange = "2022-04-09 14:57:48 +0000";
layers = (
{
layerId = m01;
shapes = (
{
closed = 1;
nodes = (
(234,505,o),
(234,475,cs),
(234,440,o),
(234,437,o),
(234,413,cs),
(236,364,o),
(234,220,o),
(234,181,cs),
(234,160,o),
(235,120,o),
(235,98,cs),
(234,-6,o),
(244,24,o),
(308,14,cs),
(332,11,o),
(337,-24,o),
(311,-19,cs),
(291,-17,o),
(179,-11,o),
(147,-16,cs),
(107,-20,ls),
(83,-24,o),
(92,3,o),
(99,6,cs),
(153,30,o),
(191,-15,o),
(191,102,cs),
(191,519,ls),
(191,601,o),
(151,483,o),
(81,464,cs),
(74,462,o),
(65,468,o),
(81,486,cs),
(195,617,ls),
(233,660,o)
);
}
);
width = 400;
},
{
associatedMasterId = m01;
layerId = "D12FF727-9A94-4898-AAA9-27AD933AD66B";
name = "Apr 9, 22, 10:12";
shapes = (
{
closed = 1;
nodes = (
(235,586,o),
(235,552,cs),
(235,512,o),
(235,507,o),
(236,481,cs),
(238,423,o),
(236,258,o),
(236,213,cs),
(236,188,o),
(237,142,o),
(237,116,cs),
(235,-3,o),
(246,31,o),
(315,20,cs),
(340,16,o),
(346,-24,o),
(318,-19,cs),
(296,-15,o),
(177,-9,o),
(143,-14,cs),
(100,-20,ls),
(74,-24,o),
(84,7,o),
(91,11,cs),
(149,39,o),
(190,-13,o),
(190,122,cs),
(190,602,ls),
(190,696,o),
(147,560,o),
(72,539,cs),
(65,537,o),
(55,544,o),
(72,565,cs),
(194,716,ls),
(234,766,o)
);
}
);
visible = 1;
width = 400;
}
);
},
{
glyphname = two.tf;
lastChange = "2022-04-09 14:57:58 +0000";
layers = (
{
layerId = m01;
shapes = (
{
closed = 1;
nodes = (
(345,-19,o),
(353,-23,o),
(367,49,c),
(374,88,o),
(352,73,o),
(345,59,c),
(336,40,o),
(316,31,o),
(309,26,c),
(299,22,o),
(233,32,o),
(157,26,c),
(70,18,o),
(73,43,o),
(120,88,c),
(141,108,o),
(243,196,o),
(314,332,c),
(318,339,o),
(449,623,o),
(201,637,c),
(153,640,o),
(98,599,o),
(81,567,c),
(64,538,o),
(49,505,o),
(46,490,c),
(40,467,o),
(60,454,o),
(71,472,c),
(77,480,o),
(88,516,o),
(102,533,c),
(113,548,o),
(155,599,o),
(193,598,c),
(355,590,o),
(321,373,o),
(228,265,c),
(161,188,o),
(97,118,o),
(70,88,c),
(37,53,o),
(46,51,o),
(34,14,c),
(16,-34,o),
(78,-21,o),
(134,-16,c),
(248,-7,o),
(289,-24,o),
(328,-21,c)
);
}
);
width = 399;
},
{
associatedMasterId = m01;
layerId = "1C74FDC6-C9B3-44A6-967B-E26E50E5A8B0";
name = "Apr 9, 22, 10:57";
shapes = (
{
closed = 1;
nodes = (
(345,-19,o),
(353,-23,o),
(367,47,c),
(374,86,o),
(352,71,o),
(345,57,c),
(336,39,o),
(316,30,o),
(309,25,c),
(299,21,o),
(233,31,o),
(157,25,c),
(70,17,o),
(73,41,o),
(120,86,c),
(141,105,o),
(243,191,o),
(314,325,c),
(318,332,o),
(449,610,o),
(201,624,c),
(153,626,o),
(98,586,o),
(81,555,c),
(64,527,o),
(49,494,o),
(46,479,c),
(40,457,o),
(60,444,o),
(71,462,c),
(77,470,o),
(88,505,o),
(102,522,c),
(113,536,o),
(155,586,o),
(193,585,c),
(355,577,o),
(321,365,o),
(228,259,c),
(161,184,o),
(97,115,o),
(70,86,c),
(37,51,o),
(46,49,o),
(34,13,c),
(16,-34,o),
(78,-21,o),
(134,-16,c),
(248,-8,o),
(289,-24,o),
(328,-21,c)
);
},
{
closed = 1;
nodes = (
(355,23,o),
(409,199,o),
(381,378,cs),
(357,553,o),
(262,666,o),
(155,629,cs),
(47,590,o),
(-8,415,o),
(17,239,cs),
(44,61,o),
(141,-51,o),
(248,-15,cs)
);
},
{
closed = 1;
nodes = (
(150,-17,o),
(85,103,o),
(64,249,cs),
(44,391,o),
(77,569,o),
(166,597,cs),
(254,629,o),
(314,506,o),
(335,364,cs),
(357,220,o),
(323,46,o),
(236,15,cs)
);
}
);
visible = 1;
width = 399;
}
);
},
{
glyphname = three.tf;
lastChange = "2022-04-09 15:21:39 +0000";
layers = (
{
layerId = m01;
shapes = (
{
closed = 0;
nodes = (
(243,19,l)
);
},
{
closed = 1;
nodes = (
(49,103,o),
(77,100,o),
(72,116,cs),
(64,148,o),
(2,162,o),
(8,95,cs),
(11,61,o),
(67,-24,o),
(179,-18,cs),
(214,-16,o),
(240,-12,o),
(251,-8,cs),
(308,8,o),
(418,104,o),
(386,211,cs),
(364,286,o),
(316,326,o),
(239,337,cs),
(226,339,o),
(222,344,o),
(222,344,cs),
(222,348,o),
(224,357,o),
(234,363,cs),
(308,392,o),
(343,462,o),
(315,538,cs),
(287,603,o),
(243,634,o),
(163,632,cs),
(119,630,o),
(72,588,o),
(35,532,cs),
(25,516,o),
(44,504,o),
(59,517,cs),
(74,528,o),
(79,552,o),
(96,569,cs),
(115,588,o),
(126,594,o),
(156,598,cs),
(219,606,o),
(250,581,o),
(270,525,cs),
(290,475,o),
(268,426,o),
(227,394,cs),
(180,357,o),
(126,295,o),
(163,295,cs),
(175,295,o),
(184,309,o),
(204,309,cs),
(269,309,o),
(319,266,o),
(337,202,cs),
(355,141,o),
(304,35,o),
(243,19,cs),
(224,14,o),
(202,5,o),
(180,5,cs),
(130,5,o),
(100,4,o),
(74,55,cs)
);
}
);
width = 400;
},
{
associatedMasterId = m01;
layerId = "460442FC-A306-4798-A46C-5B35C137AAD7";
name = "Apr 9, 22, 11:20";
shapes = (
{
closed = 1;
nodes = (
(355,23,o),
(409,199,o),
(381,378,cs),
(357,553,o),
(262,666,o),
(155,629,cs),
(47,590,o),
(-8,415,o),
(17,239,cs),
(44,61,o),
(141,-51,o),
(248,-15,cs)
);
},
{
closed = 1;
nodes = (
(150,-17,o),
(85,103,o),
(64,249,cs),
(44,391,o),
(77,569,o),
(166,597,cs),
(254,629,o),
(314,506,o),
(335,364,cs),
(357,220,o),
(323,46,o),
(236,15,cs)
);
}
);
visible = 1;
width = 400;
}
);
},
{
glyphname = four.tf;
lastChange = "2022-04-11 21:04:30 +0000";
layers = (
{
layerId = m01;
shapes = (
{
closed = 1;
nodes = (
(357,181,o),
(192,181,o),
(160,181,cs),
(117,181,o),
(-20,162,o),
(23,229,cs),
(262,610,ls),
(272,627,o),
(286,616,o),
(284,610,cs),
(264,536,o),
(21,222,o),
(76,222,cs),
(109,222,o),
(337,219,o),
(359,219,cs),
(380,219,o),
(392,181,o),
(380,181,cs)
);
},
{
closed = 1;
nodes = (
(243,293,o),
(281,314,o),
(281,298,cs),
(281,243,o),
(280,201,o),
(280,178,cs),
(280,157,o),
(281,117,o),
(281,95,cs),
(279,-6,o),
(289,23,o),
(350,13,cs),
(372,9,o),
(377,-24,o),
(353,-19,cs),
(333,-16,o),
(227,-10,o),
(197,-15,cs),
(158,-20,ls),
(136,-23,o),
(145,3,o),
(150,5,cs),
(202,29,o),
(236,-14,o),
(239,101,cs),
(243,274,ls)
);
}
);
width = 400;
},
{
associatedMasterId = m01;
layerId = "98C16DDC-6B41-4830-B976-607AA1E069DD";
name = "Apr 11, 22, 17:04";
shapes = (
{
closed = 1;
nodes = (
(378,202,o),
(196,202,o),
(161,202,cs),
(113,202,o),
(-38,181,o),
(9,256,cs),
(273,676,ls),
(285,695,o),
(300,683,o),
(298,676,cs),
(276,595,o),
(7,248,o),
(68,248,cs),
(105,248,o),
(356,245,o),
(381,245,cs),
(404,245,o),
(417,202,o),
(404,202,cs)
);
},
{
closed = 1;
nodes = (
(252,326,o),
(294,349,o),
(294,332,cs),
(294,271,o),
(293,225,o),
(293,199,cs),
(293,176,o),
(294,132,o),
(294,108,cs),
(292,-4,o),
(303,28,o),
(371,17,cs),
(395,13,o),
(401,-24,o),
(374,-19,cs),
(352,-15,o),
(235,-9,o),
(202,-14,cs),
(159,-20,ls),
(134,-23,o),
(144,6,o),
(150,8,cs),
(207,35,o),
(245,-13,o),
(248,114,cs),
(252,305,ls)
);
},
{
closed = 1;
nodes = (
(355,23,o),
(409,199,o),
(381,378,cs),
(357,553,o),
(262,666,o),
(155,629,cs),
(47,590,o),
(-8,415,o),
(17,239,cs),
(44,61,o),
(141,-51,o),
(248,-15,cs)
);
},
{
closed = 1;
nodes = (
(150,-17,o),
(85,103,o),
(64,249,cs),
(44,391,o),
(77,569,o),
(166,597,cs),
(254,629,o),
(314,506,o),
(335,364,cs),
(357,220,o),
(323,46,o),
(236,15,cs)
);
}
);
visible = 1;
width = 409;
}
);
},
{
glyphname = five.tf;
lastChange = "2022-04-09 15:49:40 +0000";
layers = (
{
layerId = m01;
shapes = (
{
closed = 0;
nodes = (
(213,17,l)
);
},
{
closed = 1;
nodes = (
(100,431,o),
(97,437,cs),
(85,466,o),
(103,571,o),
(125,578,cs),
(146,584,o),
(151,588,o),
(166,588,cs),
(263,588,o),
(309,575,o),
(347,579,cs),
(363,580,o),
(370,582,o),
(384,647,cs),
(391,684,o),
(369,669,o),
(363,656,cs),
(353,631,o),
(340,626,o),
(334,622,cs),
(314,613,o),
(210,626,o),
(187,626,cs),
(177,626,o),
(157,625,o),
(147,628,cs),
(136,631,o),
(95,649,o),
(85,635,cs),
(76,622,o),
(84,610,o),
(80,600,cs),
(74,578,o),
(65,546,o),
(61,513,cs),
(56,460,o),
(40,329,o),
(56,330,cs),
(83,331,o),
(73,385,o),
(106,387,cs),
(283,341,o),
(316,315,o),
(324,210,cs),
(330,140,o),
(269,31,o),
(216,18,cs),
(197,12,o),
(179,4,o),
(161,4,cs),
(117,4,o),
(94,2,o),
(72,50,cs),
(50,95,o),
(74,92,o),
(70,108,cs),
(62,136,o),
(11,149,o),
(17,87,cs),
(19,55,o),
(65,-24,o),
(160,-18,cs),
(189,-17,o),
(211,-12,o),
(223,-9,cs),
(273,6,o),
(387,94,o),
(383,199,cs),
(376,370,o),
(196,393,o),
(120,422,cs),
(119,423,o),
(108,429,o),
(104,431,cs),
(100,433,o)
);
}
);
width = 402;
},
{
associatedMasterId = m01;
layerId = "B574D8E1-AF24-4702-8F66-C178D2E80A00";
name = "Apr 9, 22, 11:49";
shapes = (
{
closed = 0;
nodes = (
(212,18,l)
);
},
{
closed = 1;
nodes = (
(95,451,o),
(92,457,cs),
(79,487,o),
(98,597,o),
(121,604,cs),
(142,610,o),
(148,614,o),
(163,614,cs),
(263,614,o),
(311,601,o),
(350,605,cs),
(367,606,o),
(374,608,o),
(388,676,cs),
(396,715,o),
(373,699,o),
(367,686,cs),
(356,660,o),
(343,655,o),
(337,651,cs),
(316,641,o),
(209,655,o),
(185,655,cs),
(174,655,o),
(154,654,o),
(144,657,cs),
(132,660,o),
(90,678,o),
(79,664,cs),
(70,651,o),
(78,638,o),
(74,628,cs),
(68,604,o),
(59,571,o),
(55,537,cs),
(49,481,o),
(33,345,o),
(50,346,cs),
(77,347,o),
(67,403,o),
(101,405,cs),
(284,357,o),
(318,330,o),
(326,220,cs),
(333,147,o),
(269,34,o),
(215,19,cs),
(195,13,o),
(177,5,o),
(158,5,cs),
(113,5,o),
(89,3,o),
(66,53,cs),
(43,100,o),
(68,97,o),
(64,113,cs),
(56,143,o),
(3,157,o),
(9,92,cs),
(11,59,o),
(59,-24,o),
(157,-18,cs),
(187,-17,o),
(210,-12,o),
(222,-8,cs),
(274,7,o),
(391,99,o),
(387,208,cs),
(380,387,o),
(194,411,o),
(116,442,cs),
(115,443,o),
(103,449,o),
(99,451,cs),
(95,453,o)
);
},
{
closed = 1;
nodes = (
(355,23,o),
(409,199,o),
(381,378,cs),
(357,553,o),
(262,666,o),
(155,629,cs),
(47,590,o),
(-8,415,o),
(17,239,cs),
(44,61,o),
(141,-51,o),
(248,-15,cs)
);
},
{
closed = 1;
nodes = (
(150,-17,o),
(85,103,o),
(64,249,cs),
(44,391,o),
(77,569,o),
(166,597,cs),
(254,629,o),
(314,506,o),
(335,364,cs),
(357,220,o),
(323,46,o),
(236,15,cs)
);
}
);
visible = 1;
width = 399;
}
);
},
{
glyphname = six.tf;
lastChange = "2022-04-11 22:06:16 +0000";
layers = (
{
layerId = m01;
shapes = (
{
closed = 1;
nodes = (
(44,536,o),
(64,405,o),
(60,296,cs),
(60,239,o),
(69,202,o),
(82,162,cs),
(107,87,o),
(182,-8,o),
(258,11,cs),
(325,24,o),
(355,140,o),
(339,206,cs),
(319,290,o),
(247,281,o),
(184,237,cs),
(151,214,o),
(123,228,o),
(169,260,cs),
(256,320,o),
(360,318,o),
(383,215,cs),
(409,109,o),
(357,5,o),
(256,-17,cs),
(154,-38,o),
(58,40,o),
(33,145,cs),
(23,185,o),
(10,244,o),
(10,298,cs),
(10,496,o),
(127,633,o),
(208,641,cs),
(272,647,o),
(246,605,o),
(205,601,cs)
);
}
);
width = 400;
},
{
associatedMasterId = m01;
layerId = "3F74CD31-B462-4557-9E5B-7E13766A47D9";
name = "Apr 11, 22, 18:05";
shapes = (
{
closed = 1;
nodes = (
(65,551,o),
(85,420,o),
(81,311,cs),
(81,254,o),
(90,217,o),
(103,177,cs),
(128,102,o),
(203,7,o),
(279,26,cs),
(346,39,o),
(376,155,o),
(360,221,cs),
(340,305,o),
(268,296,o),
(205,252,cs),
(172,229,o),
(144,243,o),
(190,275,cs),
(277,335,o),
(381,333,o),
(404,230,cs),
(430,124,o),
(378,20,o),
(277,-2,cs),
(175,-23,o),
(79,55,o),
(54,160,cs),
(44,200,o),
(31,259,o),
(31,313,cs),
(31,511,o),
(148,648,o),
(229,656,cs),
(293,662,o),
(267,620,o),
(226,616,cs)
);
},
{
closed = 1;
nodes = (
(355,23,o),
(409,199,o),
(381,378,cs),
(357,553,o),
(262,666,o),
(155,629,cs),
(47,590,o),
(-8,415,o),
(17,239,cs),
(44,61,o),
(141,-51,o),
(248,-15,cs)
);
},
{
closed = 1;
nodes = (
(150,-17,o),
(85,103,o),
(64,249,cs),
(44,391,o),
(77,569,o),
(166,597,cs),
(254,629,o),
(314,506,o),
(335,364,cs),
(357,220,o),
(323,46,o),
(236,15,cs)
);
}
);
visible = 1;
width = 600;
}
);
},
{
glyphname = seven.tf;
lastChange = "2022-04-11 21:26:41 +0000";
layers = (
{
layerId = m01;
shapes = (
{
closed = 1;
nodes = (
(207,297,o),
(299,447,o),
(312,468,cs),
(341,518,o),
(384,567,o),
(393,595,cs),
(405,633,o),
(341,632,o),
(282,626,cs),
(170,613,o),
(87,626,o),
(50,621,cs),
(32,620,o),
(20,616,o),
(8,546,cs),
(1,506,o),
(24,528,o),
(28,536,cs),
(40,553,o),
(57,565,o),
(70,569,cs),
(80,573,o),
(146,575,o),
(221,575,cs),
(367,575,o),
(328,560,o),
(301,500,cs),
(291,477,o),
(149,252,o),
(104,123,cs),
(88,73,o),
(79,-8,o),
(109,-27,cs),
(167,-64,o),
(173,10,o),
(157,34,cs),
(146,52,o),
(137,123,o),
(156,167,cs)
);
}
);
width = 401;
},
{
associatedMasterId = m01;
layerId = "8C2BC0BF-6CCA-41A2-82A8-921BB1D4B31B";
name = "Apr 11, 22, 17:25";
shapes = (
{
closed = 1;
nodes = (
(291,318,o),
(394,476,o),
(408,499,cs),
(441,552,o),
(490,603,o),
(500,633,cs),
(514,673,o),
(441,672,o),
(374,666,cs),
(248,652,o),
(155,666,o),
(113,660,cs),
(93,659,o),
(79,655,o),
(65,581,cs),
(58,539,o),
(83,562,o),
(89,571,cs),
(102,589,o),
(121,601,o),
(136,606,cs),
(147,610,o),
(221,612,o),
(305,612,cs),
(471,612,o),
(426,596,o),
(396,532,cs),
(385,508,o),
(225,270,o),
(174,134,cs),
(156,81,o),
(146,-5,o),
(180,-25,cs),
(245,-64,o),
(252,14,o),
(234,40,cs),
(221,59,o),
(211,134,o),
(232,180,cs)
);
},
{
closed = 1;
nodes = (
(345,-19,o),
(353,-23,o),
(367,49,c),
(374,88,o),
(352,73,o),
(345,59,c),
(336,40,o),
(316,31,o),
(309,26,c),
(299,22,o),
(233,32,o),
(157,26,c),
(70,18,o),
(73,43,o),
(120,88,c),
(141,108,o),
(243,196,o),
(314,332,c),
(318,339,o),
(449,623,o),
(201,637,c),
(153,640,o),
(98,599,o),
(81,567,c),
(64,538,o),
(49,505,o),
(46,490,c),
(40,467,o),
(60,454,o),
(71,472,c),
(77,480,o),
(88,516,o),
(102,533,c),
(113,548,o),
(155,599,o),
(193,598,c),
(355,590,o),
(321,373,o),
(228,265,c),
(161,188,o),
(97,118,o),
(70,88,c),
(37,53,o),
(46,51,o),
(34,14,c),
(16,-34,o),
(78,-21,o),
(134,-16,c),
(248,-7,o),
(289,-24,o),
(328,-21,c)
);
}
);
visible = 1;
width = 600;
}
);
},
{
glyphname = eight.tf;
lastChange = "2022-04-11 22:05:23 +0000";
layers = (
{
layerId = m01;
shapes = (
{
closed = 1;
nodes = (
(338,-4,o),
(403,128,o),
(343,235,cs),
(312,288,o),
(278,319,o),
(240,337,c),
(182,364,o),
(127,379,o),
(104,424,cs),
(62,506,o),
(129,580,o),
(167,587,cs),
(242,599,o),
(275,566,o),
(296,500,cs),
(306,473,o),
(312,405,o),
(268,369,cs),
(224,332,o),
(200,343,o),
(124,297,c),
(87,276,o),
(11,188,o),
(40,100,cs),
(69,25,o),
(142,-24,o),
(222,-17,cs)
);
},
{
closed = 1;
nodes = (
(150,0,o),
(110,48,o),
(88,114,cs),
(67,172,o),
(90,242,o),
(129,268,cs),
(202,319,o),
(222,307,o),
(267,340,cs),
(300,363,o),
(366,433,o),
(344,515,cs),
(324,591,o),
(246,638,o),
(160,620,cs),
(84,601,o),
(28,522,o),
(62,421,cs),
(90,334,o),
(172,318,o),
(208,299,cs),
(253,275,o),
(272,231,o),
(287,203,cs),
(319,142,o),
(313,34,o),
(217,14,cs)
);
}
);
width = 400;
},
{
associatedMasterId = m01;
layerId = "D0281622-7C5E-4B7F-96E7-CDA52F61B0D1";
name = "Apr 11, 22, 18:04";
shapes = (
{
closed = 1;
nodes = (
(372,-3,o),
(441,138,o),
(377,251,cs),
(344,308,o),
(308,341,o),
(268,360,c),
(206,389,o),
(147,405,o),
(123,452,cs),
(78,540,o),
(149,618,o),
(190,626,cs),
(270,639,o),
(305,603,o),
(327,533,cs),
(338,504,o),
(344,432,o),
(297,394,cs),
(251,355,o),
(225,366,o),
(144,317,c),
(105,295,o),
(24,201,o),
(55,108,cs),
(86,28,o),
(163,-24,o),
(248,-17,cs)
);
},
{
closed = 1;
nodes = (
(172,1,o),
(129,53,o),
(106,123,cs),
(84,184,o),
(108,259,o),
(150,287,cs),
(227,341,o),
(248,328,o),
(296,363,cs),
(331,388,o),
(401,462,o),
(378,549,cs),
(357,630,o),
(274,680,o),
(182,661,cs),
(102,641,o),
(42,557,o),
(78,449,cs),
(108,357,o),
(195,340,o),
(233,320,cs),
(281,294,o),
(302,247,o),
(318,217,cs),
(351,153,o),
(345,38,o),
(243,16,cs)
);
},
{
closed = 1;
nodes = (
(355,23,o),
(409,199,o),
(381,378,cs),
(357,553,o),
(262,666,o),
(155,629,cs),
(47,590,o),
(-8,415,o),
(17,239,cs),
(44,61,o),
(141,-51,o),
(248,-15,cs)
);
},
{
closed = 1;
nodes = (
(150,-17,o),
(85,103,o),
(64,249,cs),
(44,391,o),
(77,569,o),
(166,597,cs),
(254,629,o),
(314,506,o),
(335,364,cs),
(357,220,o),
(323,46,o),
(236,15,cs)
);
}
);
visible = 1;
width = 600;
}
);
},
{
glyphname = nine.tf;
lastChange = "2022-04-11 22:06:36 +0000";
layers = (
{
layerId = m01;
shapes = (
{
closed = 1;
nodes = (
(239,22,o),
(265,157,o),
(306,262,cs),
(325,317,o),
(330,356,o),
(331,400,cs),
(333,481,o),
(295,600,o),
(217,608,cs),
(150,620,o),
(103,522,o),
(94,451,cs),
(82,379,o),
(152,337,o),
(230,344,cs),
(260,346,o),
(273,316,o),
(233,316,cs),
(126,315,o),
(34,379,o),
(50,462,cs),
(62,573,o),
(126,649,o),
(229,635,cs),
(332,619,o),
(396,510,o),
(383,398,cs),
(379,356,o),
(371,294,o),
(353,241,cs),
(284,50,o),
(127,-42,o),
(49,-22,cs),
(-14,-5,o),
(25,27,o),
(65,15,cs)
);
}
);
width = 401;
},
{
associatedMasterId = m01;
layerId = "CBE944F0-CE15-4378-98C9-BC60A69B6BFD";
name = "Apr 11, 22, 18:05";
shapes = (
{
closed = 1;
nodes = (
(355,23,o),
(409,199,o),
(381,378,cs),
(357,553,o),
(262,666,o),
(155,629,cs),
(47,590,o),
(-8,415,o),
(17,239,cs),
(44,61,o),
(141,-51,o),
(248,-15,cs)
);
},
{
closed = 1;
nodes = (
(150,-17,o),
(85,103,o),
(64,249,cs),
(44,391,o),
(77,569,o),
(166,597,cs),
(254,629,o),
(314,506,o),
(335,364,cs),
(357,220,o),
(323,46,o),
(236,15,cs)
);
}
);
visible = 1;
width = 600;
}
);
},
{
glyphname = period;
lastChange = "2022-04-08 20:36:47 +0000";
layers = (
{
layerId = m01;
shapes = (
{
closed = 1;
nodes = (
(41,20,o),
(52,0,o),
(103,-15,cs),
(141,-27,o),
(166,32,o),
(138,59,cs),
(129,68,o),
(79,111,o),
(58,58,cs)
);
}
);
width = 201;
}
);
unicode = 46;
},
{
glyphname = comma;
lastChange = "2022-04-08 20:59:42 +0000";
layers = (
{
layerId = m01;
shapes = (
{
closed = 1;
nodes = (
(207,3,o),
(139,62,cs),
(129,70,o),
(81,117,o),
(59,57,cs),
(48,28,o),
(53,17,o),
(98,2,cs),
(107,-1,o),
(113,-5,o),
(116,-26,cs),
(123,-74,o),
(71,-116,o),
(56,-126,cs),
(39,-138,o),
(34,-141,o),
(49,-144,cs),
(83,-150,o)
);
}
);
width = 199;
}
);
unicode = 44;
},
{
glyphname = colon;
lastChange = "2022-04-08 20:59:35 +0000";
layers = (
{
layerId = m01;
shapes = (
{
closed = 1;
nodes = (
(32,20,o),
(43,0,o),
(94,-15,cs),
(132,-27,o),
(157,32,o),
(129,59,cs),
(120,68,o),
(70,111,o),
(49,58,cs)
);
},
{
closed = 1;
nodes = (
(172,434,o),
(106,433,o),
(94,432,cs),
(55,429,o),
(36,368,o),
(73,352,cs),
(122,331,o),
(143,339,o),
(154,379,cs)
);
}
);
width = 199;
}
);
unicode = 58;
},
{
glyphname = semicolon;
lastChange = "2022-04-08 20:59:16 +0000";
layers = (
{
layerId = m01;
shapes = (
{
closed = 1;
nodes = (
(179,434,o),
(113,433,o),
(101,432,cs),
(62,429,o),
(43,368,o),
(80,352,cs),
(129,331,o),
(150,339,o),
(161,379,cs)
);
},
{
closed = 1;
nodes = (
(202,3,o),
(134,62,cs),
(124,70,o),
(76,117,o),
(54,57,cs),
(43,28,o),
(48,17,o),
(93,2,cs),
(102,-1,o),
(108,-5,o),
(111,-26,cs),
(118,-74,o),
(66,-116,o),
(51,-126,cs),
(34,-138,o),
(29,-141,o),
(44,-144,cs),
(78,-150,o)
);
}
);
width = 200;
}
);
unicode = 59;
},
{
glyphname = exclam;
lastChange = "2022-04-08 21:04:51 +0000";
layers = (
{
layerId = m01;
shapes = (
{
closed = 1;
nodes = (
(84,171,o),
(118,167,cs),
(147,165,o),
(183,677,o),
(180,681,cs),
(173,690,o),
(152,740,o),
(101,704,cs),
(73,684,o)
);
},
{
closed = 1;
nodes = (
(142,111,o),
(92,68,o),
(83,59,cs),
(55,32,o),
(80,-27,o),
(118,-15,cs),
(169,0,o),
(180,20,o),
(163,58,cs)
);
}
);
width = 261;
}
);
unicode = 33;
},
{
glyphname = hyphen;
lastChange = "2022-04-08 21:17:42 +0000";
layers = (
{
layerId = m01;
shapes = (
{
closed = 1;
nodes = (
(214,192,ls),
(226,197,o),
(229,213,o),
(202,234,cs),
(193,241,o),
(42,212,o),
(43,183,cs),
(43,150,o),
(43,139,o),
(75,149,cs)
);
}
);
width = 265;
}
);
unicode = 45;
},
{
glyphname = endash;
lastChange = "2022-04-08 21:19:25 +0000";
layers = (
{
layerId = m01;
shapes = (
{
closed = 1;
nodes = (
(392,308,ls),
(399,308,o),
(407,330,o),
(385,353,cs),
(367,371,o),
(2,369,o),
(2,340,cs),
(-2,307,o),
(-3,296,o),
(69,298,cs)
);
}
);
width = 400;
}
);
unicode = 8211;
},
{
glyphname = emdash;
lastChange = "2022-04-08 21:20:51 +0000";
layers = (
{
layerId = m01;
shapes = (
{
closed = 1;
nodes = (
(782,308,ls),
(792,308,o),
(817,332,o),
(776,353,cs),
(740,371,o),
(2,369,o),
(2,340,cs),
(-6,307,o),
(-3,296,o),
(140,298,cs)
);
}
);
width = 800;
}
);
unicode = 8212;
},
{
glyphname = underscore;
lastChange = "2022-04-08 21:21:06 +0000";
layers = (
{
layerId = m01;
shapes = (
{
closed = 1;
nodes = (
(490,-152,ls),
(497,-152,o),
(505,-130,o),
(483,-107,cs),
(465,-89,o),
(100,-91,o),
(100,-120,cs),
(96,-153,o),
(95,-164,o),
(167,-162,cs)
);
}
);
width = 600;
}
);
unicode = 95;
},
{
glyphname = quotedblleft;
lastChange = "2022-04-08 21:11:03 +0000";
layers = (
{
layerId = m01;
shapes = (
{
closed = 1;
nodes = (
(129,596,o),
(203,545,cs),
(214,538,o),
(266,496,o),
(282,558,cs),
(290,588,o),
(291,587,o),
(244,597,cs),
(235,600,o),
(227,601,o),
(216,619,cs),
(197,651,o),
(225,685,o),
(239,696,cs),
(254,710,o),
(259,713,o),
(244,715,cs),
(209,717,o)
);
},
{
closed = 1;
nodes = (
(-14,592,o),
(55,527,cs),
(65,519,o),
(111,470,o),
(135,530,cs),
(147,558,o),
(147,569,o),
(102,586,cs),
(93,589,o),
(88,593,o),
(86,615,cs),
(81,660,o),
(163,713,o),
(177,717,cs),
(210,727,o),
(192,735,o),
(170,731,cs),
(108,720,o)
);
}
);
width = 320;
}
);
unicode = 8220;
},
{
glyphname = quotedblright;
lastChange = "2022-04-08 21:08:15 +0000";
layers = (
{
layerId = m01;
shapes = (
{
closed = 1;
nodes = (
(191,635,o),
(117,686,cs),
(106,693,o),
(54,735,o),
(38,673,cs),
(30,643,o),
(36,633,o),
(83,623,cs),
(92,620,o),
(98,617,o),
(104,597,cs),
(116,550,o),
(88,531,o),
(74,520,cs),
(59,506,o),
(54,503,o),
(69,501,cs),
(104,499,o)
);
},
{
closed = 1;
nodes = (
(331,642,o),
(265,704,cs),
(255,712,o),
(209,761,o),
(185,701,cs),
(173,673,o),
(173,662,o),
(218,645,cs),
(227,642,o),
(232,638,o),
(234,616,cs),
(239,568,o),
(191,528,o),
(175,519,cs),
(158,507,o),
(153,504,o),
(168,501,cs),
(202,494,o)
);
}
);
width = 319;
}
);
unicode = 8221;
},
{
glyphname = quotedbl;
lastChange = "2022-04-08 21:12:23 +0000";
layers = (
{
layerId = m01;
shapes = (
{
closed = 1;
nodes = (
(188,547,o),
(191,548,cs),
(209,557,o),
(257,714,o),
(250,718,cs),
(245,722,o),
(219,754,o),
(183,732,cs),
(170,722,o),
(175,557,o),
(181,554,cs),
(186,551,o)
);
},
{
closed = 1;
nodes = (
(123,542,o),
(126,544,cs),
(140,558,o),
(144,708,o),
(136,709,cs),
(130,711,o),
(97,730,o),
(69,699,cs),
(59,687,o),
(107,547,o),
(113,547,cs),
(120,545,o)
);
}
);
width = 319;
}
);
unicode = 34;
},
{
glyphname = quotesingle;
lastChange = "2022-04-08 20:59:03 +0000";
layers = (
{
layerId = m01;
shapes = (
{
closed = 1;
nodes = (
(81,527,o),
(85,528,cs),
(105,539,o),
(149,699,o),
(141,703,cs),
(134,706,o),
(102,736,o),
(62,711,cs),
(48,700,o),
(65,536,o),
(72,534,cs),
(78,531,o)
);
}
);
width = 199;
}
);
unicode = 39;
},
